M48
; DRILL file {KiCad 9.0.0} date 2025-04-04T21:25:44+0900
; FORMAT={-:-/ absolute / metric / decimal}
; #@! TF.CreationDate,2025-04-04T21:25:44+09:00
; #@! TF.GenerationSoftware,Kicad,Pcbnew,9.0.0
; #@! TF.FileFunction,MixedPlating,1,2
FMAT,2
METRIC
; #@! TA.AperFunction,Plated,PTH,ViaDrill
T1C0.400
; #@! TA.AperFunction,Plated,PTH,ComponentDrill
T2C0.500
; #@! TA.AperFunction,Plated,PTH,ComponentDrill
T3C0.600
; #@! TA.AperFunction,Plated,PTH,ComponentDrill
T4C0.800
; #@! TA.AperFunction,Plated,PTH,ComponentDrill
T5C0.900
; #@! TA.AperFunction,Plated,PTH,ComponentDrill
T6C1.000
; #@! TA.AperFunction,NonPlated,NPTH,ComponentDrill
T7C3.200
%
G90
G05
T1
X2.0Y98.0
X4.486Y47.56
X6.23Y6.999
X7.5Y82.0
X7.974Y37.516
X8.541Y85.895
X8.967Y8.563
X10.987Y73.128
X11.921Y84.996
X12.444Y24.845
X12.502Y58.644
X13.13Y7.318
X13.713Y29.351
X13.801Y70.605
X13.975Y50.689
X14.627Y73.821
X15.415Y53.842
X15.94Y77.935
X16.473Y45.712
X16.482Y64.34
X16.482Y50.988
X19.43Y43.794
X19.835Y42.306
X21.57Y29.515
X22.86Y60.855
X22.865Y12.579
X23.549Y28.484
X23.697Y97.952
X23.729Y9.22
X26.08Y27.763
X27.443Y61.373
X27.495Y81.535
X27.867Y32.936
X28.416Y82.383
X29.351Y78.496
X29.415Y60.381
X30.088Y75.192
X31.318Y46.456
X31.35Y91.775
X31.578Y85.545
X32.245Y61.96
X32.499Y62.96
X32.892Y45.062
X33.887Y51.583
X34.095Y72.847
X35.585Y84.369
X35.669Y74.195
X36.313Y81.338
X36.5Y40.5
X36.713Y64.844
X37.207Y76.828
X38.48Y31.7
X39.752Y94.711
X40.169Y1.153
X41.566Y56.2
X41.98Y36.301
X42.664Y91.62
X43.093Y29.924
X43.757Y40.966
X43.81Y95.805
X45.225Y43.676
X45.38Y35.425
X45.604Y66.577
X45.83Y63.841
X46.195Y85.353
X46.305Y92.199
X46.466Y95.953
X47.059Y62.798
X47.082Y12.847
X47.338Y43.58
X47.935Y65.097
X48.163Y51.759
X48.17Y92.72
X49.156Y46.41
X49.328Y64.114
X49.641Y47.393
X52.506Y45.405
X53.144Y58.032
X54.117Y48.588
X54.251Y47.13
X54.341Y59.979
X54.87Y38.201
X54.976Y39.209
X55.067Y7.347
X55.467Y8.365
X56.063Y58.786
X56.23Y63.53
X56.266Y60.831
X56.727Y47.032
X58.191Y76.38
X58.407Y74.364
X58.62Y75.381
X58.947Y50.797
X58.947Y32.555
X59.15Y0.636
X59.358Y52.885
X59.74Y64.391
X60.524Y79.824
X61.009Y76.575
X61.014Y58.124
X61.386Y77.612
X62.112Y46.59
X63.602Y37.283
X64.692Y43.329
X64.748Y65.487
X64.948Y52.512
X64.948Y44.9
X66.016Y8.254
X66.3Y83.576
X66.357Y43.445
X67.512Y41.613
X67.557Y25.515
X67.958Y52.095
X68.28Y43.567
X68.603Y72.518
X69.105Y41.325
X69.737Y52.841
X70.412Y91.041
X70.45Y88.77
X70.568Y51.664
X70.883Y60.163
X70.972Y58.14
X70.994Y48.331
X71.313Y63.048
X71.538Y67.992
X71.794Y57.547
X72.458Y45.523
X74.604Y50.764
X75.013Y47.155
X75.051Y62.865
X76.503Y39.095
X77.737Y46.987
X79.038Y93.056
X79.507Y64.263
X79.535Y54.032
X79.601Y92.205
X80.218Y69.0
X80.265Y60.082
X80.42Y62.951
X80.479Y92.757
X80.796Y90.075
X81.18Y75.017
X81.391Y46.695
X81.654Y86.639
X82.512Y80.865
X83.182Y63.876
X83.237Y75.505
X83.853Y82.857
X83.995Y90.967
X84.477Y93.776
X84.554Y91.85
X85.24Y88.584
X85.525Y23.601
X85.773Y42.559
X86.078Y72.712
X87.377Y82.958
X87.625Y93.351
X88.376Y86.499
X89.12Y93.264
X89.257Y18.955
X89.418Y20.333
X89.586Y38.401
X89.691Y59.906
X89.739Y75.218
X90.033Y82.712
X90.212Y85.484
X90.309Y48.094
X91.105Y67.846
X91.208Y57.84
X92.0Y71.0
X92.279Y79.385
X92.904Y51.952
X94.56Y66.634
X94.744Y19.846
X96.804Y46.739
X97.586Y47.556
T4
X2.7Y83.4
X2.7Y80.86
X2.7Y78.32
X2.7Y75.78
X2.7Y73.24
X2.7Y70.7
X2.7Y68.16
X2.7Y65.62
X2.7Y63.08
X2.7Y60.54
X2.7Y58.0
X2.7Y55.46
X2.7Y52.92
X2.7Y50.38
X2.7Y47.84
X2.7Y45.3
X2.7Y42.76
X2.7Y40.22
X2.7Y37.68
X2.7Y35.14
X2.8Y89.2
X5.3Y89.2
X9.1Y41.0
X10.3Y25.4
X10.3Y22.86
X10.3Y20.32
X10.3Y17.78
X10.3Y15.24
X10.3Y12.7
X10.3Y10.16
X10.6Y56.56
X10.6Y46.4
X11.6Y41.0
X15.6Y28.4
X17.92Y25.4
X17.92Y22.86
X17.92Y20.32
X17.92Y17.78
X17.92Y15.24
X17.92Y12.7
X17.92Y10.16
X17.94Y83.4
X17.94Y80.86
X17.94Y78.32
X17.94Y75.78
X17.94Y73.24
X17.94Y70.7
X17.94Y68.16
X17.94Y65.62
X17.94Y63.08
X17.94Y60.54
X17.94Y58.0
X17.94Y55.46
X17.94Y52.92
X17.94Y50.38
X17.94Y47.84
X17.94Y45.3
X17.94Y42.76
X17.94Y40.22
X17.94Y37.68
X17.94Y35.14
X18.1Y28.4
X21.2Y28.1
X21.2Y25.56
X21.2Y23.02
X21.2Y20.48
X21.2Y17.94
X21.2Y15.4
X21.2Y12.86
X21.2Y10.32
X21.3Y42.56
X21.3Y32.4
X21.4Y73.6
X21.4Y71.06
X21.4Y68.52
X21.4Y65.98
X21.4Y63.44
X24.8Y83.2
X24.8Y80.66
X24.8Y78.12
X24.8Y75.58
X24.8Y73.04
X24.8Y70.5
X24.8Y67.96
X24.8Y65.42
X24.8Y62.88
X24.8Y60.34
X24.8Y57.8
X24.8Y55.26
X24.8Y52.72
X24.8Y50.18
X24.8Y47.64
X24.8Y45.1
X24.8Y42.56
X24.8Y40.02
X24.8Y37.48
X24.8Y34.94
X26.7Y31.1
X28.82Y28.1
X28.82Y25.56
X28.82Y23.02
X28.82Y20.48
X28.82Y17.94
X28.82Y15.4
X28.82Y12.86
X28.82Y10.32
X29.2Y31.1
X30.8Y65.4
X31.9Y30.6
X31.9Y27.5
X33.3Y65.4
X34.8Y13.5
X34.8Y10.6
X36.0Y22.78
X36.0Y17.7
X36.9Y30.6
X38.54Y20.24
X39.8Y13.5
X39.8Y10.6
X40.04Y83.2
X40.04Y80.66
X40.04Y78.12
X40.04Y75.58
X40.04Y73.04
X40.04Y70.5
X40.04Y67.96
X40.04Y65.42
X40.04Y62.88
X40.04Y60.34
X40.04Y57.8
X40.04Y55.26
X40.04Y52.72
X40.04Y50.18
X40.04Y47.64
X40.04Y45.1
X40.04Y42.56
X40.04Y40.02
X40.04Y37.48
X40.04Y34.94
X42.06Y27.5
X43.5Y20.5
X43.5Y17.96
X43.5Y15.42
X43.5Y12.88
X43.5Y10.34
X43.5Y7.8
X43.5Y5.26
X43.5Y2.72
X43.6Y81.1
X43.6Y78.56
X43.6Y76.02
X43.6Y73.48
X43.6Y70.94
X43.6Y68.4
X43.6Y65.86
X43.6Y59.1
X43.6Y56.56
X43.6Y54.02
X43.6Y51.48
X43.6Y48.94
X43.6Y46.4
X43.6Y43.86
X43.6Y36.0
X43.6Y32.6
X44.8Y27.5
X48.8Y61.9
X49.0Y84.1
X49.1Y23.5
X51.12Y20.5
X51.12Y17.96
X51.12Y15.42
X51.12Y12.88
X51.12Y10.34
X51.12Y7.8
X51.12Y5.26
X51.12Y2.72
X51.22Y81.1
X51.22Y78.56
X51.22Y76.02
X51.22Y73.48
X51.22Y70.94
X51.22Y68.4
X51.22Y65.86
X51.22Y59.1
X51.22Y56.56
X51.22Y54.02
X51.22Y51.48
X51.22Y48.94
X51.22Y46.4
X51.22Y43.86
X51.3Y61.9
X51.5Y84.1
X51.6Y23.5
X53.76Y36.0
X53.76Y32.6
X54.0Y23.9
X54.8Y81.1
X54.8Y78.56
X54.8Y76.02
X54.8Y73.48
X54.8Y70.94
X54.8Y68.4
X54.8Y65.86
X54.8Y63.32
X54.96Y27.5
X55.0Y56.0
X55.0Y53.5
X56.3Y36.0
X56.3Y32.6
X57.6Y27.5
X57.8Y55.44
X57.8Y40.2
X57.9Y18.98
X57.9Y13.9
X57.9Y8.68
X57.9Y3.6
X60.34Y55.44
X60.34Y40.2
X60.4Y84.1
X60.44Y16.44
X60.44Y6.14
X62.42Y81.1
X62.42Y78.56
X62.42Y76.02
X62.42Y73.48
X62.42Y70.94
X62.42Y68.4
X62.42Y65.86
X62.42Y63.32
X62.88Y55.44
X62.88Y40.2
X62.9Y84.1
X64.16Y23.9
X64.7Y17.74
X64.7Y2.5
X65.42Y55.44
X65.42Y40.2
X65.8Y81.7
X65.8Y79.16
X65.8Y76.62
X65.8Y74.08
X65.8Y71.54
X65.8Y69.0
X65.8Y66.46
X65.8Y63.92
X65.8Y61.38
X65.8Y58.84
X66.46Y36.0
X66.46Y32.6
X66.8Y23.9
X67.24Y17.74
X67.24Y2.5
X67.76Y27.5
X67.96Y55.44
X67.96Y40.2
X69.2Y11.7
X69.2Y9.2
X69.78Y17.74
X69.78Y2.5
X70.4Y36.9
X70.4Y34.4
X70.5Y55.44
X70.5Y40.2
X71.4Y84.5
X72.32Y17.74
X72.32Y2.5
X73.04Y55.44
X73.04Y40.2
X73.3Y36.42
X73.3Y28.8
X73.42Y81.7
X73.42Y79.16
X73.42Y76.62
X73.42Y74.08
X73.42Y71.54
X73.42Y69.0
X73.42Y66.46
X73.42Y63.92
X73.42Y61.38
X73.42Y58.84
X73.9Y84.5
X74.86Y17.74
X74.86Y2.5
X75.58Y55.44
X75.58Y40.2
X75.84Y36.42
X75.84Y28.8
X76.96Y23.9
X77.2Y81.7
X77.2Y79.16
X77.2Y76.62
X77.2Y74.08
X77.2Y71.54
X77.2Y69.0
X77.2Y66.46
X77.2Y63.92
X77.2Y61.38
X77.2Y58.84
X77.4Y17.74
X77.4Y2.5
X78.12Y55.44
X78.12Y40.2
X78.38Y36.42
X78.38Y28.8
X79.94Y17.74
X79.94Y2.5
X80.66Y55.44
X80.66Y40.2
X80.92Y36.42
X80.92Y28.8
X81.3Y88.2
X82.48Y17.74
X82.48Y2.5
X82.8Y84.6
X83.2Y55.44
X83.2Y40.2
X83.46Y36.42
X83.46Y28.8
X84.82Y81.7
X84.82Y79.16
X84.82Y76.62
X84.82Y74.08
X84.82Y71.54
X84.82Y69.0
X84.82Y66.46
X84.82Y63.92
X84.82Y61.38
X84.82Y58.84
X85.02Y17.74
X85.02Y2.5
X85.3Y84.6
X85.74Y55.44
X85.74Y40.2
X86.0Y36.42
X86.0Y28.8
X86.5Y94.5
X86.5Y92.0
X87.56Y17.74
X87.56Y2.5
X88.2Y24.4
X88.2Y21.1
X88.28Y55.44
X88.28Y40.2
X88.54Y36.42
X88.54Y28.8
X88.6Y81.7
X88.6Y79.16
X88.6Y76.62
X88.6Y74.08
X88.6Y71.54
X88.6Y69.0
X88.6Y66.46
X88.6Y63.92
X88.6Y61.38
X88.6Y58.84
X90.1Y17.74
X90.1Y2.5
X90.82Y55.44
X90.82Y40.2
X91.46Y88.2
X92.64Y17.74
X92.64Y2.5
X93.36Y55.44
X93.36Y40.2
X94.2Y84.6
X95.18Y17.74
X95.18Y2.5
X95.9Y55.44
X95.9Y40.2
X96.22Y81.7
X96.22Y79.16
X96.22Y76.62
X96.22Y74.08
X96.22Y71.54
X96.22Y69.0
X96.22Y66.46
X96.22Y63.92
X96.22Y61.38
X96.22Y58.84
X96.7Y84.6
X97.72Y17.74
X97.72Y2.5
X98.36Y24.4
X98.36Y21.1
T5
X93.86Y88.1
X96.4Y88.1
T6
X5.5Y22.2
X5.5Y19.66
X5.5Y17.12
X5.5Y14.58
X5.5Y12.04
X5.5Y9.5
X9.32Y6.5
X9.32Y3.96
X11.86Y6.5
X11.86Y3.96
X12.3Y31.4
X14.4Y6.5
X14.4Y3.96
X14.84Y31.4
X16.94Y6.5
X16.94Y3.96
X17.38Y31.4
X19.48Y6.5
X19.48Y3.96
X21.4Y83.58
X21.4Y81.04
X21.4Y78.5
X21.4Y58.4
X21.4Y55.86
X21.4Y53.32
X22.02Y6.5
X22.02Y3.96
X24.56Y6.5
X24.56Y3.96
X26.0Y90.04
X26.0Y87.5
X27.1Y6.5
X27.1Y3.96
X28.54Y90.04
X28.54Y87.5
X29.64Y6.5
X29.64Y3.96
X31.08Y90.04
X31.08Y87.5
X32.18Y6.5
X32.18Y3.96
X33.62Y90.04
X33.62Y87.5
X34.72Y6.5
X34.72Y3.96
X36.16Y90.04
X36.16Y87.5
X37.26Y6.5
X37.26Y3.96
X38.7Y90.04
X38.7Y87.5
X39.8Y6.5
X39.8Y3.96
X41.24Y90.04
X41.24Y87.5
X43.78Y90.04
X43.78Y87.5
X46.32Y90.04
X46.32Y87.5
X48.86Y90.04
X48.86Y87.5
X51.4Y90.04
X51.4Y87.5
X53.94Y90.04
X53.94Y87.5
X56.48Y90.04
X56.48Y87.5
X59.02Y90.04
X59.02Y87.5
X61.56Y90.04
X61.56Y87.5
X64.1Y90.04
X64.1Y87.5
X66.64Y90.04
X66.64Y87.5
X69.18Y90.04
X69.18Y87.5
X71.72Y90.04
X71.72Y87.5
X74.26Y90.04
X74.26Y87.5
T7
X5.5Y95.5
X5.5Y29.5
X94.5Y95.5
X94.5Y29.5
T2
G00X80.75Y25.8
M15
G01X81.05Y25.8
M16
G05
T3
G00X80.8Y20.8
M15
G01X81.0Y20.8
M16
G05
G00X82.8Y25.8
M15
G01X83.0Y25.8
M16
G05
G00X82.8Y20.8
M15
G01X83.0Y20.8
M16
G05
G00X84.8Y25.8
M15
G01X85.0Y25.8
M16
G05
G00X84.8Y20.8
M15
G01X85.0Y20.8
M16
G05
T6
G00X10.0Y91.9
M15
G01X10.0Y89.9
M16
G05
G00X15.7Y93.9
M15
G01X13.7Y93.9
M16
G05
G00X15.7Y87.9
M15
G01X13.7Y87.9
M16
G05
M30
