G04 #@! TF.GenerationSoftware,KiCad,Pcbnew,9.0.0*
G04 #@! TF.CreationDate,2025-04-04T21:25:26+09:00*
G04 #@! TF.ProjectId,K68-CPUB,4b36382d-4350-4554-922e-6b696361645f,rev?*
G04 #@! TF.SameCoordinates,PX5f5e100PY8f0d180*
G04 #@! TF.FileFunction,Legend,Bot*
G04 #@! TF.FilePolarity,Positive*
%FSLAX46Y46*%
G04 Gerber Fmt 4.6, Leading zero omitted, Abs format (unit mm)*
G04 Created by KiCad (PCBNEW 9.0.0) date 2025-04-04 21:25:26*
%MOMM*%
%LPD*%
G01*
G04 APERTURE LIST*
%ADD10C,0.200000*%
G04 APERTURE END LIST*
D10*
X97892231Y13914994D02*
X97892231Y15914994D01*
X97892231Y15914994D02*
X97225564Y14486423D01*
X97225564Y14486423D02*
X96558898Y15914994D01*
X96558898Y15914994D02*
X96558898Y13914994D01*
X94463660Y14105471D02*
X94558898Y14010232D01*
X94558898Y14010232D02*
X94844612Y13914994D01*
X94844612Y13914994D02*
X95035088Y13914994D01*
X95035088Y13914994D02*
X95320803Y14010232D01*
X95320803Y14010232D02*
X95511279Y14200709D01*
X95511279Y14200709D02*
X95606517Y14391185D01*
X95606517Y14391185D02*
X95701755Y14772137D01*
X95701755Y14772137D02*
X95701755Y15057852D01*
X95701755Y15057852D02*
X95606517Y15438804D01*
X95606517Y15438804D02*
X95511279Y15629280D01*
X95511279Y15629280D02*
X95320803Y15819756D01*
X95320803Y15819756D02*
X95035088Y15914994D01*
X95035088Y15914994D02*
X94844612Y15914994D01*
X94844612Y15914994D02*
X94558898Y15819756D01*
X94558898Y15819756D02*
X94463660Y15724518D01*
X92749374Y15914994D02*
X93130327Y15914994D01*
X93130327Y15914994D02*
X93320803Y15819756D01*
X93320803Y15819756D02*
X93416041Y15724518D01*
X93416041Y15724518D02*
X93606517Y15438804D01*
X93606517Y15438804D02*
X93701755Y15057852D01*
X93701755Y15057852D02*
X93701755Y14295947D01*
X93701755Y14295947D02*
X93606517Y14105471D01*
X93606517Y14105471D02*
X93511279Y14010232D01*
X93511279Y14010232D02*
X93320803Y13914994D01*
X93320803Y13914994D02*
X92939850Y13914994D01*
X92939850Y13914994D02*
X92749374Y14010232D01*
X92749374Y14010232D02*
X92654136Y14105471D01*
X92654136Y14105471D02*
X92558898Y14295947D01*
X92558898Y14295947D02*
X92558898Y14772137D01*
X92558898Y14772137D02*
X92654136Y14962613D01*
X92654136Y14962613D02*
X92749374Y15057852D01*
X92749374Y15057852D02*
X92939850Y15153090D01*
X92939850Y15153090D02*
X93320803Y15153090D01*
X93320803Y15153090D02*
X93511279Y15057852D01*
X93511279Y15057852D02*
X93606517Y14962613D01*
X93606517Y14962613D02*
X93701755Y14772137D01*
X91416041Y15057852D02*
X91606517Y15153090D01*
X91606517Y15153090D02*
X91701755Y15248328D01*
X91701755Y15248328D02*
X91796993Y15438804D01*
X91796993Y15438804D02*
X91796993Y15534042D01*
X91796993Y15534042D02*
X91701755Y15724518D01*
X91701755Y15724518D02*
X91606517Y15819756D01*
X91606517Y15819756D02*
X91416041Y15914994D01*
X91416041Y15914994D02*
X91035088Y15914994D01*
X91035088Y15914994D02*
X90844612Y15819756D01*
X90844612Y15819756D02*
X90749374Y15724518D01*
X90749374Y15724518D02*
X90654136Y15534042D01*
X90654136Y15534042D02*
X90654136Y15438804D01*
X90654136Y15438804D02*
X90749374Y15248328D01*
X90749374Y15248328D02*
X90844612Y15153090D01*
X90844612Y15153090D02*
X91035088Y15057852D01*
X91035088Y15057852D02*
X91416041Y15057852D01*
X91416041Y15057852D02*
X91606517Y14962613D01*
X91606517Y14962613D02*
X91701755Y14867375D01*
X91701755Y14867375D02*
X91796993Y14676899D01*
X91796993Y14676899D02*
X91796993Y14295947D01*
X91796993Y14295947D02*
X91701755Y14105471D01*
X91701755Y14105471D02*
X91606517Y14010232D01*
X91606517Y14010232D02*
X91416041Y13914994D01*
X91416041Y13914994D02*
X91035088Y13914994D01*
X91035088Y13914994D02*
X90844612Y14010232D01*
X90844612Y14010232D02*
X90749374Y14105471D01*
X90749374Y14105471D02*
X90654136Y14295947D01*
X90654136Y14295947D02*
X90654136Y14676899D01*
X90654136Y14676899D02*
X90749374Y14867375D01*
X90749374Y14867375D02*
X90844612Y14962613D01*
X90844612Y14962613D02*
X91035088Y15057852D01*
X89416041Y15914994D02*
X89225564Y15914994D01*
X89225564Y15914994D02*
X89035088Y15819756D01*
X89035088Y15819756D02*
X88939850Y15724518D01*
X88939850Y15724518D02*
X88844612Y15534042D01*
X88844612Y15534042D02*
X88749374Y15153090D01*
X88749374Y15153090D02*
X88749374Y14676899D01*
X88749374Y14676899D02*
X88844612Y14295947D01*
X88844612Y14295947D02*
X88939850Y14105471D01*
X88939850Y14105471D02*
X89035088Y14010232D01*
X89035088Y14010232D02*
X89225564Y13914994D01*
X89225564Y13914994D02*
X89416041Y13914994D01*
X89416041Y13914994D02*
X89606517Y14010232D01*
X89606517Y14010232D02*
X89701755Y14105471D01*
X89701755Y14105471D02*
X89796993Y14295947D01*
X89796993Y14295947D02*
X89892231Y14676899D01*
X89892231Y14676899D02*
X89892231Y15153090D01*
X89892231Y15153090D02*
X89796993Y15534042D01*
X89796993Y15534042D02*
X89701755Y15724518D01*
X89701755Y15724518D02*
X89606517Y15819756D01*
X89606517Y15819756D02*
X89416041Y15914994D01*
X87511279Y15914994D02*
X87320802Y15914994D01*
X87320802Y15914994D02*
X87130326Y15819756D01*
X87130326Y15819756D02*
X87035088Y15724518D01*
X87035088Y15724518D02*
X86939850Y15534042D01*
X86939850Y15534042D02*
X86844612Y15153090D01*
X86844612Y15153090D02*
X86844612Y14676899D01*
X86844612Y14676899D02*
X86939850Y14295947D01*
X86939850Y14295947D02*
X87035088Y14105471D01*
X87035088Y14105471D02*
X87130326Y14010232D01*
X87130326Y14010232D02*
X87320802Y13914994D01*
X87320802Y13914994D02*
X87511279Y13914994D01*
X87511279Y13914994D02*
X87701755Y14010232D01*
X87701755Y14010232D02*
X87796993Y14105471D01*
X87796993Y14105471D02*
X87892231Y14295947D01*
X87892231Y14295947D02*
X87987469Y14676899D01*
X87987469Y14676899D02*
X87987469Y15153090D01*
X87987469Y15153090D02*
X87892231Y15534042D01*
X87892231Y15534042D02*
X87796993Y15724518D01*
X87796993Y15724518D02*
X87701755Y15819756D01*
X87701755Y15819756D02*
X87511279Y15914994D01*
X83320802Y14105471D02*
X83416040Y14010232D01*
X83416040Y14010232D02*
X83701754Y13914994D01*
X83701754Y13914994D02*
X83892230Y13914994D01*
X83892230Y13914994D02*
X84177945Y14010232D01*
X84177945Y14010232D02*
X84368421Y14200709D01*
X84368421Y14200709D02*
X84463659Y14391185D01*
X84463659Y14391185D02*
X84558897Y14772137D01*
X84558897Y14772137D02*
X84558897Y15057852D01*
X84558897Y15057852D02*
X84463659Y15438804D01*
X84463659Y15438804D02*
X84368421Y15629280D01*
X84368421Y15629280D02*
X84177945Y15819756D01*
X84177945Y15819756D02*
X83892230Y15914994D01*
X83892230Y15914994D02*
X83701754Y15914994D01*
X83701754Y15914994D02*
X83416040Y15819756D01*
X83416040Y15819756D02*
X83320802Y15724518D01*
X82463659Y13914994D02*
X82463659Y15914994D01*
X82463659Y15914994D02*
X81701754Y15914994D01*
X81701754Y15914994D02*
X81511278Y15819756D01*
X81511278Y15819756D02*
X81416040Y15724518D01*
X81416040Y15724518D02*
X81320802Y15534042D01*
X81320802Y15534042D02*
X81320802Y15248328D01*
X81320802Y15248328D02*
X81416040Y15057852D01*
X81416040Y15057852D02*
X81511278Y14962613D01*
X81511278Y14962613D02*
X81701754Y14867375D01*
X81701754Y14867375D02*
X82463659Y14867375D01*
X80463659Y15914994D02*
X80463659Y14295947D01*
X80463659Y14295947D02*
X80368421Y14105471D01*
X80368421Y14105471D02*
X80273183Y14010232D01*
X80273183Y14010232D02*
X80082707Y13914994D01*
X80082707Y13914994D02*
X79701754Y13914994D01*
X79701754Y13914994D02*
X79511278Y14010232D01*
X79511278Y14010232D02*
X79416040Y14105471D01*
X79416040Y14105471D02*
X79320802Y14295947D01*
X79320802Y14295947D02*
X79320802Y15914994D01*
X76177944Y14962613D02*
X75892230Y14867375D01*
X75892230Y14867375D02*
X75796992Y14772137D01*
X75796992Y14772137D02*
X75701754Y14581661D01*
X75701754Y14581661D02*
X75701754Y14295947D01*
X75701754Y14295947D02*
X75796992Y14105471D01*
X75796992Y14105471D02*
X75892230Y14010232D01*
X75892230Y14010232D02*
X76082706Y13914994D01*
X76082706Y13914994D02*
X76844611Y13914994D01*
X76844611Y13914994D02*
X76844611Y15914994D01*
X76844611Y15914994D02*
X76177944Y15914994D01*
X76177944Y15914994D02*
X75987468Y15819756D01*
X75987468Y15819756D02*
X75892230Y15724518D01*
X75892230Y15724518D02*
X75796992Y15534042D01*
X75796992Y15534042D02*
X75796992Y15343566D01*
X75796992Y15343566D02*
X75892230Y15153090D01*
X75892230Y15153090D02*
X75987468Y15057852D01*
X75987468Y15057852D02*
X76177944Y14962613D01*
X76177944Y14962613D02*
X76844611Y14962613D01*
X74558897Y13914994D02*
X74749373Y14010232D01*
X74749373Y14010232D02*
X74844611Y14105471D01*
X74844611Y14105471D02*
X74939849Y14295947D01*
X74939849Y14295947D02*
X74939849Y14867375D01*
X74939849Y14867375D02*
X74844611Y15057852D01*
X74844611Y15057852D02*
X74749373Y15153090D01*
X74749373Y15153090D02*
X74558897Y15248328D01*
X74558897Y15248328D02*
X74273182Y15248328D01*
X74273182Y15248328D02*
X74082706Y15153090D01*
X74082706Y15153090D02*
X73987468Y15057852D01*
X73987468Y15057852D02*
X73892230Y14867375D01*
X73892230Y14867375D02*
X73892230Y14295947D01*
X73892230Y14295947D02*
X73987468Y14105471D01*
X73987468Y14105471D02*
X74082706Y14010232D01*
X74082706Y14010232D02*
X74273182Y13914994D01*
X74273182Y13914994D02*
X74558897Y13914994D01*
X72177944Y13914994D02*
X72177944Y14962613D01*
X72177944Y14962613D02*
X72273182Y15153090D01*
X72273182Y15153090D02*
X72463658Y15248328D01*
X72463658Y15248328D02*
X72844611Y15248328D01*
X72844611Y15248328D02*
X73035087Y15153090D01*
X72177944Y14010232D02*
X72368420Y13914994D01*
X72368420Y13914994D02*
X72844611Y13914994D01*
X72844611Y13914994D02*
X73035087Y14010232D01*
X73035087Y14010232D02*
X73130325Y14200709D01*
X73130325Y14200709D02*
X73130325Y14391185D01*
X73130325Y14391185D02*
X73035087Y14581661D01*
X73035087Y14581661D02*
X72844611Y14676899D01*
X72844611Y14676899D02*
X72368420Y14676899D01*
X72368420Y14676899D02*
X72177944Y14772137D01*
X71225563Y13914994D02*
X71225563Y15248328D01*
X71225563Y14867375D02*
X71130325Y15057852D01*
X71130325Y15057852D02*
X71035087Y15153090D01*
X71035087Y15153090D02*
X70844611Y15248328D01*
X70844611Y15248328D02*
X70654134Y15248328D01*
X69130325Y13914994D02*
X69130325Y15914994D01*
X69130325Y14010232D02*
X69320801Y13914994D01*
X69320801Y13914994D02*
X69701754Y13914994D01*
X69701754Y13914994D02*
X69892230Y14010232D01*
X69892230Y14010232D02*
X69987468Y14105471D01*
X69987468Y14105471D02*
X70082706Y14295947D01*
X70082706Y14295947D02*
X70082706Y14867375D01*
X70082706Y14867375D02*
X69987468Y15057852D01*
X69987468Y15057852D02*
X69892230Y15153090D01*
X69892230Y15153090D02*
X69701754Y15248328D01*
X69701754Y15248328D02*
X69320801Y15248328D01*
X69320801Y15248328D02*
X69130325Y15153090D01*
X97320802Y10028440D02*
X97796993Y10028440D01*
X97796993Y10028440D02*
X97796993Y12885583D01*
X97796993Y12885583D02*
X97320802Y12885583D01*
X96558898Y10695106D02*
X96558898Y12695106D01*
X95416041Y10695106D02*
X96273184Y11837964D01*
X95416041Y12695106D02*
X96558898Y11552249D01*
X93701755Y12695106D02*
X94082708Y12695106D01*
X94082708Y12695106D02*
X94273184Y12599868D01*
X94273184Y12599868D02*
X94368422Y12504630D01*
X94368422Y12504630D02*
X94558898Y12218916D01*
X94558898Y12218916D02*
X94654136Y11837964D01*
X94654136Y11837964D02*
X94654136Y11076059D01*
X94654136Y11076059D02*
X94558898Y10885583D01*
X94558898Y10885583D02*
X94463660Y10790344D01*
X94463660Y10790344D02*
X94273184Y10695106D01*
X94273184Y10695106D02*
X93892231Y10695106D01*
X93892231Y10695106D02*
X93701755Y10790344D01*
X93701755Y10790344D02*
X93606517Y10885583D01*
X93606517Y10885583D02*
X93511279Y11076059D01*
X93511279Y11076059D02*
X93511279Y11552249D01*
X93511279Y11552249D02*
X93606517Y11742725D01*
X93606517Y11742725D02*
X93701755Y11837964D01*
X93701755Y11837964D02*
X93892231Y11933202D01*
X93892231Y11933202D02*
X94273184Y11933202D01*
X94273184Y11933202D02*
X94463660Y11837964D01*
X94463660Y11837964D02*
X94558898Y11742725D01*
X94558898Y11742725D02*
X94654136Y11552249D01*
X92368422Y11837964D02*
X92558898Y11933202D01*
X92558898Y11933202D02*
X92654136Y12028440D01*
X92654136Y12028440D02*
X92749374Y12218916D01*
X92749374Y12218916D02*
X92749374Y12314154D01*
X92749374Y12314154D02*
X92654136Y12504630D01*
X92654136Y12504630D02*
X92558898Y12599868D01*
X92558898Y12599868D02*
X92368422Y12695106D01*
X92368422Y12695106D02*
X91987469Y12695106D01*
X91987469Y12695106D02*
X91796993Y12599868D01*
X91796993Y12599868D02*
X91701755Y12504630D01*
X91701755Y12504630D02*
X91606517Y12314154D01*
X91606517Y12314154D02*
X91606517Y12218916D01*
X91606517Y12218916D02*
X91701755Y12028440D01*
X91701755Y12028440D02*
X91796993Y11933202D01*
X91796993Y11933202D02*
X91987469Y11837964D01*
X91987469Y11837964D02*
X92368422Y11837964D01*
X92368422Y11837964D02*
X92558898Y11742725D01*
X92558898Y11742725D02*
X92654136Y11647487D01*
X92654136Y11647487D02*
X92749374Y11457011D01*
X92749374Y11457011D02*
X92749374Y11076059D01*
X92749374Y11076059D02*
X92654136Y10885583D01*
X92654136Y10885583D02*
X92558898Y10790344D01*
X92558898Y10790344D02*
X92368422Y10695106D01*
X92368422Y10695106D02*
X91987469Y10695106D01*
X91987469Y10695106D02*
X91796993Y10790344D01*
X91796993Y10790344D02*
X91701755Y10885583D01*
X91701755Y10885583D02*
X91606517Y11076059D01*
X91606517Y11076059D02*
X91606517Y11457011D01*
X91606517Y11457011D02*
X91701755Y11647487D01*
X91701755Y11647487D02*
X91796993Y11742725D01*
X91796993Y11742725D02*
X91987469Y11837964D01*
X90749374Y11457011D02*
X89225565Y11457011D01*
X87130327Y10885583D02*
X87225565Y10790344D01*
X87225565Y10790344D02*
X87511279Y10695106D01*
X87511279Y10695106D02*
X87701755Y10695106D01*
X87701755Y10695106D02*
X87987470Y10790344D01*
X87987470Y10790344D02*
X88177946Y10980821D01*
X88177946Y10980821D02*
X88273184Y11171297D01*
X88273184Y11171297D02*
X88368422Y11552249D01*
X88368422Y11552249D02*
X88368422Y11837964D01*
X88368422Y11837964D02*
X88273184Y12218916D01*
X88273184Y12218916D02*
X88177946Y12409392D01*
X88177946Y12409392D02*
X87987470Y12599868D01*
X87987470Y12599868D02*
X87701755Y12695106D01*
X87701755Y12695106D02*
X87511279Y12695106D01*
X87511279Y12695106D02*
X87225565Y12599868D01*
X87225565Y12599868D02*
X87130327Y12504630D01*
X86273184Y10695106D02*
X86273184Y12695106D01*
X86273184Y12695106D02*
X85511279Y12695106D01*
X85511279Y12695106D02*
X85320803Y12599868D01*
X85320803Y12599868D02*
X85225565Y12504630D01*
X85225565Y12504630D02*
X85130327Y12314154D01*
X85130327Y12314154D02*
X85130327Y12028440D01*
X85130327Y12028440D02*
X85225565Y11837964D01*
X85225565Y11837964D02*
X85320803Y11742725D01*
X85320803Y11742725D02*
X85511279Y11647487D01*
X85511279Y11647487D02*
X86273184Y11647487D01*
X84273184Y12695106D02*
X84273184Y11076059D01*
X84273184Y11076059D02*
X84177946Y10885583D01*
X84177946Y10885583D02*
X84082708Y10790344D01*
X84082708Y10790344D02*
X83892232Y10695106D01*
X83892232Y10695106D02*
X83511279Y10695106D01*
X83511279Y10695106D02*
X83320803Y10790344D01*
X83320803Y10790344D02*
X83225565Y10885583D01*
X83225565Y10885583D02*
X83130327Y11076059D01*
X83130327Y11076059D02*
X83130327Y12695106D01*
X81511279Y11742725D02*
X81225565Y11647487D01*
X81225565Y11647487D02*
X81130327Y11552249D01*
X81130327Y11552249D02*
X81035089Y11361773D01*
X81035089Y11361773D02*
X81035089Y11076059D01*
X81035089Y11076059D02*
X81130327Y10885583D01*
X81130327Y10885583D02*
X81225565Y10790344D01*
X81225565Y10790344D02*
X81416041Y10695106D01*
X81416041Y10695106D02*
X82177946Y10695106D01*
X82177946Y10695106D02*
X82177946Y12695106D01*
X82177946Y12695106D02*
X81511279Y12695106D01*
X81511279Y12695106D02*
X81320803Y12599868D01*
X81320803Y12599868D02*
X81225565Y12504630D01*
X81225565Y12504630D02*
X81130327Y12314154D01*
X81130327Y12314154D02*
X81130327Y12123678D01*
X81130327Y12123678D02*
X81225565Y11933202D01*
X81225565Y11933202D02*
X81320803Y11837964D01*
X81320803Y11837964D02*
X81511279Y11742725D01*
X81511279Y11742725D02*
X82177946Y11742725D01*
X80368422Y10028440D02*
X79892232Y10028440D01*
X79892232Y10028440D02*
X79892232Y12885583D01*
X79892232Y12885583D02*
X80368422Y12885583D01*
X76177946Y10695106D02*
X76844613Y11647487D01*
X77320803Y10695106D02*
X77320803Y12695106D01*
X77320803Y12695106D02*
X76558898Y12695106D01*
X76558898Y12695106D02*
X76368422Y12599868D01*
X76368422Y12599868D02*
X76273184Y12504630D01*
X76273184Y12504630D02*
X76177946Y12314154D01*
X76177946Y12314154D02*
X76177946Y12028440D01*
X76177946Y12028440D02*
X76273184Y11837964D01*
X76273184Y11837964D02*
X76368422Y11742725D01*
X76368422Y11742725D02*
X76558898Y11647487D01*
X76558898Y11647487D02*
X77320803Y11647487D01*
X75320803Y11742725D02*
X74654136Y11742725D01*
X74368422Y10695106D02*
X75320803Y10695106D01*
X75320803Y10695106D02*
X75320803Y12695106D01*
X75320803Y12695106D02*
X74368422Y12695106D01*
X73796993Y12695106D02*
X73130327Y10695106D01*
X73130327Y10695106D02*
X72463660Y12695106D01*
X71892231Y12504630D02*
X71796993Y12599868D01*
X71796993Y12599868D02*
X71606517Y12695106D01*
X71606517Y12695106D02*
X71130326Y12695106D01*
X71130326Y12695106D02*
X70939850Y12599868D01*
X70939850Y12599868D02*
X70844612Y12504630D01*
X70844612Y12504630D02*
X70749374Y12314154D01*
X70749374Y12314154D02*
X70749374Y12123678D01*
X70749374Y12123678D02*
X70844612Y11837964D01*
X70844612Y11837964D02*
X71987469Y10695106D01*
X71987469Y10695106D02*
X70749374Y10695106D01*
X97892231Y4255330D02*
X97892231Y6255330D01*
X96749374Y4255330D02*
X97606517Y5398188D01*
X96749374Y6255330D02*
X97892231Y5112473D01*
X95892231Y6255330D02*
X95892231Y4636283D01*
X95892231Y4636283D02*
X95796993Y4445807D01*
X95796993Y4445807D02*
X95701755Y4350568D01*
X95701755Y4350568D02*
X95511279Y4255330D01*
X95511279Y4255330D02*
X95130326Y4255330D01*
X95130326Y4255330D02*
X94939850Y4350568D01*
X94939850Y4350568D02*
X94844612Y4445807D01*
X94844612Y4445807D02*
X94749374Y4636283D01*
X94749374Y4636283D02*
X94749374Y6255330D01*
X93796993Y4255330D02*
X93796993Y6255330D01*
X93796993Y6255330D02*
X92654136Y4255330D01*
X92654136Y4255330D02*
X92654136Y6255330D01*
X91701755Y4255330D02*
X91701755Y6255330D01*
X90749374Y5017235D02*
X89225565Y5017235D01*
X88273184Y4255330D02*
X88273184Y6255330D01*
X88273184Y6255330D02*
X87130327Y4255330D01*
X87130327Y4255330D02*
X87130327Y6255330D01*
X86177946Y5302949D02*
X85511279Y5302949D01*
X85225565Y4255330D02*
X86177946Y4255330D01*
X86177946Y4255330D02*
X86177946Y6255330D01*
X86177946Y6255330D02*
X85225565Y6255330D01*
X84654136Y6255330D02*
X83511279Y6255330D01*
X84082708Y4255330D02*
X84082708Y6255330D01*
X81416040Y6064854D02*
X81320802Y6160092D01*
X81320802Y6160092D02*
X81130326Y6255330D01*
X81130326Y6255330D02*
X80654135Y6255330D01*
X80654135Y6255330D02*
X80463659Y6160092D01*
X80463659Y6160092D02*
X80368421Y6064854D01*
X80368421Y6064854D02*
X80273183Y5874378D01*
X80273183Y5874378D02*
X80273183Y5683902D01*
X80273183Y5683902D02*
X80368421Y5398188D01*
X80368421Y5398188D02*
X81511278Y4255330D01*
X81511278Y4255330D02*
X80273183Y4255330D01*
X79035088Y6255330D02*
X78844611Y6255330D01*
X78844611Y6255330D02*
X78654135Y6160092D01*
X78654135Y6160092D02*
X78558897Y6064854D01*
X78558897Y6064854D02*
X78463659Y5874378D01*
X78463659Y5874378D02*
X78368421Y5493426D01*
X78368421Y5493426D02*
X78368421Y5017235D01*
X78368421Y5017235D02*
X78463659Y4636283D01*
X78463659Y4636283D02*
X78558897Y4445807D01*
X78558897Y4445807D02*
X78654135Y4350568D01*
X78654135Y4350568D02*
X78844611Y4255330D01*
X78844611Y4255330D02*
X79035088Y4255330D01*
X79035088Y4255330D02*
X79225564Y4350568D01*
X79225564Y4350568D02*
X79320802Y4445807D01*
X79320802Y4445807D02*
X79416040Y4636283D01*
X79416040Y4636283D02*
X79511278Y5017235D01*
X79511278Y5017235D02*
X79511278Y5493426D01*
X79511278Y5493426D02*
X79416040Y5874378D01*
X79416040Y5874378D02*
X79320802Y6064854D01*
X79320802Y6064854D02*
X79225564Y6160092D01*
X79225564Y6160092D02*
X79035088Y6255330D01*
X77606516Y6064854D02*
X77511278Y6160092D01*
X77511278Y6160092D02*
X77320802Y6255330D01*
X77320802Y6255330D02*
X76844611Y6255330D01*
X76844611Y6255330D02*
X76654135Y6160092D01*
X76654135Y6160092D02*
X76558897Y6064854D01*
X76558897Y6064854D02*
X76463659Y5874378D01*
X76463659Y5874378D02*
X76463659Y5683902D01*
X76463659Y5683902D02*
X76558897Y5398188D01*
X76558897Y5398188D02*
X77701754Y4255330D01*
X77701754Y4255330D02*
X76463659Y4255330D01*
X74749373Y5588664D02*
X74749373Y4255330D01*
X75225564Y6350568D02*
X75701754Y4921997D01*
X75701754Y4921997D02*
X74463659Y4921997D01*
M02*
