G04 #@! TF.GenerationSoftware,KiCad,Pcbnew,(5.1.4-0-10_14)*
G04 #@! TF.CreationDate,2021-07-25T18:20:49+09:00*
G04 #@! TF.ProjectId,K68-CPUB,4b36382d-4350-4554-922e-6b696361645f,rev?*
G04 #@! TF.SameCoordinates,Original*
G04 #@! TF.FileFunction,Legend,Bot*
G04 #@! TF.FilePolarity,Positive*
%FSLAX46Y46*%
G04 Gerber Fmt 4.6, Leading zero omitted, Abs format (unit mm)*
G04 Created by KiCad (PCBNEW (5.1.4-0-10_14)) date 2021-07-25 18:20:49*
%MOMM*%
%LPD*%
G04 APERTURE LIST*
%ADD10C,0.200000*%
%ADD11O,1.802000X1.802000*%
%ADD12R,1.802000X1.802000*%
%ADD13O,1.702000X1.702000*%
%ADD14C,1.702000*%
%ADD15R,1.702000X1.702000*%
%ADD16C,0.100000*%
%ADD17C,3.602000*%
%ADD18C,3.102000*%
%ADD19R,3.602000X3.602000*%
%ADD20C,1.902000*%
%ADD21R,1.902000X1.902000*%
%ADD22O,1.302000X1.202000*%
%ADD23C,1.542000*%
%ADD24C,3.302000*%
G04 APERTURE END LIST*
D10*
X197893809Y-136104761D02*
X197893809Y-134104761D01*
X197227142Y-135533333D01*
X196560476Y-134104761D01*
X196560476Y-136104761D01*
X194465238Y-135914285D02*
X194560476Y-136009523D01*
X194846190Y-136104761D01*
X195036666Y-136104761D01*
X195322380Y-136009523D01*
X195512857Y-135819047D01*
X195608095Y-135628571D01*
X195703333Y-135247619D01*
X195703333Y-134961904D01*
X195608095Y-134580952D01*
X195512857Y-134390476D01*
X195322380Y-134200000D01*
X195036666Y-134104761D01*
X194846190Y-134104761D01*
X194560476Y-134200000D01*
X194465238Y-134295238D01*
X192750952Y-134104761D02*
X193131904Y-134104761D01*
X193322380Y-134200000D01*
X193417619Y-134295238D01*
X193608095Y-134580952D01*
X193703333Y-134961904D01*
X193703333Y-135723809D01*
X193608095Y-135914285D01*
X193512857Y-136009523D01*
X193322380Y-136104761D01*
X192941428Y-136104761D01*
X192750952Y-136009523D01*
X192655714Y-135914285D01*
X192560476Y-135723809D01*
X192560476Y-135247619D01*
X192655714Y-135057142D01*
X192750952Y-134961904D01*
X192941428Y-134866666D01*
X193322380Y-134866666D01*
X193512857Y-134961904D01*
X193608095Y-135057142D01*
X193703333Y-135247619D01*
X191417619Y-134961904D02*
X191608095Y-134866666D01*
X191703333Y-134771428D01*
X191798571Y-134580952D01*
X191798571Y-134485714D01*
X191703333Y-134295238D01*
X191608095Y-134200000D01*
X191417619Y-134104761D01*
X191036666Y-134104761D01*
X190846190Y-134200000D01*
X190750952Y-134295238D01*
X190655714Y-134485714D01*
X190655714Y-134580952D01*
X190750952Y-134771428D01*
X190846190Y-134866666D01*
X191036666Y-134961904D01*
X191417619Y-134961904D01*
X191608095Y-135057142D01*
X191703333Y-135152380D01*
X191798571Y-135342857D01*
X191798571Y-135723809D01*
X191703333Y-135914285D01*
X191608095Y-136009523D01*
X191417619Y-136104761D01*
X191036666Y-136104761D01*
X190846190Y-136009523D01*
X190750952Y-135914285D01*
X190655714Y-135723809D01*
X190655714Y-135342857D01*
X190750952Y-135152380D01*
X190846190Y-135057142D01*
X191036666Y-134961904D01*
X189417619Y-134104761D02*
X189227142Y-134104761D01*
X189036666Y-134200000D01*
X188941428Y-134295238D01*
X188846190Y-134485714D01*
X188750952Y-134866666D01*
X188750952Y-135342857D01*
X188846190Y-135723809D01*
X188941428Y-135914285D01*
X189036666Y-136009523D01*
X189227142Y-136104761D01*
X189417619Y-136104761D01*
X189608095Y-136009523D01*
X189703333Y-135914285D01*
X189798571Y-135723809D01*
X189893809Y-135342857D01*
X189893809Y-134866666D01*
X189798571Y-134485714D01*
X189703333Y-134295238D01*
X189608095Y-134200000D01*
X189417619Y-134104761D01*
X187512857Y-134104761D02*
X187322380Y-134104761D01*
X187131904Y-134200000D01*
X187036666Y-134295238D01*
X186941428Y-134485714D01*
X186846190Y-134866666D01*
X186846190Y-135342857D01*
X186941428Y-135723809D01*
X187036666Y-135914285D01*
X187131904Y-136009523D01*
X187322380Y-136104761D01*
X187512857Y-136104761D01*
X187703333Y-136009523D01*
X187798571Y-135914285D01*
X187893809Y-135723809D01*
X187989047Y-135342857D01*
X187989047Y-134866666D01*
X187893809Y-134485714D01*
X187798571Y-134295238D01*
X187703333Y-134200000D01*
X187512857Y-134104761D01*
X183322380Y-135914285D02*
X183417619Y-136009523D01*
X183703333Y-136104761D01*
X183893809Y-136104761D01*
X184179523Y-136009523D01*
X184370000Y-135819047D01*
X184465238Y-135628571D01*
X184560476Y-135247619D01*
X184560476Y-134961904D01*
X184465238Y-134580952D01*
X184370000Y-134390476D01*
X184179523Y-134200000D01*
X183893809Y-134104761D01*
X183703333Y-134104761D01*
X183417619Y-134200000D01*
X183322380Y-134295238D01*
X182465238Y-136104761D02*
X182465238Y-134104761D01*
X181703333Y-134104761D01*
X181512857Y-134200000D01*
X181417619Y-134295238D01*
X181322380Y-134485714D01*
X181322380Y-134771428D01*
X181417619Y-134961904D01*
X181512857Y-135057142D01*
X181703333Y-135152380D01*
X182465238Y-135152380D01*
X180465238Y-134104761D02*
X180465238Y-135723809D01*
X180370000Y-135914285D01*
X180274761Y-136009523D01*
X180084285Y-136104761D01*
X179703333Y-136104761D01*
X179512857Y-136009523D01*
X179417619Y-135914285D01*
X179322380Y-135723809D01*
X179322380Y-134104761D01*
X176179523Y-135057142D02*
X175893809Y-135152380D01*
X175798571Y-135247619D01*
X175703333Y-135438095D01*
X175703333Y-135723809D01*
X175798571Y-135914285D01*
X175893809Y-136009523D01*
X176084285Y-136104761D01*
X176846190Y-136104761D01*
X176846190Y-134104761D01*
X176179523Y-134104761D01*
X175989047Y-134200000D01*
X175893809Y-134295238D01*
X175798571Y-134485714D01*
X175798571Y-134676190D01*
X175893809Y-134866666D01*
X175989047Y-134961904D01*
X176179523Y-135057142D01*
X176846190Y-135057142D01*
X174560476Y-136104761D02*
X174750952Y-136009523D01*
X174846190Y-135914285D01*
X174941428Y-135723809D01*
X174941428Y-135152380D01*
X174846190Y-134961904D01*
X174750952Y-134866666D01*
X174560476Y-134771428D01*
X174274761Y-134771428D01*
X174084285Y-134866666D01*
X173989047Y-134961904D01*
X173893809Y-135152380D01*
X173893809Y-135723809D01*
X173989047Y-135914285D01*
X174084285Y-136009523D01*
X174274761Y-136104761D01*
X174560476Y-136104761D01*
X172179523Y-136104761D02*
X172179523Y-135057142D01*
X172274761Y-134866666D01*
X172465238Y-134771428D01*
X172846190Y-134771428D01*
X173036666Y-134866666D01*
X172179523Y-136009523D02*
X172370000Y-136104761D01*
X172846190Y-136104761D01*
X173036666Y-136009523D01*
X173131904Y-135819047D01*
X173131904Y-135628571D01*
X173036666Y-135438095D01*
X172846190Y-135342857D01*
X172370000Y-135342857D01*
X172179523Y-135247619D01*
X171227142Y-136104761D02*
X171227142Y-134771428D01*
X171227142Y-135152380D02*
X171131904Y-134961904D01*
X171036666Y-134866666D01*
X170846190Y-134771428D01*
X170655714Y-134771428D01*
X169131904Y-136104761D02*
X169131904Y-134104761D01*
X169131904Y-136009523D02*
X169322380Y-136104761D01*
X169703333Y-136104761D01*
X169893809Y-136009523D01*
X169989047Y-135914285D01*
X170084285Y-135723809D01*
X170084285Y-135152380D01*
X169989047Y-134961904D01*
X169893809Y-134866666D01*
X169703333Y-134771428D01*
X169322380Y-134771428D01*
X169131904Y-134866666D01*
X197322380Y-139971428D02*
X197798571Y-139971428D01*
X197798571Y-137114285D01*
X197322380Y-137114285D01*
X196560476Y-139304761D02*
X196560476Y-137304761D01*
X195417619Y-139304761D02*
X196274761Y-138161904D01*
X195417619Y-137304761D02*
X196560476Y-138447619D01*
X193703333Y-137304761D02*
X194084285Y-137304761D01*
X194274761Y-137400000D01*
X194370000Y-137495238D01*
X194560476Y-137780952D01*
X194655714Y-138161904D01*
X194655714Y-138923809D01*
X194560476Y-139114285D01*
X194465238Y-139209523D01*
X194274761Y-139304761D01*
X193893809Y-139304761D01*
X193703333Y-139209523D01*
X193608095Y-139114285D01*
X193512857Y-138923809D01*
X193512857Y-138447619D01*
X193608095Y-138257142D01*
X193703333Y-138161904D01*
X193893809Y-138066666D01*
X194274761Y-138066666D01*
X194465238Y-138161904D01*
X194560476Y-138257142D01*
X194655714Y-138447619D01*
X192370000Y-138161904D02*
X192560476Y-138066666D01*
X192655714Y-137971428D01*
X192750952Y-137780952D01*
X192750952Y-137685714D01*
X192655714Y-137495238D01*
X192560476Y-137400000D01*
X192370000Y-137304761D01*
X191989047Y-137304761D01*
X191798571Y-137400000D01*
X191703333Y-137495238D01*
X191608095Y-137685714D01*
X191608095Y-137780952D01*
X191703333Y-137971428D01*
X191798571Y-138066666D01*
X191989047Y-138161904D01*
X192370000Y-138161904D01*
X192560476Y-138257142D01*
X192655714Y-138352380D01*
X192750952Y-138542857D01*
X192750952Y-138923809D01*
X192655714Y-139114285D01*
X192560476Y-139209523D01*
X192370000Y-139304761D01*
X191989047Y-139304761D01*
X191798571Y-139209523D01*
X191703333Y-139114285D01*
X191608095Y-138923809D01*
X191608095Y-138542857D01*
X191703333Y-138352380D01*
X191798571Y-138257142D01*
X191989047Y-138161904D01*
X190750952Y-138542857D02*
X189227142Y-138542857D01*
X187131904Y-139114285D02*
X187227142Y-139209523D01*
X187512857Y-139304761D01*
X187703333Y-139304761D01*
X187989047Y-139209523D01*
X188179523Y-139019047D01*
X188274761Y-138828571D01*
X188370000Y-138447619D01*
X188370000Y-138161904D01*
X188274761Y-137780952D01*
X188179523Y-137590476D01*
X187989047Y-137400000D01*
X187703333Y-137304761D01*
X187512857Y-137304761D01*
X187227142Y-137400000D01*
X187131904Y-137495238D01*
X186274761Y-139304761D02*
X186274761Y-137304761D01*
X185512857Y-137304761D01*
X185322380Y-137400000D01*
X185227142Y-137495238D01*
X185131904Y-137685714D01*
X185131904Y-137971428D01*
X185227142Y-138161904D01*
X185322380Y-138257142D01*
X185512857Y-138352380D01*
X186274761Y-138352380D01*
X184274761Y-137304761D02*
X184274761Y-138923809D01*
X184179523Y-139114285D01*
X184084285Y-139209523D01*
X183893809Y-139304761D01*
X183512857Y-139304761D01*
X183322380Y-139209523D01*
X183227142Y-139114285D01*
X183131904Y-138923809D01*
X183131904Y-137304761D01*
X181512857Y-138257142D02*
X181227142Y-138352380D01*
X181131904Y-138447619D01*
X181036666Y-138638095D01*
X181036666Y-138923809D01*
X181131904Y-139114285D01*
X181227142Y-139209523D01*
X181417619Y-139304761D01*
X182179523Y-139304761D01*
X182179523Y-137304761D01*
X181512857Y-137304761D01*
X181322380Y-137400000D01*
X181227142Y-137495238D01*
X181131904Y-137685714D01*
X181131904Y-137876190D01*
X181227142Y-138066666D01*
X181322380Y-138161904D01*
X181512857Y-138257142D01*
X182179523Y-138257142D01*
X180370000Y-139971428D02*
X179893809Y-139971428D01*
X179893809Y-137114285D01*
X180370000Y-137114285D01*
X176179523Y-139304761D02*
X176846190Y-138352380D01*
X177322380Y-139304761D02*
X177322380Y-137304761D01*
X176560476Y-137304761D01*
X176370000Y-137400000D01*
X176274761Y-137495238D01*
X176179523Y-137685714D01*
X176179523Y-137971428D01*
X176274761Y-138161904D01*
X176370000Y-138257142D01*
X176560476Y-138352380D01*
X177322380Y-138352380D01*
X175322380Y-138257142D02*
X174655714Y-138257142D01*
X174370000Y-139304761D02*
X175322380Y-139304761D01*
X175322380Y-137304761D01*
X174370000Y-137304761D01*
X173798571Y-137304761D02*
X173131904Y-139304761D01*
X172465238Y-137304761D01*
X170750952Y-139304761D02*
X171893809Y-139304761D01*
X171322380Y-139304761D02*
X171322380Y-137304761D01*
X171512857Y-137590476D01*
X171703333Y-137780952D01*
X171893809Y-137876190D01*
X197893809Y-145704761D02*
X197893809Y-143704761D01*
X196750952Y-145704761D02*
X197608095Y-144561904D01*
X196750952Y-143704761D02*
X197893809Y-144847619D01*
X195893809Y-143704761D02*
X195893809Y-145323809D01*
X195798571Y-145514285D01*
X195703333Y-145609523D01*
X195512857Y-145704761D01*
X195131904Y-145704761D01*
X194941428Y-145609523D01*
X194846190Y-145514285D01*
X194750952Y-145323809D01*
X194750952Y-143704761D01*
X193798571Y-145704761D02*
X193798571Y-143704761D01*
X192655714Y-145704761D01*
X192655714Y-143704761D01*
X191703333Y-145704761D02*
X191703333Y-143704761D01*
X190750952Y-144942857D02*
X189227142Y-144942857D01*
X188274761Y-145704761D02*
X188274761Y-143704761D01*
X187131904Y-145704761D01*
X187131904Y-143704761D01*
X186179523Y-144657142D02*
X185512857Y-144657142D01*
X185227142Y-145704761D02*
X186179523Y-145704761D01*
X186179523Y-143704761D01*
X185227142Y-143704761D01*
X184655714Y-143704761D02*
X183512857Y-143704761D01*
X184084285Y-145704761D02*
X184084285Y-143704761D01*
X181417619Y-143895238D02*
X181322380Y-143800000D01*
X181131904Y-143704761D01*
X180655714Y-143704761D01*
X180465238Y-143800000D01*
X180370000Y-143895238D01*
X180274761Y-144085714D01*
X180274761Y-144276190D01*
X180370000Y-144561904D01*
X181512857Y-145704761D01*
X180274761Y-145704761D01*
X179036666Y-143704761D02*
X178846190Y-143704761D01*
X178655714Y-143800000D01*
X178560476Y-143895238D01*
X178465238Y-144085714D01*
X178370000Y-144466666D01*
X178370000Y-144942857D01*
X178465238Y-145323809D01*
X178560476Y-145514285D01*
X178655714Y-145609523D01*
X178846190Y-145704761D01*
X179036666Y-145704761D01*
X179227142Y-145609523D01*
X179322380Y-145514285D01*
X179417619Y-145323809D01*
X179512857Y-144942857D01*
X179512857Y-144466666D01*
X179417619Y-144085714D01*
X179322380Y-143895238D01*
X179227142Y-143800000D01*
X179036666Y-143704761D01*
X177608095Y-143895238D02*
X177512857Y-143800000D01*
X177322380Y-143704761D01*
X176846190Y-143704761D01*
X176655714Y-143800000D01*
X176560476Y-143895238D01*
X176465238Y-144085714D01*
X176465238Y-144276190D01*
X176560476Y-144561904D01*
X177703333Y-145704761D01*
X176465238Y-145704761D01*
X174560476Y-145704761D02*
X175703333Y-145704761D01*
X175131904Y-145704761D02*
X175131904Y-143704761D01*
X175322380Y-143990476D01*
X175512857Y-144180952D01*
X175703333Y-144276190D01*
%LPC*%
D11*
X112300000Y-118600000D03*
X114840000Y-118600000D03*
D12*
X117380000Y-118600000D03*
D11*
X121400000Y-96680000D03*
X121400000Y-94140000D03*
D12*
X121400000Y-91600000D03*
D13*
X110600000Y-93440000D03*
D14*
X110600000Y-103600000D03*
D13*
X117940000Y-66600000D03*
X102700000Y-114860000D03*
X117940000Y-69140000D03*
X102700000Y-112320000D03*
X117940000Y-71680000D03*
X102700000Y-109780000D03*
X117940000Y-74220000D03*
X102700000Y-107240000D03*
X117940000Y-76760000D03*
X102700000Y-104700000D03*
X117940000Y-79300000D03*
X102700000Y-102160000D03*
X117940000Y-81840000D03*
X102700000Y-99620000D03*
X117940000Y-84380000D03*
X102700000Y-97080000D03*
X117940000Y-86920000D03*
X102700000Y-94540000D03*
X117940000Y-89460000D03*
X102700000Y-92000000D03*
X117940000Y-92000000D03*
X102700000Y-89460000D03*
X117940000Y-94540000D03*
X102700000Y-86920000D03*
X117940000Y-97080000D03*
X102700000Y-84380000D03*
X117940000Y-99620000D03*
X102700000Y-81840000D03*
X117940000Y-102160000D03*
X102700000Y-79300000D03*
X117940000Y-104700000D03*
X102700000Y-76760000D03*
X117940000Y-107240000D03*
X102700000Y-74220000D03*
X117940000Y-109780000D03*
X102700000Y-71680000D03*
X117940000Y-112320000D03*
X102700000Y-69140000D03*
X117940000Y-114860000D03*
D15*
X102700000Y-66600000D03*
D13*
X140040000Y-66800000D03*
X124800000Y-115060000D03*
X140040000Y-69340000D03*
X124800000Y-112520000D03*
X140040000Y-71880000D03*
X124800000Y-109980000D03*
X140040000Y-74420000D03*
X124800000Y-107440000D03*
X140040000Y-76960000D03*
X124800000Y-104900000D03*
X140040000Y-79500000D03*
X124800000Y-102360000D03*
X140040000Y-82040000D03*
X124800000Y-99820000D03*
X140040000Y-84580000D03*
X124800000Y-97280000D03*
X140040000Y-87120000D03*
X124800000Y-94740000D03*
X140040000Y-89660000D03*
X124800000Y-92200000D03*
X140040000Y-92200000D03*
X124800000Y-89660000D03*
X140040000Y-94740000D03*
X124800000Y-87120000D03*
X140040000Y-97280000D03*
X124800000Y-84580000D03*
X140040000Y-99820000D03*
X124800000Y-82040000D03*
X140040000Y-102360000D03*
X124800000Y-79500000D03*
X140040000Y-104900000D03*
X124800000Y-76960000D03*
X140040000Y-107440000D03*
X124800000Y-74420000D03*
X140040000Y-109980000D03*
X124800000Y-71880000D03*
X140040000Y-112520000D03*
X124800000Y-69340000D03*
X140040000Y-115060000D03*
D15*
X124800000Y-66800000D03*
D11*
X121400000Y-66420000D03*
X121400000Y-68960000D03*
D12*
X121400000Y-71500000D03*
D13*
X191460000Y-61800000D03*
D14*
X181300000Y-61800000D03*
D16*
G36*
X110988764Y-57303336D02*
G01*
X111076179Y-57316303D01*
X111161901Y-57337775D01*
X111245106Y-57367546D01*
X111324993Y-57405330D01*
X111400791Y-57450762D01*
X111471771Y-57503404D01*
X111537250Y-57562750D01*
X111596596Y-57628229D01*
X111649238Y-57699209D01*
X111694670Y-57775007D01*
X111732454Y-57854894D01*
X111762225Y-57938099D01*
X111783697Y-58023821D01*
X111796664Y-58111236D01*
X111801000Y-58199500D01*
X111801000Y-60000500D01*
X111796664Y-60088764D01*
X111783697Y-60176179D01*
X111762225Y-60261901D01*
X111732454Y-60345106D01*
X111694670Y-60424993D01*
X111649238Y-60500791D01*
X111596596Y-60571771D01*
X111537250Y-60637250D01*
X111471771Y-60696596D01*
X111400791Y-60749238D01*
X111324993Y-60794670D01*
X111245106Y-60832454D01*
X111161901Y-60862225D01*
X111076179Y-60883697D01*
X110988764Y-60896664D01*
X110900500Y-60901000D01*
X109099500Y-60901000D01*
X109011236Y-60896664D01*
X108923821Y-60883697D01*
X108838099Y-60862225D01*
X108754894Y-60832454D01*
X108675007Y-60794670D01*
X108599209Y-60749238D01*
X108528229Y-60696596D01*
X108462750Y-60637250D01*
X108403404Y-60571771D01*
X108350762Y-60500791D01*
X108305330Y-60424993D01*
X108267546Y-60345106D01*
X108237775Y-60261901D01*
X108216303Y-60176179D01*
X108203336Y-60088764D01*
X108199000Y-60000500D01*
X108199000Y-58199500D01*
X108203336Y-58111236D01*
X108216303Y-58023821D01*
X108237775Y-57938099D01*
X108267546Y-57854894D01*
X108305330Y-57775007D01*
X108350762Y-57699209D01*
X108403404Y-57628229D01*
X108462750Y-57562750D01*
X108528229Y-57503404D01*
X108599209Y-57450762D01*
X108675007Y-57405330D01*
X108754894Y-57367546D01*
X108838099Y-57337775D01*
X108923821Y-57316303D01*
X109011236Y-57303336D01*
X109099500Y-57299000D01*
X110900500Y-57299000D01*
X110988764Y-57303336D01*
X110988764Y-57303336D01*
G37*
D17*
X110000000Y-59100000D03*
D16*
G36*
X115801512Y-54552734D02*
G01*
X115876793Y-54563901D01*
X115950616Y-54582393D01*
X116022271Y-54608031D01*
X116091068Y-54640570D01*
X116156345Y-54679695D01*
X116217472Y-54725030D01*
X116273861Y-54776139D01*
X116324970Y-54832528D01*
X116370305Y-54893655D01*
X116409430Y-54958932D01*
X116441969Y-55027729D01*
X116467607Y-55099384D01*
X116486099Y-55173207D01*
X116497266Y-55248488D01*
X116501000Y-55324500D01*
X116501000Y-56875500D01*
X116497266Y-56951512D01*
X116486099Y-57026793D01*
X116467607Y-57100616D01*
X116441969Y-57172271D01*
X116409430Y-57241068D01*
X116370305Y-57306345D01*
X116324970Y-57367472D01*
X116273861Y-57423861D01*
X116217472Y-57474970D01*
X116156345Y-57520305D01*
X116091068Y-57559430D01*
X116022271Y-57591969D01*
X115950616Y-57617607D01*
X115876793Y-57636099D01*
X115801512Y-57647266D01*
X115725500Y-57651000D01*
X113674500Y-57651000D01*
X113598488Y-57647266D01*
X113523207Y-57636099D01*
X113449384Y-57617607D01*
X113377729Y-57591969D01*
X113308932Y-57559430D01*
X113243655Y-57520305D01*
X113182528Y-57474970D01*
X113126139Y-57423861D01*
X113075030Y-57367472D01*
X113029695Y-57306345D01*
X112990570Y-57241068D01*
X112958031Y-57172271D01*
X112932393Y-57100616D01*
X112913901Y-57026793D01*
X112902734Y-56951512D01*
X112899000Y-56875500D01*
X112899000Y-55324500D01*
X112902734Y-55248488D01*
X112913901Y-55173207D01*
X112932393Y-55099384D01*
X112958031Y-55027729D01*
X112990570Y-54958932D01*
X113029695Y-54893655D01*
X113075030Y-54832528D01*
X113126139Y-54776139D01*
X113182528Y-54725030D01*
X113243655Y-54679695D01*
X113308932Y-54640570D01*
X113377729Y-54608031D01*
X113449384Y-54582393D01*
X113523207Y-54563901D01*
X113598488Y-54552734D01*
X113674500Y-54549000D01*
X115725500Y-54549000D01*
X115801512Y-54552734D01*
X115801512Y-54552734D01*
G37*
D18*
X114700000Y-56100000D03*
D19*
X114700000Y-62100000D03*
D20*
X193860000Y-61900000D03*
D21*
X196400000Y-61900000D03*
D14*
X102800000Y-60800000D03*
D15*
X105300000Y-60800000D03*
D11*
X109320000Y-146040000D03*
X109320000Y-143500000D03*
X111860000Y-146040000D03*
X111860000Y-143500000D03*
X114400000Y-146040000D03*
X114400000Y-143500000D03*
X116940000Y-146040000D03*
X116940000Y-143500000D03*
X119480000Y-146040000D03*
X119480000Y-143500000D03*
X122020000Y-146040000D03*
X122020000Y-143500000D03*
X124560000Y-146040000D03*
X124560000Y-143500000D03*
X127100000Y-146040000D03*
X127100000Y-143500000D03*
X129640000Y-146040000D03*
X129640000Y-143500000D03*
X132180000Y-146040000D03*
X132180000Y-143500000D03*
X134720000Y-146040000D03*
X134720000Y-143500000D03*
X137260000Y-146040000D03*
X137260000Y-143500000D03*
X139800000Y-146040000D03*
D12*
X139800000Y-143500000D03*
D22*
X184900000Y-129200000D03*
X182900000Y-129200000D03*
X180900000Y-129200000D03*
X184900000Y-124200000D03*
X182900000Y-124200000D03*
X180900000Y-124200000D03*
D13*
X157800000Y-94560000D03*
X195900000Y-109800000D03*
X160340000Y-94560000D03*
X193360000Y-109800000D03*
X162880000Y-94560000D03*
X190820000Y-109800000D03*
X165420000Y-94560000D03*
X188280000Y-109800000D03*
X167960000Y-94560000D03*
X185740000Y-109800000D03*
X170500000Y-94560000D03*
X183200000Y-109800000D03*
X173040000Y-94560000D03*
X180660000Y-109800000D03*
X175580000Y-94560000D03*
X178120000Y-109800000D03*
X178120000Y-94560000D03*
X175580000Y-109800000D03*
X180660000Y-94560000D03*
X173040000Y-109800000D03*
X183200000Y-94560000D03*
X170500000Y-109800000D03*
X185740000Y-94560000D03*
X167960000Y-109800000D03*
X188280000Y-94560000D03*
X165420000Y-109800000D03*
X190820000Y-94560000D03*
X162880000Y-109800000D03*
X193360000Y-94560000D03*
X160340000Y-109800000D03*
X195900000Y-94560000D03*
D15*
X157800000Y-109800000D03*
D13*
X164700000Y-132260000D03*
X197720000Y-147500000D03*
X167240000Y-132260000D03*
X195180000Y-147500000D03*
X169780000Y-132260000D03*
X192640000Y-147500000D03*
X172320000Y-132260000D03*
X190100000Y-147500000D03*
X174860000Y-132260000D03*
X187560000Y-147500000D03*
X177400000Y-132260000D03*
X185020000Y-147500000D03*
X179940000Y-132260000D03*
X182480000Y-147500000D03*
X182480000Y-132260000D03*
X179940000Y-147500000D03*
X185020000Y-132260000D03*
X177400000Y-147500000D03*
X187560000Y-132260000D03*
X174860000Y-147500000D03*
X190100000Y-132260000D03*
X172320000Y-147500000D03*
X192640000Y-132260000D03*
X169780000Y-147500000D03*
X195180000Y-132260000D03*
X167240000Y-147500000D03*
X197720000Y-132260000D03*
D15*
X164700000Y-147500000D03*
D13*
X196220000Y-68300000D03*
X188600000Y-91160000D03*
X196220000Y-70840000D03*
X188600000Y-88620000D03*
X196220000Y-73380000D03*
X188600000Y-86080000D03*
X196220000Y-75920000D03*
X188600000Y-83540000D03*
X196220000Y-78460000D03*
X188600000Y-81000000D03*
X196220000Y-81000000D03*
X188600000Y-78460000D03*
X196220000Y-83540000D03*
X188600000Y-75920000D03*
X196220000Y-86080000D03*
X188600000Y-73380000D03*
X196220000Y-88620000D03*
X188600000Y-70840000D03*
X196220000Y-91160000D03*
D15*
X188600000Y-68300000D03*
D13*
X184820000Y-68300000D03*
X177200000Y-91160000D03*
X184820000Y-70840000D03*
X177200000Y-88620000D03*
X184820000Y-73380000D03*
X177200000Y-86080000D03*
X184820000Y-75920000D03*
X177200000Y-83540000D03*
X184820000Y-78460000D03*
X177200000Y-81000000D03*
X184820000Y-81000000D03*
X177200000Y-78460000D03*
X184820000Y-83540000D03*
X177200000Y-75920000D03*
X184820000Y-86080000D03*
X177200000Y-73380000D03*
X184820000Y-88620000D03*
X177200000Y-70840000D03*
X184820000Y-91160000D03*
D15*
X177200000Y-68300000D03*
D13*
X128820000Y-121900000D03*
X121200000Y-139680000D03*
X128820000Y-124440000D03*
X121200000Y-137140000D03*
X128820000Y-126980000D03*
X121200000Y-134600000D03*
X128820000Y-129520000D03*
X121200000Y-132060000D03*
X128820000Y-132060000D03*
X121200000Y-129520000D03*
X128820000Y-134600000D03*
X121200000Y-126980000D03*
X128820000Y-137140000D03*
X121200000Y-124440000D03*
X128820000Y-139680000D03*
D15*
X121200000Y-121900000D03*
D13*
X173420000Y-68300000D03*
X165800000Y-91160000D03*
X173420000Y-70840000D03*
X165800000Y-88620000D03*
X173420000Y-73380000D03*
X165800000Y-86080000D03*
X173420000Y-75920000D03*
X165800000Y-83540000D03*
X173420000Y-78460000D03*
X165800000Y-81000000D03*
X173420000Y-81000000D03*
X165800000Y-78460000D03*
X173420000Y-83540000D03*
X165800000Y-75920000D03*
X173420000Y-86080000D03*
X165800000Y-73380000D03*
X173420000Y-88620000D03*
X165800000Y-70840000D03*
X173420000Y-91160000D03*
D15*
X165800000Y-68300000D03*
D13*
X162420000Y-68900000D03*
X154800000Y-86680000D03*
X162420000Y-71440000D03*
X154800000Y-84140000D03*
X162420000Y-73980000D03*
X154800000Y-81600000D03*
X162420000Y-76520000D03*
X154800000Y-79060000D03*
X162420000Y-79060000D03*
X154800000Y-76520000D03*
X162420000Y-81600000D03*
X154800000Y-73980000D03*
X162420000Y-84140000D03*
X154800000Y-71440000D03*
X162420000Y-86680000D03*
D15*
X154800000Y-68900000D03*
D13*
X117920000Y-124600000D03*
X110300000Y-139840000D03*
X117920000Y-127140000D03*
X110300000Y-137300000D03*
X117920000Y-129680000D03*
X110300000Y-134760000D03*
X117920000Y-132220000D03*
X110300000Y-132220000D03*
X117920000Y-134760000D03*
X110300000Y-129680000D03*
X117920000Y-137300000D03*
X110300000Y-127140000D03*
X117920000Y-139840000D03*
D15*
X110300000Y-124600000D03*
D13*
X151220000Y-68900000D03*
X143600000Y-84140000D03*
X151220000Y-71440000D03*
X143600000Y-81600000D03*
X151220000Y-73980000D03*
X143600000Y-79060000D03*
X151220000Y-76520000D03*
X143600000Y-76520000D03*
X151220000Y-79060000D03*
X143600000Y-73980000D03*
X151220000Y-81600000D03*
X143600000Y-71440000D03*
X151220000Y-84140000D03*
D15*
X143600000Y-68900000D03*
D13*
X151220000Y-90900000D03*
X143600000Y-106140000D03*
X151220000Y-93440000D03*
X143600000Y-103600000D03*
X151220000Y-95980000D03*
X143600000Y-101060000D03*
X151220000Y-98520000D03*
X143600000Y-98520000D03*
X151220000Y-101060000D03*
X143600000Y-95980000D03*
X151220000Y-103600000D03*
X143600000Y-93440000D03*
X151220000Y-106140000D03*
D15*
X143600000Y-90900000D03*
D13*
X173300000Y-113580000D03*
X188540000Y-121200000D03*
X175840000Y-113580000D03*
X186000000Y-121200000D03*
X178380000Y-113580000D03*
X183460000Y-121200000D03*
X180920000Y-113580000D03*
X180920000Y-121200000D03*
X183460000Y-113580000D03*
X178380000Y-121200000D03*
X186000000Y-113580000D03*
X175840000Y-121200000D03*
X188540000Y-113580000D03*
D15*
X173300000Y-121200000D03*
D13*
X151120000Y-129500000D03*
X143500000Y-147280000D03*
X151120000Y-132040000D03*
X143500000Y-144740000D03*
X151120000Y-134580000D03*
X143500000Y-142200000D03*
X151120000Y-137120000D03*
X143500000Y-139660000D03*
X151120000Y-139660000D03*
X143500000Y-137120000D03*
X151120000Y-142200000D03*
X143500000Y-134580000D03*
X151120000Y-144740000D03*
X143500000Y-132040000D03*
X151120000Y-147280000D03*
D15*
X143500000Y-129500000D03*
D23*
X136000000Y-132300000D03*
X138540000Y-129760000D03*
X136000000Y-127220000D03*
X157900000Y-146400000D03*
X160440000Y-143860000D03*
X157900000Y-141320000D03*
X157900000Y-136100000D03*
X160440000Y-133560000D03*
X157900000Y-131020000D03*
D13*
X121400000Y-86560000D03*
X121400000Y-84020000D03*
X121400000Y-81480000D03*
X121400000Y-78940000D03*
D15*
X121400000Y-76400000D03*
D13*
X121300000Y-107440000D03*
D14*
X121300000Y-117600000D03*
D13*
X154960000Y-122500000D03*
D14*
X144800000Y-122500000D03*
D13*
X142060000Y-122500000D03*
D14*
X131900000Y-122500000D03*
D13*
X166460000Y-117400000D03*
D14*
X156300000Y-117400000D03*
D13*
X166460000Y-114000000D03*
D14*
X156300000Y-114000000D03*
D13*
X153760000Y-114000000D03*
D14*
X143600000Y-114000000D03*
D13*
X153760000Y-117400000D03*
D14*
X143600000Y-117400000D03*
D13*
X198360000Y-125600000D03*
D14*
X188200000Y-125600000D03*
D13*
X198360000Y-128900000D03*
D14*
X188200000Y-128900000D03*
D13*
X164160000Y-126100000D03*
D14*
X154000000Y-126100000D03*
D13*
X176960000Y-126100000D03*
D14*
X166800000Y-126100000D03*
D13*
X167760000Y-122500000D03*
D14*
X157600000Y-122500000D03*
D24*
X194500000Y-120500000D03*
X105500000Y-120500000D03*
X194500000Y-54500000D03*
X105500000Y-54500000D03*
D11*
X105500000Y-127800000D03*
X105500000Y-130340000D03*
X105500000Y-132880000D03*
X105500000Y-135420000D03*
X105500000Y-137960000D03*
D12*
X105500000Y-140500000D03*
D11*
X174260000Y-59960000D03*
X174260000Y-62500000D03*
X171720000Y-59960000D03*
X171720000Y-62500000D03*
X169180000Y-59960000D03*
X169180000Y-62500000D03*
X166640000Y-59960000D03*
X166640000Y-62500000D03*
X164100000Y-59960000D03*
X164100000Y-62500000D03*
X161560000Y-59960000D03*
X161560000Y-62500000D03*
X159020000Y-59960000D03*
X159020000Y-62500000D03*
X156480000Y-59960000D03*
X156480000Y-62500000D03*
X153940000Y-59960000D03*
X153940000Y-62500000D03*
X151400000Y-59960000D03*
X151400000Y-62500000D03*
X148860000Y-59960000D03*
X148860000Y-62500000D03*
X146320000Y-59960000D03*
X146320000Y-62500000D03*
X143780000Y-59960000D03*
X143780000Y-62500000D03*
X141240000Y-59960000D03*
X141240000Y-62500000D03*
X138700000Y-59960000D03*
X138700000Y-62500000D03*
X136160000Y-59960000D03*
X136160000Y-62500000D03*
X133620000Y-59960000D03*
X133620000Y-62500000D03*
X131080000Y-59960000D03*
X131080000Y-62500000D03*
X128540000Y-59960000D03*
X128540000Y-62500000D03*
X126000000Y-59960000D03*
D12*
X126000000Y-62500000D03*
D14*
X155000000Y-94000000D03*
X155000000Y-96500000D03*
X186500000Y-55500000D03*
D15*
X186500000Y-58000000D03*
D14*
X169200000Y-138300000D03*
X169200000Y-140800000D03*
X111600000Y-109000000D03*
X109100000Y-109000000D03*
X196700000Y-65400000D03*
X194200000Y-65400000D03*
X185300000Y-65400000D03*
X182800000Y-65400000D03*
X129200000Y-118900000D03*
X126700000Y-118900000D03*
X136900000Y-119400000D03*
X131900000Y-119400000D03*
X173900000Y-65500000D03*
X171400000Y-65500000D03*
X162900000Y-65900000D03*
X160400000Y-65900000D03*
X118100000Y-121600000D03*
X115600000Y-121600000D03*
X151500000Y-65900000D03*
X149000000Y-65900000D03*
X130800000Y-84600000D03*
X133300000Y-84600000D03*
X151300000Y-88100000D03*
X148800000Y-88100000D03*
X139800000Y-139400000D03*
X134800000Y-139400000D03*
X170400000Y-113100000D03*
X170400000Y-115600000D03*
X151600000Y-126500000D03*
X149100000Y-126500000D03*
X139800000Y-136500000D03*
X134800000Y-136500000D03*
M02*
