M48
; DRILL file {KiCad (5.1.4-0-10_14)} date 2021 July 25, Sunday 18:20:52
; FORMAT={-:-/ absolute / metric / decimal}
; #@! TF.CreationDate,2021-07-25T18:20:52+09:00
; #@! TF.GenerationSoftware,Kicad,Pcbnew,(5.1.4-0-10_14)
FMAT,2
METRIC
T1C0.400
T2C0.500
T3C0.600
T4C0.800
T5C0.900
T6C1.000
T7C3.200
%
G90
G05
T1
X102.671Y-125.384
X105.24Y-117.117
X107.816Y-113.435
X108.325Y-126.651
X113.009Y-110.4
X113.477Y-120.429
X113.5Y-140.211
X114.209Y-117.048
X114.594Y-99.141
X116.166Y-133.875
X121.226Y-115.644
X122.451Y-111.195
X123.529Y-92.961
X127.172Y-92.397
X127.506Y-117.32
X129.632Y-68.169
X129.933Y-140.552
X130.665Y-116.075
X131.328Y-82.656
X132.924Y-104.683
X132.96Y-87.672
X133.994Y-69.857
X134.892Y-118.577
X134.937Y-97.28
X135.21Y-130.919
X135.23Y-119.938
X135.387Y-90.785
X135.748Y-117.54
X136.631Y-81.63
X136.836Y-112.857
X137.538Y-73.221
X138.163Y-82.656
X139.015Y-65.833
X139.022Y-119.296
X139.657Y-117.845
X140.472Y-57.553
X141.171Y-98.374
X141.671Y-57.553
X142.184Y-148.655
X142.404Y-64.114
X143.122Y-64.863
X143.45Y-119.75
X144.003Y-57.279
X145.013Y-98.843
X145.146Y-77.257
X145.289Y-78.783
X145.516Y-66.536
X145.959Y-56.834
X146.589Y-54.029
X147.113Y-68.545
X147.308Y-67.521
X147.474Y-57.136
X147.873Y-105.543
X150.482Y-110.898
X151.221Y-55.861
X151.583Y-122.054
X152.366Y-85.318
X152.898Y-108.478
X152.907Y-105.681
X153.576Y-87.825
X153.795Y-97.369
X154.126Y-55.104
X154.138Y-66.247
X154.545Y-106.814
X155.251Y-106.001
X156.1Y-54.445
X156.476Y-86.111
X157.125Y-104.14
X157.318Y-66.359
X158.878Y-89.43
X159.763Y-81.405
X160.649Y-83.433
X160.994Y-146.145
X161.132Y-85.977
X161.264Y-148.035
X162.204Y-125.185
X162.83Y-105.228
X163.103Y-133.581
X163.892Y-77.302
X164.159Y-96.925
X164.35Y-66.85
X164.356Y-119.025
X164.36Y-81.799
X164.562Y-121.673
X164.858Y-114.559
X166.026Y-121.26
X166.178Y-136.228
X166.267Y-100.639
X167.728Y-107.941
X168.551Y-99.883
X169.242Y-54.384
X170.084Y-120.876
X170.614Y-122.875
X170.862Y-102.354
X171.132Y-54.124
X171.45Y-100.516
X171.822Y-74.609
X171.887Y-96.962
X172.612Y-99.306
X173.349Y-96.556
X173.698Y-122.994
X174.438Y-117.39
X174.445Y-124.033
X174.918Y-79.596
X174.944Y-100.859
X175.005Y-77.131
X175.639Y-75.903
X177.557Y-101.706
X178.302Y-54.383
X179.302Y-54.834
X179.915Y-93.14
X180.124Y-111.668
X180.531Y-55.16
X180.624Y-63.944
X180.76Y-86.322
X181.32Y-133.09
X181.364Y-58.174
X181.365Y-81.922
X182.37Y-93.224
X182.687Y-89.034
X182.81Y-54.568
X183.943Y-128.445
X184.583Y-100.875
X185.862Y-100.583
X186.404Y-77.023
X186.615Y-127.627
X186.942Y-73.778
X188.286Y-63.241
X188.926Y-108.441
X189.17Y-112.037
X193.517Y-93.093
X193.656Y-78.206
X194.505Y-58.932
X194.587Y-109.032
X196.997Y-59.266
T4
X164.7Y-132.26
X169.2Y-138.3
X169.2Y-140.8
X157.6Y-122.5
X167.76Y-122.5
X143.6Y-68.9
X143.6Y-71.44
X143.6Y-73.98
X143.6Y-76.52
X143.6Y-79.06
X164.7Y-147.5
X167.24Y-132.26
X167.24Y-147.5
X169.78Y-132.26
X169.78Y-147.5
X172.32Y-132.26
X172.32Y-147.5
X143.6Y-81.6
X109.1Y-109.0
X111.6Y-109.0
X143.6Y-84.14
X151.22Y-68.9
X151.22Y-71.44
X151.22Y-73.98
X151.22Y-76.52
X151.22Y-79.06
X151.22Y-81.6
X151.22Y-84.14
X194.2Y-65.4
X196.7Y-65.4
X102.7Y-66.6
X102.7Y-69.14
X102.7Y-71.68
X102.7Y-74.22
X102.7Y-76.76
X102.7Y-79.3
X102.7Y-81.84
X102.7Y-84.38
X102.7Y-86.92
X102.7Y-89.46
X102.7Y-92.0
X102.7Y-94.54
X102.7Y-97.08
X102.7Y-99.62
X102.7Y-102.16
X102.7Y-104.7
X102.7Y-107.24
X102.7Y-109.78
X102.7Y-112.32
X102.7Y-114.86
X117.94Y-66.6
X117.94Y-69.14
X117.94Y-71.68
X117.94Y-74.22
X117.94Y-76.76
X117.94Y-79.3
X117.94Y-81.84
X117.94Y-84.38
X117.94Y-86.92
X117.94Y-89.46
X117.94Y-92.0
X117.94Y-94.54
X117.94Y-97.08
X117.94Y-99.62
X117.94Y-102.16
X117.94Y-104.7
X117.94Y-107.24
X117.94Y-109.78
X140.04Y-99.82
X188.6Y-68.3
X188.6Y-70.84
X188.6Y-73.38
X188.6Y-75.92
X188.6Y-78.46
X188.6Y-81.0
X188.6Y-83.54
X188.6Y-86.08
X188.6Y-88.62
X188.6Y-91.16
X196.22Y-68.3
X196.22Y-70.84
X196.22Y-73.38
X196.22Y-75.92
X196.22Y-78.46
X196.22Y-81.0
X196.22Y-83.54
X196.22Y-86.08
X196.22Y-88.62
X196.22Y-91.16
X124.8Y-66.8
X124.8Y-69.34
X124.8Y-71.88
X124.8Y-74.42
X124.8Y-76.96
X124.8Y-79.5
X124.8Y-82.04
X124.8Y-84.58
X124.8Y-87.12
X124.8Y-89.66
X124.8Y-92.2
X124.8Y-94.74
X124.8Y-97.28
X124.8Y-99.82
X124.8Y-102.36
X124.8Y-104.9
X124.8Y-107.44
X124.8Y-109.98
X124.8Y-112.52
X124.8Y-115.06
X140.04Y-66.8
X140.04Y-69.34
X140.04Y-71.88
X140.04Y-74.42
X140.04Y-76.96
X140.04Y-79.5
X140.04Y-82.04
X140.04Y-84.58
X140.04Y-87.12
X140.04Y-89.66
X140.04Y-92.2
X140.04Y-94.74
X140.04Y-97.28
X140.04Y-102.36
X140.04Y-104.9
X140.04Y-107.44
X140.04Y-109.98
X140.04Y-112.52
X140.04Y-115.06
X143.6Y-117.4
X153.76Y-117.4
X173.3Y-113.58
X173.3Y-121.2
X175.84Y-113.58
X175.84Y-121.2
X178.38Y-113.58
X117.94Y-112.32
X117.94Y-114.86
X188.2Y-128.9
X198.36Y-128.9
X178.38Y-121.2
X180.92Y-113.58
X180.92Y-121.2
X183.46Y-113.58
X183.46Y-121.2
X186.0Y-113.58
X186.0Y-121.2
X188.54Y-113.58
X188.54Y-121.2
X121.3Y-107.44
X121.3Y-117.6
X157.8Y-94.56
X157.8Y-109.8
X160.34Y-94.56
X160.34Y-109.8
X162.88Y-94.56
X162.88Y-109.8
X165.42Y-94.56
X165.42Y-109.8
X167.96Y-94.56
X167.96Y-109.8
X170.5Y-94.56
X170.5Y-109.8
X173.04Y-94.56
X173.04Y-109.8
X175.58Y-94.56
X175.58Y-109.8
X178.12Y-94.56
X178.12Y-109.8
X180.66Y-94.56
X180.66Y-109.8
X183.2Y-94.56
X183.2Y-109.8
X185.74Y-94.56
X185.74Y-109.8
X188.28Y-94.56
X188.28Y-109.8
X190.82Y-94.56
X190.82Y-109.8
X193.36Y-94.56
X173.9Y-65.5
X131.9Y-122.5
X142.06Y-122.5
X182.8Y-65.4
X185.3Y-65.4
X171.4Y-65.5
X121.2Y-121.9
X121.2Y-124.44
X121.2Y-126.98
X121.2Y-129.52
X121.2Y-132.06
X121.2Y-134.6
X121.2Y-137.14
X121.2Y-139.68
X128.82Y-121.9
X128.82Y-124.44
X128.82Y-126.98
X128.82Y-129.52
X128.82Y-132.06
X128.82Y-134.6
X128.82Y-137.14
X128.82Y-139.68
X102.8Y-60.8
X105.3Y-60.8
X157.9Y-136.1
X160.44Y-133.56
X143.6Y-114.0
X153.76Y-114.0
X193.36Y-109.8
X195.9Y-94.56
X195.9Y-109.8
X126.7Y-118.9
X129.2Y-118.9
X160.4Y-65.9
X162.9Y-65.9
X157.9Y-141.32
X157.9Y-146.4
X160.44Y-143.86
X157.9Y-131.02
X184.82Y-83.54
X131.9Y-119.4
X136.9Y-119.4
X115.6Y-121.6
X118.1Y-121.6
X177.2Y-68.3
X177.2Y-70.84
X177.2Y-73.38
X177.2Y-75.92
X154.8Y-68.9
X154.8Y-71.44
X154.8Y-73.98
X154.8Y-76.52
X154.8Y-79.06
X154.8Y-81.6
X154.8Y-84.14
X154.8Y-86.68
X162.42Y-68.9
X177.2Y-91.16
X177.2Y-78.46
X184.82Y-68.3
X184.82Y-86.08
X184.82Y-88.62
X184.82Y-91.16
X149.0Y-65.9
X151.5Y-65.9
X162.42Y-71.44
X136.0Y-132.3
X138.54Y-129.76
X184.82Y-70.84
X162.42Y-86.68
X177.2Y-88.62
X162.42Y-84.14
X184.82Y-73.38
X162.42Y-81.6
X177.2Y-86.08
X162.42Y-79.06
X184.82Y-75.92
X162.42Y-76.52
X177.2Y-83.54
X162.42Y-73.98
X177.2Y-81.0
X184.82Y-78.46
X184.82Y-81.0
X136.0Y-127.22
X166.8Y-126.1
X176.96Y-126.1
X143.5Y-129.5
X143.5Y-132.04
X143.5Y-134.58
X143.5Y-137.12
X143.5Y-139.66
X143.5Y-142.2
X143.5Y-144.74
X143.5Y-147.28
X151.12Y-129.5
X151.12Y-132.04
X151.12Y-134.58
X151.12Y-137.12
X151.12Y-139.66
X151.12Y-142.2
X110.3Y-139.84
X110.3Y-124.6
X110.3Y-127.14
X110.3Y-129.68
X110.3Y-132.22
X134.8Y-139.4
X139.8Y-139.4
X110.3Y-134.76
X139.8Y-136.5
X110.3Y-137.3
X117.92Y-124.6
X134.8Y-136.5
X156.3Y-117.4
X166.46Y-117.4
X187.56Y-132.26
X174.86Y-132.26
X174.86Y-147.5
X177.4Y-132.26
X177.4Y-147.5
X179.94Y-132.26
X179.94Y-147.5
X182.48Y-132.26
X182.48Y-147.5
X185.02Y-132.26
X185.02Y-147.5
X187.56Y-147.5
X190.1Y-132.26
X190.1Y-147.5
X192.64Y-132.26
X192.64Y-147.5
X195.18Y-132.26
X195.18Y-147.5
X143.6Y-101.06
X117.92Y-127.14
X117.92Y-137.3
X117.92Y-139.84
X197.72Y-132.26
X117.92Y-134.76
X197.72Y-147.5
X117.92Y-129.68
X117.92Y-132.22
X155.0Y-94.0
X155.0Y-96.5
X110.6Y-93.44
X110.6Y-103.6
X151.22Y-95.98
X143.6Y-90.9
X143.6Y-93.44
X143.6Y-95.98
X143.6Y-98.52
X143.6Y-103.6
X143.6Y-106.14
X151.22Y-90.9
X151.22Y-93.44
X151.22Y-98.52
X151.22Y-101.06
X151.22Y-103.6
X151.22Y-106.14
X156.3Y-114.0
X166.46Y-114.0
X130.8Y-84.6
X186.5Y-55.5
X133.3Y-84.6
X186.5Y-58.0
X181.3Y-61.8
X191.46Y-61.8
X144.8Y-122.5
X154.96Y-122.5
X121.4Y-76.4
X121.4Y-78.94
X121.4Y-81.48
X121.4Y-84.02
X121.4Y-86.56
X165.8Y-68.3
X165.8Y-70.84
X165.8Y-73.38
X165.8Y-75.92
X165.8Y-78.46
X165.8Y-81.0
X165.8Y-83.54
X165.8Y-86.08
X165.8Y-88.62
X165.8Y-91.16
X173.42Y-68.3
X173.42Y-70.84
X173.42Y-73.38
X173.42Y-75.92
X173.42Y-78.46
X151.3Y-88.1
X151.12Y-147.28
X148.8Y-88.1
X170.4Y-113.1
X170.4Y-115.6
X151.6Y-126.5
X173.42Y-91.16
X151.12Y-144.74
X188.2Y-125.6
X198.36Y-125.6
X154.0Y-126.1
X164.16Y-126.1
X173.42Y-88.62
X149.1Y-126.5
X173.42Y-81.0
X173.42Y-83.54
X173.42Y-86.08
T5
X193.86Y-61.9
X196.4Y-61.9
T6
X121.4Y-66.42
X121.4Y-68.96
X121.4Y-71.5
X105.5Y-130.34
X105.5Y-132.88
X105.5Y-135.42
X105.5Y-137.96
X105.5Y-140.5
X126.0Y-59.96
X126.0Y-62.5
X128.54Y-59.96
X128.54Y-62.5
X131.08Y-59.96
X131.08Y-62.5
X133.62Y-59.96
X133.62Y-62.5
X136.16Y-59.96
X136.16Y-62.5
X138.7Y-59.96
X138.7Y-62.5
X141.24Y-59.96
X141.24Y-62.5
X143.78Y-59.96
X143.78Y-62.5
X146.32Y-59.96
X146.32Y-62.5
X148.86Y-59.96
X148.86Y-62.5
X151.4Y-59.96
X105.5Y-127.8
X151.4Y-62.5
X109.32Y-143.5
X153.94Y-59.96
X109.32Y-146.04
X156.48Y-59.96
X111.86Y-143.5
X159.02Y-59.96
X111.86Y-146.04
X114.4Y-143.5
X164.1Y-62.5
X114.4Y-146.04
X116.94Y-143.5
X116.94Y-146.04
X119.48Y-143.5
X119.48Y-146.04
X122.02Y-143.5
X122.02Y-146.04
X124.56Y-143.5
X124.56Y-146.04
X127.1Y-143.5
X117.38Y-118.6
X139.8Y-143.5
X153.94Y-62.5
X164.1Y-59.96
X166.64Y-59.96
X166.64Y-62.5
X169.18Y-62.5
X174.26Y-59.96
X127.1Y-146.04
X156.48Y-62.5
X159.02Y-62.5
X161.56Y-59.96
X174.26Y-62.5
X129.64Y-146.04
X137.26Y-143.5
X139.8Y-146.04
X161.56Y-62.5
X169.18Y-59.96
X171.72Y-59.96
X171.72Y-62.5
X112.3Y-118.6
X114.84Y-118.6
X129.64Y-143.5
X132.18Y-143.5
X132.18Y-146.04
X134.72Y-143.5
X134.72Y-146.04
X137.26Y-146.04
X121.4Y-91.6
X121.4Y-94.14
X121.4Y-96.68
T7
X194.5Y-54.5
X194.5Y-120.5
X105.5Y-120.5
X105.5Y-54.5
T2
G00X180.75Y-124.2
M15
G01X181.05Y-124.2
M16
G05
T3
G00X180.8Y-129.2
M15
G01X181.0Y-129.2
M16
G05
G00X182.8Y-124.2
M15
G01X183.0Y-124.2
M16
G05
G00X182.8Y-129.2
M15
G01X183.0Y-129.2
M16
G05
G00X184.8Y-124.2
M15
G01X185.0Y-124.2
M16
G05
G00X184.8Y-129.2
M15
G01X185.0Y-129.2
M16
G05
T6
G00X110.0Y-58.1
M15
G01X110.0Y-60.1
M16
G05
G00X115.7Y-56.1
M15
G01X113.7Y-56.1
M16
G05
G00X115.7Y-62.1
M15
G01X113.7Y-62.1
M16
G05
T0
M30
