G04 #@! TF.GenerationSoftware,KiCad,Pcbnew,(5.1.4-0-10_14)*
G04 #@! TF.CreationDate,2021-07-25T18:20:49+09:00*
G04 #@! TF.ProjectId,K68-CPUB,4b36382d-4350-4554-922e-6b696361645f,rev?*
G04 #@! TF.SameCoordinates,Original*
G04 #@! TF.FileFunction,Legend,Top*
G04 #@! TF.FilePolarity,Positive*
%FSLAX46Y46*%
G04 Gerber Fmt 4.6, Leading zero omitted, Abs format (unit mm)*
G04 Created by KiCad (PCBNEW (5.1.4-0-10_14)) date 2021-07-25 18:20:49*
%MOMM*%
%LPD*%
G04 APERTURE LIST*
%ADD10C,0.150000*%
%ADD11C,0.120000*%
%ADD12O,1.802000X1.802000*%
%ADD13R,1.802000X1.802000*%
%ADD14O,1.702000X1.702000*%
%ADD15C,1.702000*%
%ADD16R,1.702000X1.702000*%
%ADD17C,0.100000*%
%ADD18C,3.602000*%
%ADD19C,3.102000*%
%ADD20R,3.602000X3.602000*%
%ADD21C,1.902000*%
%ADD22R,1.902000X1.902000*%
%ADD23O,1.302000X1.202000*%
%ADD24C,1.542000*%
%ADD25C,3.302000*%
G04 APERTURE END LIST*
D10*
X114584523Y-127496428D02*
X114584523Y-128329761D01*
X113334523Y-127794047D01*
X114167857Y-129341666D02*
X113334523Y-129341666D01*
X114644047Y-129044047D02*
X113751190Y-128746428D01*
X113751190Y-129520238D01*
X113334523Y-130591666D02*
X113334523Y-129996428D01*
X114584523Y-129996428D01*
X113394047Y-130948809D02*
X113334523Y-131127380D01*
X113334523Y-131425000D01*
X113394047Y-131544047D01*
X113453571Y-131603571D01*
X113572619Y-131663095D01*
X113691666Y-131663095D01*
X113810714Y-131603571D01*
X113870238Y-131544047D01*
X113929761Y-131425000D01*
X113989285Y-131186904D01*
X114048809Y-131067857D01*
X114108333Y-131008333D01*
X114227380Y-130948809D01*
X114346428Y-130948809D01*
X114465476Y-131008333D01*
X114525000Y-131067857D01*
X114584523Y-131186904D01*
X114584523Y-131484523D01*
X114525000Y-131663095D01*
X114584523Y-132436904D02*
X114584523Y-132555952D01*
X114525000Y-132675000D01*
X114465476Y-132734523D01*
X114346428Y-132794047D01*
X114108333Y-132853571D01*
X113810714Y-132853571D01*
X113572619Y-132794047D01*
X113453571Y-132734523D01*
X113394047Y-132675000D01*
X113334523Y-132555952D01*
X113334523Y-132436904D01*
X113394047Y-132317857D01*
X113453571Y-132258333D01*
X113572619Y-132198809D01*
X113810714Y-132139285D01*
X114108333Y-132139285D01*
X114346428Y-132198809D01*
X114465476Y-132258333D01*
X114525000Y-132317857D01*
X114584523Y-132436904D01*
X114584523Y-133627380D02*
X114584523Y-133746428D01*
X114525000Y-133865476D01*
X114465476Y-133925000D01*
X114346428Y-133984523D01*
X114108333Y-134044047D01*
X113810714Y-134044047D01*
X113572619Y-133984523D01*
X113453571Y-133925000D01*
X113394047Y-133865476D01*
X113334523Y-133746428D01*
X113334523Y-133627380D01*
X113394047Y-133508333D01*
X113453571Y-133448809D01*
X113572619Y-133389285D01*
X113810714Y-133329761D01*
X114108333Y-133329761D01*
X114346428Y-133389285D01*
X114465476Y-133448809D01*
X114525000Y-133508333D01*
X114584523Y-133627380D01*
X124334523Y-125782142D02*
X125584523Y-125782142D01*
X124691666Y-126198809D01*
X125584523Y-126615476D01*
X124334523Y-126615476D01*
X124453571Y-127925000D02*
X124394047Y-127865476D01*
X124334523Y-127686904D01*
X124334523Y-127567857D01*
X124394047Y-127389285D01*
X124513095Y-127270238D01*
X124632142Y-127210714D01*
X124870238Y-127151190D01*
X125048809Y-127151190D01*
X125286904Y-127210714D01*
X125405952Y-127270238D01*
X125525000Y-127389285D01*
X125584523Y-127567857D01*
X125584523Y-127686904D01*
X125525000Y-127865476D01*
X125465476Y-127925000D01*
X124334523Y-129115476D02*
X124334523Y-128401190D01*
X124334523Y-128758333D02*
X125584523Y-128758333D01*
X125405952Y-128639285D01*
X125286904Y-128520238D01*
X125227380Y-128401190D01*
X125167857Y-130186904D02*
X124334523Y-130186904D01*
X125644047Y-129889285D02*
X124751190Y-129591666D01*
X124751190Y-130365476D01*
X125584523Y-131436904D02*
X125584523Y-130841666D01*
X124989285Y-130782142D01*
X125048809Y-130841666D01*
X125108333Y-130960714D01*
X125108333Y-131258333D01*
X125048809Y-131377380D01*
X124989285Y-131436904D01*
X124870238Y-131496428D01*
X124572619Y-131496428D01*
X124453571Y-131436904D01*
X124394047Y-131377380D01*
X124334523Y-131258333D01*
X124334523Y-130960714D01*
X124394047Y-130841666D01*
X124453571Y-130782142D01*
X125584523Y-131913095D02*
X125584523Y-132686904D01*
X125108333Y-132270238D01*
X125108333Y-132448809D01*
X125048809Y-132567857D01*
X124989285Y-132627380D01*
X124870238Y-132686904D01*
X124572619Y-132686904D01*
X124453571Y-132627380D01*
X124394047Y-132567857D01*
X124334523Y-132448809D01*
X124334523Y-132091666D01*
X124394047Y-131972619D01*
X124453571Y-131913095D01*
X125584523Y-133758333D02*
X125584523Y-133520238D01*
X125525000Y-133401190D01*
X125465476Y-133341666D01*
X125286904Y-133222619D01*
X125048809Y-133163095D01*
X124572619Y-133163095D01*
X124453571Y-133222619D01*
X124394047Y-133282142D01*
X124334523Y-133401190D01*
X124334523Y-133639285D01*
X124394047Y-133758333D01*
X124453571Y-133817857D01*
X124572619Y-133877380D01*
X124870238Y-133877380D01*
X124989285Y-133817857D01*
X125048809Y-133758333D01*
X125108333Y-133639285D01*
X125108333Y-133401190D01*
X125048809Y-133282142D01*
X124989285Y-133222619D01*
X124870238Y-133163095D01*
X147584523Y-133401190D02*
X147584523Y-134234523D01*
X146334523Y-133698809D01*
X147167857Y-135246428D02*
X146334523Y-135246428D01*
X147644047Y-134948809D02*
X146751190Y-134651190D01*
X146751190Y-135425000D01*
X146334523Y-136496428D02*
X146334523Y-135901190D01*
X147584523Y-135901190D01*
X146394047Y-136853571D02*
X146334523Y-137032142D01*
X146334523Y-137329761D01*
X146394047Y-137448809D01*
X146453571Y-137508333D01*
X146572619Y-137567857D01*
X146691666Y-137567857D01*
X146810714Y-137508333D01*
X146870238Y-137448809D01*
X146929761Y-137329761D01*
X146989285Y-137091666D01*
X147048809Y-136972619D01*
X147108333Y-136913095D01*
X147227380Y-136853571D01*
X147346428Y-136853571D01*
X147465476Y-136913095D01*
X147525000Y-136972619D01*
X147584523Y-137091666D01*
X147584523Y-137389285D01*
X147525000Y-137567857D01*
X146334523Y-138758333D02*
X146334523Y-138044047D01*
X146334523Y-138401190D02*
X147584523Y-138401190D01*
X147405952Y-138282142D01*
X147286904Y-138163095D01*
X147227380Y-138044047D01*
X147465476Y-139234523D02*
X147525000Y-139294047D01*
X147584523Y-139413095D01*
X147584523Y-139710714D01*
X147525000Y-139829761D01*
X147465476Y-139889285D01*
X147346428Y-139948809D01*
X147227380Y-139948809D01*
X147048809Y-139889285D01*
X146334523Y-139175000D01*
X146334523Y-139948809D01*
X147584523Y-140365476D02*
X147584523Y-141139285D01*
X147108333Y-140722619D01*
X147108333Y-140901190D01*
X147048809Y-141020238D01*
X146989285Y-141079761D01*
X146870238Y-141139285D01*
X146572619Y-141139285D01*
X146453571Y-141079761D01*
X146394047Y-141020238D01*
X146334523Y-140901190D01*
X146334523Y-140544047D01*
X146394047Y-140425000D01*
X146453571Y-140365476D01*
X176636904Y-137922023D02*
X176696428Y-137862500D01*
X176815476Y-137802976D01*
X177113095Y-137802976D01*
X177232142Y-137862500D01*
X177291666Y-137922023D01*
X177351190Y-138041071D01*
X177351190Y-138160119D01*
X177291666Y-138338690D01*
X176577380Y-139052976D01*
X177351190Y-139052976D01*
X178065476Y-138338690D02*
X177946428Y-138279166D01*
X177886904Y-138219642D01*
X177827380Y-138100595D01*
X177827380Y-138041071D01*
X177886904Y-137922023D01*
X177946428Y-137862500D01*
X178065476Y-137802976D01*
X178303571Y-137802976D01*
X178422619Y-137862500D01*
X178482142Y-137922023D01*
X178541666Y-138041071D01*
X178541666Y-138100595D01*
X178482142Y-138219642D01*
X178422619Y-138279166D01*
X178303571Y-138338690D01*
X178065476Y-138338690D01*
X177946428Y-138398214D01*
X177886904Y-138457738D01*
X177827380Y-138576785D01*
X177827380Y-138814880D01*
X177886904Y-138933928D01*
X177946428Y-138993452D01*
X178065476Y-139052976D01*
X178303571Y-139052976D01*
X178422619Y-138993452D01*
X178482142Y-138933928D01*
X178541666Y-138814880D01*
X178541666Y-138576785D01*
X178482142Y-138457738D01*
X178422619Y-138398214D01*
X178303571Y-138338690D01*
X179791666Y-138933928D02*
X179732142Y-138993452D01*
X179553571Y-139052976D01*
X179434523Y-139052976D01*
X179255952Y-138993452D01*
X179136904Y-138874404D01*
X179077380Y-138755357D01*
X179017857Y-138517261D01*
X179017857Y-138338690D01*
X179077380Y-138100595D01*
X179136904Y-137981547D01*
X179255952Y-137862500D01*
X179434523Y-137802976D01*
X179553571Y-137802976D01*
X179732142Y-137862500D01*
X179791666Y-137922023D01*
X180267857Y-137922023D02*
X180327380Y-137862500D01*
X180446428Y-137802976D01*
X180744047Y-137802976D01*
X180863095Y-137862500D01*
X180922619Y-137922023D01*
X180982142Y-138041071D01*
X180982142Y-138160119D01*
X180922619Y-138338690D01*
X180208333Y-139052976D01*
X180982142Y-139052976D01*
X182113095Y-137802976D02*
X181517857Y-137802976D01*
X181458333Y-138398214D01*
X181517857Y-138338690D01*
X181636904Y-138279166D01*
X181934523Y-138279166D01*
X182053571Y-138338690D01*
X182113095Y-138398214D01*
X182172619Y-138517261D01*
X182172619Y-138814880D01*
X182113095Y-138933928D01*
X182053571Y-138993452D01*
X181934523Y-139052976D01*
X181636904Y-139052976D01*
X181517857Y-138993452D01*
X181458333Y-138933928D01*
X183244047Y-137802976D02*
X183005952Y-137802976D01*
X182886904Y-137862500D01*
X182827380Y-137922023D01*
X182708333Y-138100595D01*
X182648809Y-138338690D01*
X182648809Y-138814880D01*
X182708333Y-138933928D01*
X182767857Y-138993452D01*
X182886904Y-139052976D01*
X183125000Y-139052976D01*
X183244047Y-138993452D01*
X183303571Y-138933928D01*
X183363095Y-138814880D01*
X183363095Y-138517261D01*
X183303571Y-138398214D01*
X183244047Y-138338690D01*
X183125000Y-138279166D01*
X182886904Y-138279166D01*
X182767857Y-138338690D01*
X182708333Y-138398214D01*
X182648809Y-138517261D01*
X171607142Y-141554166D02*
X171547619Y-141494642D01*
X171428571Y-141316071D01*
X171369047Y-141197023D01*
X171309523Y-141018452D01*
X171250000Y-140720833D01*
X171250000Y-140482738D01*
X171309523Y-140185119D01*
X171369047Y-140006547D01*
X171428571Y-139887500D01*
X171547619Y-139708928D01*
X171607142Y-139649404D01*
X172023809Y-139947023D02*
X172083333Y-139887500D01*
X172202380Y-139827976D01*
X172500000Y-139827976D01*
X172619047Y-139887500D01*
X172678571Y-139947023D01*
X172738095Y-140066071D01*
X172738095Y-140185119D01*
X172678571Y-140363690D01*
X171964285Y-141077976D01*
X172738095Y-141077976D01*
X173869047Y-139827976D02*
X173273809Y-139827976D01*
X173214285Y-140423214D01*
X173273809Y-140363690D01*
X173392857Y-140304166D01*
X173690476Y-140304166D01*
X173809523Y-140363690D01*
X173869047Y-140423214D01*
X173928571Y-140542261D01*
X173928571Y-140839880D01*
X173869047Y-140958928D01*
X173809523Y-141018452D01*
X173690476Y-141077976D01*
X173392857Y-141077976D01*
X173273809Y-141018452D01*
X173214285Y-140958928D01*
X175000000Y-139827976D02*
X174761904Y-139827976D01*
X174642857Y-139887500D01*
X174583333Y-139947023D01*
X174464285Y-140125595D01*
X174404761Y-140363690D01*
X174404761Y-140839880D01*
X174464285Y-140958928D01*
X174523809Y-141018452D01*
X174642857Y-141077976D01*
X174880952Y-141077976D01*
X175000000Y-141018452D01*
X175059523Y-140958928D01*
X175119047Y-140839880D01*
X175119047Y-140542261D01*
X175059523Y-140423214D01*
X175000000Y-140363690D01*
X174880952Y-140304166D01*
X174642857Y-140304166D01*
X174523809Y-140363690D01*
X174464285Y-140423214D01*
X174404761Y-140542261D01*
X175654761Y-141077976D02*
X175654761Y-139827976D01*
X175773809Y-140601785D02*
X176130952Y-141077976D01*
X176130952Y-140244642D02*
X175654761Y-140720833D01*
X177619047Y-141077976D02*
X177619047Y-139827976D01*
X177619047Y-140304166D02*
X177738095Y-140244642D01*
X177976190Y-140244642D01*
X178095238Y-140304166D01*
X178154761Y-140363690D01*
X178214285Y-140482738D01*
X178214285Y-140839880D01*
X178154761Y-140958928D01*
X178095238Y-141018452D01*
X177976190Y-141077976D01*
X177738095Y-141077976D01*
X177619047Y-141018452D01*
X178750000Y-141077976D02*
X178750000Y-140244642D01*
X178750000Y-139827976D02*
X178690476Y-139887500D01*
X178750000Y-139947023D01*
X178809523Y-139887500D01*
X178750000Y-139827976D01*
X178750000Y-139947023D01*
X179166666Y-140244642D02*
X179642857Y-140244642D01*
X179345238Y-139827976D02*
X179345238Y-140899404D01*
X179404761Y-141018452D01*
X179523809Y-141077976D01*
X179642857Y-141077976D01*
X181011904Y-140423214D02*
X181428571Y-140423214D01*
X181607142Y-141077976D02*
X181011904Y-141077976D01*
X181011904Y-139827976D01*
X181607142Y-139827976D01*
X182142857Y-140423214D02*
X182559523Y-140423214D01*
X182738095Y-141077976D02*
X182142857Y-141077976D01*
X182142857Y-139827976D01*
X182738095Y-139827976D01*
X183273809Y-141077976D02*
X183273809Y-139827976D01*
X183750000Y-139827976D01*
X183869047Y-139887500D01*
X183928571Y-139947023D01*
X183988095Y-140066071D01*
X183988095Y-140244642D01*
X183928571Y-140363690D01*
X183869047Y-140423214D01*
X183750000Y-140482738D01*
X183273809Y-140482738D01*
X185238095Y-141077976D02*
X184821428Y-140482738D01*
X184523809Y-141077976D02*
X184523809Y-139827976D01*
X185000000Y-139827976D01*
X185119047Y-139887500D01*
X185178571Y-139947023D01*
X185238095Y-140066071D01*
X185238095Y-140244642D01*
X185178571Y-140363690D01*
X185119047Y-140423214D01*
X185000000Y-140482738D01*
X184523809Y-140482738D01*
X186011904Y-139827976D02*
X186250000Y-139827976D01*
X186369047Y-139887500D01*
X186488095Y-140006547D01*
X186547619Y-140244642D01*
X186547619Y-140661309D01*
X186488095Y-140899404D01*
X186369047Y-141018452D01*
X186250000Y-141077976D01*
X186011904Y-141077976D01*
X185892857Y-141018452D01*
X185773809Y-140899404D01*
X185714285Y-140661309D01*
X185714285Y-140244642D01*
X185773809Y-140006547D01*
X185892857Y-139887500D01*
X186011904Y-139827976D01*
X187083333Y-141077976D02*
X187083333Y-139827976D01*
X187500000Y-140720833D01*
X187916666Y-139827976D01*
X187916666Y-141077976D01*
X188392857Y-141554166D02*
X188452380Y-141494642D01*
X188571428Y-141316071D01*
X188630952Y-141197023D01*
X188690476Y-141018452D01*
X188750000Y-140720833D01*
X188750000Y-140482738D01*
X188690476Y-140185119D01*
X188630952Y-140006547D01*
X188571428Y-139887500D01*
X188452380Y-139708928D01*
X188392857Y-139649404D01*
X177696428Y-116815476D02*
X178529761Y-116815476D01*
X177994047Y-118065476D01*
X179541666Y-117232142D02*
X179541666Y-118065476D01*
X179244047Y-116755952D02*
X178946428Y-117648809D01*
X179720238Y-117648809D01*
X180791666Y-118065476D02*
X180196428Y-118065476D01*
X180196428Y-116815476D01*
X181148809Y-118005952D02*
X181327380Y-118065476D01*
X181625000Y-118065476D01*
X181744047Y-118005952D01*
X181803571Y-117946428D01*
X181863095Y-117827380D01*
X181863095Y-117708333D01*
X181803571Y-117589285D01*
X181744047Y-117529761D01*
X181625000Y-117470238D01*
X181386904Y-117410714D01*
X181267857Y-117351190D01*
X181208333Y-117291666D01*
X181148809Y-117172619D01*
X181148809Y-117053571D01*
X181208333Y-116934523D01*
X181267857Y-116875000D01*
X181386904Y-116815476D01*
X181684523Y-116815476D01*
X181863095Y-116875000D01*
X182636904Y-116815476D02*
X182755952Y-116815476D01*
X182875000Y-116875000D01*
X182934523Y-116934523D01*
X182994047Y-117053571D01*
X183053571Y-117291666D01*
X183053571Y-117589285D01*
X182994047Y-117827380D01*
X182934523Y-117946428D01*
X182875000Y-118005952D01*
X182755952Y-118065476D01*
X182636904Y-118065476D01*
X182517857Y-118005952D01*
X182458333Y-117946428D01*
X182398809Y-117827380D01*
X182339285Y-117589285D01*
X182339285Y-117291666D01*
X182398809Y-117053571D01*
X182458333Y-116934523D01*
X182517857Y-116875000D01*
X182636904Y-116815476D01*
X183827380Y-116815476D02*
X183946428Y-116815476D01*
X184065476Y-116875000D01*
X184125000Y-116934523D01*
X184184523Y-117053571D01*
X184244047Y-117291666D01*
X184244047Y-117589285D01*
X184184523Y-117827380D01*
X184125000Y-117946428D01*
X184065476Y-118005952D01*
X183946428Y-118065476D01*
X183827380Y-118065476D01*
X183708333Y-118005952D01*
X183648809Y-117946428D01*
X183589285Y-117827380D01*
X183529761Y-117589285D01*
X183529761Y-117291666D01*
X183589285Y-117053571D01*
X183648809Y-116934523D01*
X183708333Y-116875000D01*
X183827380Y-116815476D01*
X174861904Y-100302976D02*
X174623809Y-100302976D01*
X174504761Y-100362500D01*
X174445238Y-100422023D01*
X174326190Y-100600595D01*
X174266666Y-100838690D01*
X174266666Y-101314880D01*
X174326190Y-101433928D01*
X174385714Y-101493452D01*
X174504761Y-101552976D01*
X174742857Y-101552976D01*
X174861904Y-101493452D01*
X174921428Y-101433928D01*
X174980952Y-101314880D01*
X174980952Y-101017261D01*
X174921428Y-100898214D01*
X174861904Y-100838690D01*
X174742857Y-100779166D01*
X174504761Y-100779166D01*
X174385714Y-100838690D01*
X174326190Y-100898214D01*
X174266666Y-101017261D01*
X175457142Y-100422023D02*
X175516666Y-100362500D01*
X175635714Y-100302976D01*
X175933333Y-100302976D01*
X176052380Y-100362500D01*
X176111904Y-100422023D01*
X176171428Y-100541071D01*
X176171428Y-100660119D01*
X176111904Y-100838690D01*
X175397619Y-101552976D01*
X176171428Y-101552976D01*
X176885714Y-100838690D02*
X176766666Y-100779166D01*
X176707142Y-100719642D01*
X176647619Y-100600595D01*
X176647619Y-100541071D01*
X176707142Y-100422023D01*
X176766666Y-100362500D01*
X176885714Y-100302976D01*
X177123809Y-100302976D01*
X177242857Y-100362500D01*
X177302380Y-100422023D01*
X177361904Y-100541071D01*
X177361904Y-100600595D01*
X177302380Y-100719642D01*
X177242857Y-100779166D01*
X177123809Y-100838690D01*
X176885714Y-100838690D01*
X176766666Y-100898214D01*
X176707142Y-100957738D01*
X176647619Y-101076785D01*
X176647619Y-101314880D01*
X176707142Y-101433928D01*
X176766666Y-101493452D01*
X176885714Y-101552976D01*
X177123809Y-101552976D01*
X177242857Y-101493452D01*
X177302380Y-101433928D01*
X177361904Y-101314880D01*
X177361904Y-101076785D01*
X177302380Y-100957738D01*
X177242857Y-100898214D01*
X177123809Y-100838690D01*
X178552380Y-101552976D02*
X177838095Y-101552976D01*
X178195238Y-101552976D02*
X178195238Y-100302976D01*
X178076190Y-100481547D01*
X177957142Y-100600595D01*
X177838095Y-100660119D01*
X179028571Y-100422023D02*
X179088095Y-100362500D01*
X179207142Y-100302976D01*
X179504761Y-100302976D01*
X179623809Y-100362500D01*
X179683333Y-100422023D01*
X179742857Y-100541071D01*
X179742857Y-100660119D01*
X179683333Y-100838690D01*
X178969047Y-101552976D01*
X179742857Y-101552976D01*
X180457142Y-100838690D02*
X180338095Y-100779166D01*
X180278571Y-100719642D01*
X180219047Y-100600595D01*
X180219047Y-100541071D01*
X180278571Y-100422023D01*
X180338095Y-100362500D01*
X180457142Y-100302976D01*
X180695238Y-100302976D01*
X180814285Y-100362500D01*
X180873809Y-100422023D01*
X180933333Y-100541071D01*
X180933333Y-100600595D01*
X180873809Y-100719642D01*
X180814285Y-100779166D01*
X180695238Y-100838690D01*
X180457142Y-100838690D01*
X180338095Y-100898214D01*
X180278571Y-100957738D01*
X180219047Y-101076785D01*
X180219047Y-101314880D01*
X180278571Y-101433928D01*
X180338095Y-101493452D01*
X180457142Y-101552976D01*
X180695238Y-101552976D01*
X180814285Y-101493452D01*
X180873809Y-101433928D01*
X180933333Y-101314880D01*
X180933333Y-101076785D01*
X180873809Y-100957738D01*
X180814285Y-100898214D01*
X180695238Y-100838690D01*
X171469047Y-104054166D02*
X171409523Y-103994642D01*
X171290476Y-103816071D01*
X171230952Y-103697023D01*
X171171428Y-103518452D01*
X171111904Y-103220833D01*
X171111904Y-102982738D01*
X171171428Y-102685119D01*
X171230952Y-102506547D01*
X171290476Y-102387500D01*
X171409523Y-102208928D01*
X171469047Y-102149404D01*
X172600000Y-103577976D02*
X171885714Y-103577976D01*
X172242857Y-103577976D02*
X172242857Y-102327976D01*
X172123809Y-102506547D01*
X172004761Y-102625595D01*
X171885714Y-102685119D01*
X173135714Y-103577976D02*
X173135714Y-102327976D01*
X173552380Y-103220833D01*
X173969047Y-102327976D01*
X173969047Y-103577976D01*
X175516666Y-103577976D02*
X175516666Y-102327976D01*
X175516666Y-102804166D02*
X175635714Y-102744642D01*
X175873809Y-102744642D01*
X175992857Y-102804166D01*
X176052380Y-102863690D01*
X176111904Y-102982738D01*
X176111904Y-103339880D01*
X176052380Y-103458928D01*
X175992857Y-103518452D01*
X175873809Y-103577976D01*
X175635714Y-103577976D01*
X175516666Y-103518452D01*
X176647619Y-103577976D02*
X176647619Y-102744642D01*
X176647619Y-102327976D02*
X176588095Y-102387500D01*
X176647619Y-102447023D01*
X176707142Y-102387500D01*
X176647619Y-102327976D01*
X176647619Y-102447023D01*
X177064285Y-102744642D02*
X177540476Y-102744642D01*
X177242857Y-102327976D02*
X177242857Y-103399404D01*
X177302380Y-103518452D01*
X177421428Y-103577976D01*
X177540476Y-103577976D01*
X178850000Y-103518452D02*
X179028571Y-103577976D01*
X179326190Y-103577976D01*
X179445238Y-103518452D01*
X179504761Y-103458928D01*
X179564285Y-103339880D01*
X179564285Y-103220833D01*
X179504761Y-103101785D01*
X179445238Y-103042261D01*
X179326190Y-102982738D01*
X179088095Y-102923214D01*
X178969047Y-102863690D01*
X178909523Y-102804166D01*
X178850000Y-102685119D01*
X178850000Y-102566071D01*
X178909523Y-102447023D01*
X178969047Y-102387500D01*
X179088095Y-102327976D01*
X179385714Y-102327976D01*
X179564285Y-102387500D01*
X180814285Y-103577976D02*
X180397619Y-102982738D01*
X180100000Y-103577976D02*
X180100000Y-102327976D01*
X180576190Y-102327976D01*
X180695238Y-102387500D01*
X180754761Y-102447023D01*
X180814285Y-102566071D01*
X180814285Y-102744642D01*
X180754761Y-102863690D01*
X180695238Y-102923214D01*
X180576190Y-102982738D01*
X180100000Y-102982738D01*
X181290476Y-103220833D02*
X181885714Y-103220833D01*
X181171428Y-103577976D02*
X181588095Y-102327976D01*
X182004761Y-103577976D01*
X182421428Y-103577976D02*
X182421428Y-102327976D01*
X182838095Y-103220833D01*
X183254761Y-102327976D01*
X183254761Y-103577976D01*
X183730952Y-104054166D02*
X183790476Y-103994642D01*
X183909523Y-103816071D01*
X183969047Y-103697023D01*
X184028571Y-103518452D01*
X184088095Y-103220833D01*
X184088095Y-102982738D01*
X184028571Y-102685119D01*
X183969047Y-102506547D01*
X183909523Y-102387500D01*
X183790476Y-102208928D01*
X183730952Y-102149404D01*
X193284523Y-72101190D02*
X193284523Y-72934523D01*
X192034523Y-72398809D01*
X192867857Y-73946428D02*
X192034523Y-73946428D01*
X193344047Y-73648809D02*
X192451190Y-73351190D01*
X192451190Y-74125000D01*
X192034523Y-75196428D02*
X192034523Y-74601190D01*
X193284523Y-74601190D01*
X192094047Y-75553571D02*
X192034523Y-75732142D01*
X192034523Y-76029761D01*
X192094047Y-76148809D01*
X192153571Y-76208333D01*
X192272619Y-76267857D01*
X192391666Y-76267857D01*
X192510714Y-76208333D01*
X192570238Y-76148809D01*
X192629761Y-76029761D01*
X192689285Y-75791666D01*
X192748809Y-75672619D01*
X192808333Y-75613095D01*
X192927380Y-75553571D01*
X193046428Y-75553571D01*
X193165476Y-75613095D01*
X193225000Y-75672619D01*
X193284523Y-75791666D01*
X193284523Y-76089285D01*
X193225000Y-76267857D01*
X193165476Y-76744047D02*
X193225000Y-76803571D01*
X193284523Y-76922619D01*
X193284523Y-77220238D01*
X193225000Y-77339285D01*
X193165476Y-77398809D01*
X193046428Y-77458333D01*
X192927380Y-77458333D01*
X192748809Y-77398809D01*
X192034523Y-76684523D01*
X192034523Y-77458333D01*
X192867857Y-78529761D02*
X192034523Y-78529761D01*
X193344047Y-78232142D02*
X192451190Y-77934523D01*
X192451190Y-78708333D01*
X192867857Y-79720238D02*
X192034523Y-79720238D01*
X193344047Y-79422619D02*
X192451190Y-79125000D01*
X192451190Y-79898809D01*
X181784523Y-72101190D02*
X181784523Y-72934523D01*
X180534523Y-72398809D01*
X181367857Y-73946428D02*
X180534523Y-73946428D01*
X181844047Y-73648809D02*
X180951190Y-73351190D01*
X180951190Y-74125000D01*
X180534523Y-75196428D02*
X180534523Y-74601190D01*
X181784523Y-74601190D01*
X180594047Y-75553571D02*
X180534523Y-75732142D01*
X180534523Y-76029761D01*
X180594047Y-76148809D01*
X180653571Y-76208333D01*
X180772619Y-76267857D01*
X180891666Y-76267857D01*
X181010714Y-76208333D01*
X181070238Y-76148809D01*
X181129761Y-76029761D01*
X181189285Y-75791666D01*
X181248809Y-75672619D01*
X181308333Y-75613095D01*
X181427380Y-75553571D01*
X181546428Y-75553571D01*
X181665476Y-75613095D01*
X181725000Y-75672619D01*
X181784523Y-75791666D01*
X181784523Y-76089285D01*
X181725000Y-76267857D01*
X181665476Y-76744047D02*
X181725000Y-76803571D01*
X181784523Y-76922619D01*
X181784523Y-77220238D01*
X181725000Y-77339285D01*
X181665476Y-77398809D01*
X181546428Y-77458333D01*
X181427380Y-77458333D01*
X181248809Y-77398809D01*
X180534523Y-76684523D01*
X180534523Y-77458333D01*
X181367857Y-78529761D02*
X180534523Y-78529761D01*
X181844047Y-78232142D02*
X180951190Y-77934523D01*
X180951190Y-78708333D01*
X181367857Y-79720238D02*
X180534523Y-79720238D01*
X181844047Y-79422619D02*
X180951190Y-79125000D01*
X180951190Y-79898809D01*
X170284523Y-72101190D02*
X170284523Y-72934523D01*
X169034523Y-72398809D01*
X169867857Y-73946428D02*
X169034523Y-73946428D01*
X170344047Y-73648809D02*
X169451190Y-73351190D01*
X169451190Y-74125000D01*
X169034523Y-75196428D02*
X169034523Y-74601190D01*
X170284523Y-74601190D01*
X169094047Y-75553571D02*
X169034523Y-75732142D01*
X169034523Y-76029761D01*
X169094047Y-76148809D01*
X169153571Y-76208333D01*
X169272619Y-76267857D01*
X169391666Y-76267857D01*
X169510714Y-76208333D01*
X169570238Y-76148809D01*
X169629761Y-76029761D01*
X169689285Y-75791666D01*
X169748809Y-75672619D01*
X169808333Y-75613095D01*
X169927380Y-75553571D01*
X170046428Y-75553571D01*
X170165476Y-75613095D01*
X170225000Y-75672619D01*
X170284523Y-75791666D01*
X170284523Y-76089285D01*
X170225000Y-76267857D01*
X170165476Y-76744047D02*
X170225000Y-76803571D01*
X170284523Y-76922619D01*
X170284523Y-77220238D01*
X170225000Y-77339285D01*
X170165476Y-77398809D01*
X170046428Y-77458333D01*
X169927380Y-77458333D01*
X169748809Y-77398809D01*
X169034523Y-76684523D01*
X169034523Y-77458333D01*
X169867857Y-78529761D02*
X169034523Y-78529761D01*
X170344047Y-78232142D02*
X169451190Y-77934523D01*
X169451190Y-78708333D01*
X170284523Y-79779761D02*
X170284523Y-79184523D01*
X169689285Y-79125000D01*
X169748809Y-79184523D01*
X169808333Y-79303571D01*
X169808333Y-79601190D01*
X169748809Y-79720238D01*
X169689285Y-79779761D01*
X169570238Y-79839285D01*
X169272619Y-79839285D01*
X169153571Y-79779761D01*
X169094047Y-79720238D01*
X169034523Y-79601190D01*
X169034523Y-79303571D01*
X169094047Y-79184523D01*
X169153571Y-79125000D01*
X159284523Y-72101190D02*
X159284523Y-72934523D01*
X158034523Y-72398809D01*
X158867857Y-73946428D02*
X158034523Y-73946428D01*
X159344047Y-73648809D02*
X158451190Y-73351190D01*
X158451190Y-74125000D01*
X158034523Y-75196428D02*
X158034523Y-74601190D01*
X159284523Y-74601190D01*
X158094047Y-75553571D02*
X158034523Y-75732142D01*
X158034523Y-76029761D01*
X158094047Y-76148809D01*
X158153571Y-76208333D01*
X158272619Y-76267857D01*
X158391666Y-76267857D01*
X158510714Y-76208333D01*
X158570238Y-76148809D01*
X158629761Y-76029761D01*
X158689285Y-75791666D01*
X158748809Y-75672619D01*
X158808333Y-75613095D01*
X158927380Y-75553571D01*
X159046428Y-75553571D01*
X159165476Y-75613095D01*
X159225000Y-75672619D01*
X159284523Y-75791666D01*
X159284523Y-76089285D01*
X159225000Y-76267857D01*
X158034523Y-77458333D02*
X158034523Y-76744047D01*
X158034523Y-77101190D02*
X159284523Y-77101190D01*
X159105952Y-76982142D01*
X158986904Y-76863095D01*
X158927380Y-76744047D01*
X159284523Y-77875000D02*
X159284523Y-78648809D01*
X158808333Y-78232142D01*
X158808333Y-78410714D01*
X158748809Y-78529761D01*
X158689285Y-78589285D01*
X158570238Y-78648809D01*
X158272619Y-78648809D01*
X158153571Y-78589285D01*
X158094047Y-78529761D01*
X158034523Y-78410714D01*
X158034523Y-78053571D01*
X158094047Y-77934523D01*
X158153571Y-77875000D01*
X158748809Y-79363095D02*
X158808333Y-79244047D01*
X158867857Y-79184523D01*
X158986904Y-79125000D01*
X159046428Y-79125000D01*
X159165476Y-79184523D01*
X159225000Y-79244047D01*
X159284523Y-79363095D01*
X159284523Y-79601190D01*
X159225000Y-79720238D01*
X159165476Y-79779761D01*
X159046428Y-79839285D01*
X158986904Y-79839285D01*
X158867857Y-79779761D01*
X158808333Y-79720238D01*
X158748809Y-79601190D01*
X158748809Y-79363095D01*
X158689285Y-79244047D01*
X158629761Y-79184523D01*
X158510714Y-79125000D01*
X158272619Y-79125000D01*
X158153571Y-79184523D01*
X158094047Y-79244047D01*
X158034523Y-79363095D01*
X158034523Y-79601190D01*
X158094047Y-79720238D01*
X158153571Y-79779761D01*
X158272619Y-79839285D01*
X158510714Y-79839285D01*
X158629761Y-79779761D01*
X158689285Y-79720238D01*
X158748809Y-79601190D01*
X147684523Y-72596428D02*
X147684523Y-73429761D01*
X146434523Y-72894047D01*
X147267857Y-74441666D02*
X146434523Y-74441666D01*
X147744047Y-74144047D02*
X146851190Y-73846428D01*
X146851190Y-74620238D01*
X146434523Y-75691666D02*
X146434523Y-75096428D01*
X147684523Y-75096428D01*
X146494047Y-76048809D02*
X146434523Y-76227380D01*
X146434523Y-76525000D01*
X146494047Y-76644047D01*
X146553571Y-76703571D01*
X146672619Y-76763095D01*
X146791666Y-76763095D01*
X146910714Y-76703571D01*
X146970238Y-76644047D01*
X147029761Y-76525000D01*
X147089285Y-76286904D01*
X147148809Y-76167857D01*
X147208333Y-76108333D01*
X147327380Y-76048809D01*
X147446428Y-76048809D01*
X147565476Y-76108333D01*
X147625000Y-76167857D01*
X147684523Y-76286904D01*
X147684523Y-76584523D01*
X147625000Y-76763095D01*
X147684523Y-77536904D02*
X147684523Y-77655952D01*
X147625000Y-77775000D01*
X147565476Y-77834523D01*
X147446428Y-77894047D01*
X147208333Y-77953571D01*
X146910714Y-77953571D01*
X146672619Y-77894047D01*
X146553571Y-77834523D01*
X146494047Y-77775000D01*
X146434523Y-77655952D01*
X146434523Y-77536904D01*
X146494047Y-77417857D01*
X146553571Y-77358333D01*
X146672619Y-77298809D01*
X146910714Y-77239285D01*
X147208333Y-77239285D01*
X147446428Y-77298809D01*
X147565476Y-77358333D01*
X147625000Y-77417857D01*
X147684523Y-77536904D01*
X147684523Y-78727380D02*
X147684523Y-78846428D01*
X147625000Y-78965476D01*
X147565476Y-79025000D01*
X147446428Y-79084523D01*
X147208333Y-79144047D01*
X146910714Y-79144047D01*
X146672619Y-79084523D01*
X146553571Y-79025000D01*
X146494047Y-78965476D01*
X146434523Y-78846428D01*
X146434523Y-78727380D01*
X146494047Y-78608333D01*
X146553571Y-78548809D01*
X146672619Y-78489285D01*
X146910714Y-78429761D01*
X147208333Y-78429761D01*
X147446428Y-78489285D01*
X147565476Y-78548809D01*
X147625000Y-78608333D01*
X147684523Y-78727380D01*
X147584523Y-94996428D02*
X147584523Y-95829761D01*
X146334523Y-95294047D01*
X147167857Y-96841666D02*
X146334523Y-96841666D01*
X147644047Y-96544047D02*
X146751190Y-96246428D01*
X146751190Y-97020238D01*
X146334523Y-98091666D02*
X146334523Y-97496428D01*
X147584523Y-97496428D01*
X146394047Y-98448809D02*
X146334523Y-98627380D01*
X146334523Y-98925000D01*
X146394047Y-99044047D01*
X146453571Y-99103571D01*
X146572619Y-99163095D01*
X146691666Y-99163095D01*
X146810714Y-99103571D01*
X146870238Y-99044047D01*
X146929761Y-98925000D01*
X146989285Y-98686904D01*
X147048809Y-98567857D01*
X147108333Y-98508333D01*
X147227380Y-98448809D01*
X147346428Y-98448809D01*
X147465476Y-98508333D01*
X147525000Y-98567857D01*
X147584523Y-98686904D01*
X147584523Y-98984523D01*
X147525000Y-99163095D01*
X147584523Y-99579761D02*
X147584523Y-100353571D01*
X147108333Y-99936904D01*
X147108333Y-100115476D01*
X147048809Y-100234523D01*
X146989285Y-100294047D01*
X146870238Y-100353571D01*
X146572619Y-100353571D01*
X146453571Y-100294047D01*
X146394047Y-100234523D01*
X146334523Y-100115476D01*
X146334523Y-99758333D01*
X146394047Y-99639285D01*
X146453571Y-99579761D01*
X147584523Y-100770238D02*
X147584523Y-101603571D01*
X146334523Y-101067857D01*
X131334523Y-88996428D02*
X132584523Y-88996428D01*
X131691666Y-89413095D01*
X132584523Y-89829761D01*
X131334523Y-89829761D01*
X131453571Y-91139285D02*
X131394047Y-91079761D01*
X131334523Y-90901190D01*
X131334523Y-90782142D01*
X131394047Y-90603571D01*
X131513095Y-90484523D01*
X131632142Y-90425000D01*
X131870238Y-90365476D01*
X132048809Y-90365476D01*
X132286904Y-90425000D01*
X132405952Y-90484523D01*
X132525000Y-90603571D01*
X132584523Y-90782142D01*
X132584523Y-90901190D01*
X132525000Y-91079761D01*
X132465476Y-91139285D01*
X132584523Y-92210714D02*
X132584523Y-91972619D01*
X132525000Y-91853571D01*
X132465476Y-91794047D01*
X132286904Y-91675000D01*
X132048809Y-91615476D01*
X131572619Y-91615476D01*
X131453571Y-91675000D01*
X131394047Y-91734523D01*
X131334523Y-91853571D01*
X131334523Y-92091666D01*
X131394047Y-92210714D01*
X131453571Y-92270238D01*
X131572619Y-92329761D01*
X131870238Y-92329761D01*
X131989285Y-92270238D01*
X132048809Y-92210714D01*
X132108333Y-92091666D01*
X132108333Y-91853571D01*
X132048809Y-91734523D01*
X131989285Y-91675000D01*
X131870238Y-91615476D01*
X132048809Y-93044047D02*
X132108333Y-92925000D01*
X132167857Y-92865476D01*
X132286904Y-92805952D01*
X132346428Y-92805952D01*
X132465476Y-92865476D01*
X132525000Y-92925000D01*
X132584523Y-93044047D01*
X132584523Y-93282142D01*
X132525000Y-93401190D01*
X132465476Y-93460714D01*
X132346428Y-93520238D01*
X132286904Y-93520238D01*
X132167857Y-93460714D01*
X132108333Y-93401190D01*
X132048809Y-93282142D01*
X132048809Y-93044047D01*
X131989285Y-92925000D01*
X131929761Y-92865476D01*
X131810714Y-92805952D01*
X131572619Y-92805952D01*
X131453571Y-92865476D01*
X131394047Y-92925000D01*
X131334523Y-93044047D01*
X131334523Y-93282142D01*
X131394047Y-93401190D01*
X131453571Y-93460714D01*
X131572619Y-93520238D01*
X131810714Y-93520238D01*
X131929761Y-93460714D01*
X131989285Y-93401190D01*
X132048809Y-93282142D01*
X132584523Y-94294047D02*
X132584523Y-94413095D01*
X132525000Y-94532142D01*
X132465476Y-94591666D01*
X132346428Y-94651190D01*
X132108333Y-94710714D01*
X131810714Y-94710714D01*
X131572619Y-94651190D01*
X131453571Y-94591666D01*
X131394047Y-94532142D01*
X131334523Y-94413095D01*
X131334523Y-94294047D01*
X131394047Y-94175000D01*
X131453571Y-94115476D01*
X131572619Y-94055952D01*
X131810714Y-93996428D01*
X132108333Y-93996428D01*
X132346428Y-94055952D01*
X132465476Y-94115476D01*
X132525000Y-94175000D01*
X132584523Y-94294047D01*
X132584523Y-95484523D02*
X132584523Y-95603571D01*
X132525000Y-95722619D01*
X132465476Y-95782142D01*
X132346428Y-95841666D01*
X132108333Y-95901190D01*
X131810714Y-95901190D01*
X131572619Y-95841666D01*
X131453571Y-95782142D01*
X131394047Y-95722619D01*
X131334523Y-95603571D01*
X131334523Y-95484523D01*
X131394047Y-95365476D01*
X131453571Y-95305952D01*
X131572619Y-95246428D01*
X131810714Y-95186904D01*
X132108333Y-95186904D01*
X132346428Y-95246428D01*
X132465476Y-95305952D01*
X132525000Y-95365476D01*
X132584523Y-95484523D01*
X131453571Y-98103571D02*
X131394047Y-98044047D01*
X131334523Y-97865476D01*
X131334523Y-97746428D01*
X131394047Y-97567857D01*
X131513095Y-97448809D01*
X131632142Y-97389285D01*
X131870238Y-97329761D01*
X132048809Y-97329761D01*
X132286904Y-97389285D01*
X132405952Y-97448809D01*
X132525000Y-97567857D01*
X132584523Y-97746428D01*
X132584523Y-97865476D01*
X132525000Y-98044047D01*
X132465476Y-98103571D01*
X131334523Y-98639285D02*
X132584523Y-98639285D01*
X132584523Y-99115476D01*
X132525000Y-99234523D01*
X132465476Y-99294047D01*
X132346428Y-99353571D01*
X132167857Y-99353571D01*
X132048809Y-99294047D01*
X131989285Y-99234523D01*
X131929761Y-99115476D01*
X131929761Y-98639285D01*
X132584523Y-99889285D02*
X131572619Y-99889285D01*
X131453571Y-99948809D01*
X131394047Y-100008333D01*
X131334523Y-100127380D01*
X131334523Y-100365476D01*
X131394047Y-100484523D01*
X131453571Y-100544047D01*
X131572619Y-100603571D01*
X132584523Y-100603571D01*
X109934523Y-73961904D02*
X111184523Y-73961904D01*
X110291666Y-74378571D01*
X111184523Y-74795238D01*
X109934523Y-74795238D01*
X110053571Y-76104761D02*
X109994047Y-76045238D01*
X109934523Y-75866666D01*
X109934523Y-75747619D01*
X109994047Y-75569047D01*
X110113095Y-75450000D01*
X110232142Y-75390476D01*
X110470238Y-75330952D01*
X110648809Y-75330952D01*
X110886904Y-75390476D01*
X111005952Y-75450000D01*
X111125000Y-75569047D01*
X111184523Y-75747619D01*
X111184523Y-75866666D01*
X111125000Y-76045238D01*
X111065476Y-76104761D01*
X111184523Y-77176190D02*
X111184523Y-76938095D01*
X111125000Y-76819047D01*
X111065476Y-76759523D01*
X110886904Y-76640476D01*
X110648809Y-76580952D01*
X110172619Y-76580952D01*
X110053571Y-76640476D01*
X109994047Y-76700000D01*
X109934523Y-76819047D01*
X109934523Y-77057142D01*
X109994047Y-77176190D01*
X110053571Y-77235714D01*
X110172619Y-77295238D01*
X110470238Y-77295238D01*
X110589285Y-77235714D01*
X110648809Y-77176190D01*
X110708333Y-77057142D01*
X110708333Y-76819047D01*
X110648809Y-76700000D01*
X110589285Y-76640476D01*
X110470238Y-76580952D01*
X110648809Y-78009523D02*
X110708333Y-77890476D01*
X110767857Y-77830952D01*
X110886904Y-77771428D01*
X110946428Y-77771428D01*
X111065476Y-77830952D01*
X111125000Y-77890476D01*
X111184523Y-78009523D01*
X111184523Y-78247619D01*
X111125000Y-78366666D01*
X111065476Y-78426190D01*
X110946428Y-78485714D01*
X110886904Y-78485714D01*
X110767857Y-78426190D01*
X110708333Y-78366666D01*
X110648809Y-78247619D01*
X110648809Y-78009523D01*
X110589285Y-77890476D01*
X110529761Y-77830952D01*
X110410714Y-77771428D01*
X110172619Y-77771428D01*
X110053571Y-77830952D01*
X109994047Y-77890476D01*
X109934523Y-78009523D01*
X109934523Y-78247619D01*
X109994047Y-78366666D01*
X110053571Y-78426190D01*
X110172619Y-78485714D01*
X110410714Y-78485714D01*
X110529761Y-78426190D01*
X110589285Y-78366666D01*
X110648809Y-78247619D01*
X110291666Y-78961904D02*
X110291666Y-79557142D01*
X109934523Y-78842857D02*
X111184523Y-79259523D01*
X109934523Y-79676190D01*
X111065476Y-80033333D02*
X111125000Y-80092857D01*
X111184523Y-80211904D01*
X111184523Y-80509523D01*
X111125000Y-80628571D01*
X111065476Y-80688095D01*
X110946428Y-80747619D01*
X110827380Y-80747619D01*
X110648809Y-80688095D01*
X109934523Y-79973809D01*
X109934523Y-80747619D01*
X111184523Y-81521428D02*
X111184523Y-81640476D01*
X111125000Y-81759523D01*
X111065476Y-81819047D01*
X110946428Y-81878571D01*
X110708333Y-81938095D01*
X110410714Y-81938095D01*
X110172619Y-81878571D01*
X110053571Y-81819047D01*
X109994047Y-81759523D01*
X109934523Y-81640476D01*
X109934523Y-81521428D01*
X109994047Y-81402380D01*
X110053571Y-81342857D01*
X110172619Y-81283333D01*
X110410714Y-81223809D01*
X110708333Y-81223809D01*
X110946428Y-81283333D01*
X111065476Y-81342857D01*
X111125000Y-81402380D01*
X111184523Y-81521428D01*
X111244047Y-83366666D02*
X109636904Y-82295238D01*
X111065476Y-83723809D02*
X111125000Y-83783333D01*
X111184523Y-83902380D01*
X111184523Y-84200000D01*
X111125000Y-84319047D01*
X111065476Y-84378571D01*
X110946428Y-84438095D01*
X110827380Y-84438095D01*
X110648809Y-84378571D01*
X109934523Y-83664285D01*
X109934523Y-84438095D01*
X109934523Y-85628571D02*
X109934523Y-84914285D01*
X109934523Y-85271428D02*
X111184523Y-85271428D01*
X111005952Y-85152380D01*
X110886904Y-85033333D01*
X110827380Y-84914285D01*
X109934523Y-87116666D02*
X111184523Y-87116666D01*
X111184523Y-87592857D01*
X111125000Y-87711904D01*
X111065476Y-87771428D01*
X110946428Y-87830952D01*
X110767857Y-87830952D01*
X110648809Y-87771428D01*
X110589285Y-87711904D01*
X110529761Y-87592857D01*
X110529761Y-87116666D01*
X109934523Y-88366666D02*
X111184523Y-88366666D01*
X110291666Y-88902380D02*
X110291666Y-89497619D01*
X109934523Y-88783333D02*
X111184523Y-89200000D01*
X109934523Y-89616666D01*
D11*
X118710000Y-117270000D02*
X118710000Y-118600000D01*
X117380000Y-117270000D02*
X118710000Y-117270000D01*
X116110000Y-117270000D02*
X116110000Y-119930000D01*
X116110000Y-119930000D02*
X110970000Y-119930000D01*
X116110000Y-117270000D02*
X110970000Y-117270000D01*
X110970000Y-117270000D02*
X110970000Y-119930000D01*
X120070000Y-90270000D02*
X121400000Y-90270000D01*
X120070000Y-91600000D02*
X120070000Y-90270000D01*
X120070000Y-92870000D02*
X122730000Y-92870000D01*
X122730000Y-92870000D02*
X122730000Y-98010000D01*
X120070000Y-92870000D02*
X120070000Y-98010000D01*
X120070000Y-98010000D02*
X122730000Y-98010000D01*
X110600000Y-94480000D02*
X110600000Y-95250000D01*
X110600000Y-102560000D02*
X110600000Y-101790000D01*
X109230000Y-95250000D02*
X109230000Y-101790000D01*
X111970000Y-95250000D02*
X109230000Y-95250000D01*
X111970000Y-101790000D02*
X111970000Y-95250000D01*
X109230000Y-101790000D02*
X111970000Y-101790000D01*
X119270000Y-65210000D02*
X101370000Y-65210000D01*
X119270000Y-116250000D02*
X119270000Y-65210000D01*
X101370000Y-116250000D02*
X119270000Y-116250000D01*
X101370000Y-65210000D02*
X101370000Y-116250000D01*
X116780000Y-65270000D02*
X111320000Y-65270000D01*
X116780000Y-116190000D02*
X116780000Y-65270000D01*
X103860000Y-116190000D02*
X116780000Y-116190000D01*
X103860000Y-65270000D02*
X103860000Y-116190000D01*
X109320000Y-65270000D02*
X103860000Y-65270000D01*
X111320000Y-65270000D02*
G75*
G02X109320000Y-65270000I-1000000J0D01*
G01*
X141370000Y-65410000D02*
X123470000Y-65410000D01*
X141370000Y-116450000D02*
X141370000Y-65410000D01*
X123470000Y-116450000D02*
X141370000Y-116450000D01*
X123470000Y-65410000D02*
X123470000Y-116450000D01*
X138880000Y-65470000D02*
X133420000Y-65470000D01*
X138880000Y-116390000D02*
X138880000Y-65470000D01*
X125960000Y-116390000D02*
X138880000Y-116390000D01*
X125960000Y-65470000D02*
X125960000Y-116390000D01*
X131420000Y-65470000D02*
X125960000Y-65470000D01*
X133420000Y-65470000D02*
G75*
G02X131420000Y-65470000I-1000000J0D01*
G01*
X122730000Y-72830000D02*
X121400000Y-72830000D01*
X122730000Y-71500000D02*
X122730000Y-72830000D01*
X122730000Y-70230000D02*
X120070000Y-70230000D01*
X120070000Y-70230000D02*
X120070000Y-65090000D01*
X122730000Y-70230000D02*
X122730000Y-65090000D01*
X122730000Y-65090000D02*
X120070000Y-65090000D01*
X190420000Y-61800000D02*
X189650000Y-61800000D01*
X182340000Y-61800000D02*
X183110000Y-61800000D01*
X189650000Y-60430000D02*
X183110000Y-60430000D01*
X189650000Y-63170000D02*
X189650000Y-60430000D01*
X183110000Y-63170000D02*
X189650000Y-63170000D01*
X183110000Y-60430000D02*
X183110000Y-63170000D01*
X119300000Y-63000000D02*
X116700000Y-63000000D01*
X119300000Y-48300000D02*
X119300000Y-63000000D01*
X110100000Y-63000000D02*
X110100000Y-61100000D01*
X112800000Y-63000000D02*
X110100000Y-63000000D01*
X110100000Y-48300000D02*
X119300000Y-48300000D01*
X110100000Y-57100000D02*
X110100000Y-48300000D01*
X119500000Y-62150000D02*
X119500000Y-63200000D01*
X118450000Y-63200000D02*
X119500000Y-63200000D01*
X196690000Y-60820000D02*
X196690000Y-60664000D01*
X196690000Y-63136000D02*
X196690000Y-62980000D01*
X194088870Y-60820163D02*
G75*
G02X196170961Y-60820000I1041130J-1079837D01*
G01*
X194088870Y-62979837D02*
G75*
G03X196170961Y-62980000I1041130J1079837D01*
G01*
X193457665Y-60821392D02*
G75*
G02X196690000Y-60664484I1672335J-1078608D01*
G01*
X193457665Y-62978608D02*
G75*
G03X196690000Y-63135516I1672335J1078608D01*
G01*
X106604775Y-62525000D02*
X106604775Y-62025000D01*
X106854775Y-62275000D02*
X106354775Y-62275000D01*
X101449000Y-61084000D02*
X101449000Y-60516000D01*
X101489000Y-61318000D02*
X101489000Y-60282000D01*
X101529000Y-61477000D02*
X101529000Y-60123000D01*
X101569000Y-61605000D02*
X101569000Y-59995000D01*
X101609000Y-61715000D02*
X101609000Y-59885000D01*
X101649000Y-61811000D02*
X101649000Y-59789000D01*
X101689000Y-61898000D02*
X101689000Y-59702000D01*
X101729000Y-61978000D02*
X101729000Y-59622000D01*
X101769000Y-59760000D02*
X101769000Y-59549000D01*
X101769000Y-62051000D02*
X101769000Y-61840000D01*
X101809000Y-59760000D02*
X101809000Y-59481000D01*
X101809000Y-62119000D02*
X101809000Y-61840000D01*
X101849000Y-59760000D02*
X101849000Y-59417000D01*
X101849000Y-62183000D02*
X101849000Y-61840000D01*
X101889000Y-59760000D02*
X101889000Y-59357000D01*
X101889000Y-62243000D02*
X101889000Y-61840000D01*
X101929000Y-59760000D02*
X101929000Y-59300000D01*
X101929000Y-62300000D02*
X101929000Y-61840000D01*
X101969000Y-59760000D02*
X101969000Y-59246000D01*
X101969000Y-62354000D02*
X101969000Y-61840000D01*
X102009000Y-59760000D02*
X102009000Y-59195000D01*
X102009000Y-62405000D02*
X102009000Y-61840000D01*
X102049000Y-59760000D02*
X102049000Y-59147000D01*
X102049000Y-62453000D02*
X102049000Y-61840000D01*
X102089000Y-59760000D02*
X102089000Y-59101000D01*
X102089000Y-62499000D02*
X102089000Y-61840000D01*
X102129000Y-59760000D02*
X102129000Y-59057000D01*
X102129000Y-62543000D02*
X102129000Y-61840000D01*
X102169000Y-59760000D02*
X102169000Y-59015000D01*
X102169000Y-62585000D02*
X102169000Y-61840000D01*
X102209000Y-59760000D02*
X102209000Y-58974000D01*
X102209000Y-62626000D02*
X102209000Y-61840000D01*
X102249000Y-59760000D02*
X102249000Y-58936000D01*
X102249000Y-62664000D02*
X102249000Y-61840000D01*
X102289000Y-59760000D02*
X102289000Y-58899000D01*
X102289000Y-62701000D02*
X102289000Y-61840000D01*
X102329000Y-59760000D02*
X102329000Y-58863000D01*
X102329000Y-62737000D02*
X102329000Y-61840000D01*
X102369000Y-59760000D02*
X102369000Y-58829000D01*
X102369000Y-62771000D02*
X102369000Y-61840000D01*
X102409000Y-59760000D02*
X102409000Y-58796000D01*
X102409000Y-62804000D02*
X102409000Y-61840000D01*
X102449000Y-59760000D02*
X102449000Y-58765000D01*
X102449000Y-62835000D02*
X102449000Y-61840000D01*
X102489000Y-59760000D02*
X102489000Y-58735000D01*
X102489000Y-62865000D02*
X102489000Y-61840000D01*
X102529000Y-59760000D02*
X102529000Y-58705000D01*
X102529000Y-62895000D02*
X102529000Y-61840000D01*
X102569000Y-59760000D02*
X102569000Y-58678000D01*
X102569000Y-62922000D02*
X102569000Y-61840000D01*
X102609000Y-59760000D02*
X102609000Y-58651000D01*
X102609000Y-62949000D02*
X102609000Y-61840000D01*
X102649000Y-59760000D02*
X102649000Y-58625000D01*
X102649000Y-62975000D02*
X102649000Y-61840000D01*
X102689000Y-59760000D02*
X102689000Y-58600000D01*
X102689000Y-63000000D02*
X102689000Y-61840000D01*
X102729000Y-59760000D02*
X102729000Y-58576000D01*
X102729000Y-63024000D02*
X102729000Y-61840000D01*
X102769000Y-59760000D02*
X102769000Y-58553000D01*
X102769000Y-63047000D02*
X102769000Y-61840000D01*
X102809000Y-59760000D02*
X102809000Y-58532000D01*
X102809000Y-63068000D02*
X102809000Y-61840000D01*
X102849000Y-59760000D02*
X102849000Y-58510000D01*
X102849000Y-63090000D02*
X102849000Y-61840000D01*
X102889000Y-59760000D02*
X102889000Y-58490000D01*
X102889000Y-63110000D02*
X102889000Y-61840000D01*
X102929000Y-59760000D02*
X102929000Y-58471000D01*
X102929000Y-63129000D02*
X102929000Y-61840000D01*
X102969000Y-59760000D02*
X102969000Y-58452000D01*
X102969000Y-63148000D02*
X102969000Y-61840000D01*
X103009000Y-59760000D02*
X103009000Y-58435000D01*
X103009000Y-63165000D02*
X103009000Y-61840000D01*
X103049000Y-59760000D02*
X103049000Y-58418000D01*
X103049000Y-63182000D02*
X103049000Y-61840000D01*
X103089000Y-59760000D02*
X103089000Y-58402000D01*
X103089000Y-63198000D02*
X103089000Y-61840000D01*
X103129000Y-59760000D02*
X103129000Y-58386000D01*
X103129000Y-63214000D02*
X103129000Y-61840000D01*
X103169000Y-59760000D02*
X103169000Y-58372000D01*
X103169000Y-63228000D02*
X103169000Y-61840000D01*
X103209000Y-59760000D02*
X103209000Y-58358000D01*
X103209000Y-63242000D02*
X103209000Y-61840000D01*
X103249000Y-59760000D02*
X103249000Y-58345000D01*
X103249000Y-63255000D02*
X103249000Y-61840000D01*
X103289000Y-59760000D02*
X103289000Y-58332000D01*
X103289000Y-63268000D02*
X103289000Y-61840000D01*
X103329000Y-59760000D02*
X103329000Y-58320000D01*
X103329000Y-63280000D02*
X103329000Y-61840000D01*
X103370000Y-59760000D02*
X103370000Y-58309000D01*
X103370000Y-63291000D02*
X103370000Y-61840000D01*
X103410000Y-59760000D02*
X103410000Y-58299000D01*
X103410000Y-63301000D02*
X103410000Y-61840000D01*
X103450000Y-59760000D02*
X103450000Y-58289000D01*
X103450000Y-63311000D02*
X103450000Y-61840000D01*
X103490000Y-59760000D02*
X103490000Y-58280000D01*
X103490000Y-63320000D02*
X103490000Y-61840000D01*
X103530000Y-59760000D02*
X103530000Y-58272000D01*
X103530000Y-63328000D02*
X103530000Y-61840000D01*
X103570000Y-59760000D02*
X103570000Y-58264000D01*
X103570000Y-63336000D02*
X103570000Y-61840000D01*
X103610000Y-59760000D02*
X103610000Y-58257000D01*
X103610000Y-63343000D02*
X103610000Y-61840000D01*
X103650000Y-59760000D02*
X103650000Y-58250000D01*
X103650000Y-63350000D02*
X103650000Y-61840000D01*
X103690000Y-59760000D02*
X103690000Y-58244000D01*
X103690000Y-63356000D02*
X103690000Y-61840000D01*
X103730000Y-59760000D02*
X103730000Y-58239000D01*
X103730000Y-63361000D02*
X103730000Y-61840000D01*
X103770000Y-59760000D02*
X103770000Y-58235000D01*
X103770000Y-63365000D02*
X103770000Y-61840000D01*
X103810000Y-59760000D02*
X103810000Y-58231000D01*
X103810000Y-63369000D02*
X103810000Y-61840000D01*
X103850000Y-63373000D02*
X103850000Y-58227000D01*
X103890000Y-63376000D02*
X103890000Y-58224000D01*
X103930000Y-63378000D02*
X103930000Y-58222000D01*
X103970000Y-63379000D02*
X103970000Y-58221000D01*
X104010000Y-63380000D02*
X104010000Y-58220000D01*
X104050000Y-63380000D02*
X104050000Y-58220000D01*
X106670000Y-60800000D02*
G75*
G03X106670000Y-60800000I-2620000J0D01*
G01*
X141070000Y-142230000D02*
X141070000Y-143500000D01*
X139800000Y-142230000D02*
X141070000Y-142230000D01*
X108940000Y-144542929D02*
X108940000Y-144997071D01*
X109700000Y-144542929D02*
X109700000Y-144997071D01*
X108940000Y-147082929D02*
X108940000Y-147480000D01*
X109700000Y-147082929D02*
X109700000Y-147480000D01*
X108940000Y-156140000D02*
X108940000Y-150140000D01*
X109700000Y-156140000D02*
X108940000Y-156140000D01*
X109700000Y-150140000D02*
X109700000Y-156140000D01*
X110590000Y-147480000D02*
X110590000Y-150140000D01*
X111480000Y-144542929D02*
X111480000Y-144997071D01*
X112240000Y-144542929D02*
X112240000Y-144997071D01*
X111480000Y-147082929D02*
X111480000Y-147480000D01*
X112240000Y-147082929D02*
X112240000Y-147480000D01*
X111480000Y-156140000D02*
X111480000Y-150140000D01*
X112240000Y-156140000D02*
X111480000Y-156140000D01*
X112240000Y-150140000D02*
X112240000Y-156140000D01*
X113130000Y-147480000D02*
X113130000Y-150140000D01*
X114020000Y-144542929D02*
X114020000Y-144997071D01*
X114780000Y-144542929D02*
X114780000Y-144997071D01*
X114020000Y-147082929D02*
X114020000Y-147480000D01*
X114780000Y-147082929D02*
X114780000Y-147480000D01*
X114020000Y-156140000D02*
X114020000Y-150140000D01*
X114780000Y-156140000D02*
X114020000Y-156140000D01*
X114780000Y-150140000D02*
X114780000Y-156140000D01*
X115670000Y-147480000D02*
X115670000Y-150140000D01*
X116560000Y-144542929D02*
X116560000Y-144997071D01*
X117320000Y-144542929D02*
X117320000Y-144997071D01*
X116560000Y-147082929D02*
X116560000Y-147480000D01*
X117320000Y-147082929D02*
X117320000Y-147480000D01*
X116560000Y-156140000D02*
X116560000Y-150140000D01*
X117320000Y-156140000D02*
X116560000Y-156140000D01*
X117320000Y-150140000D02*
X117320000Y-156140000D01*
X118210000Y-147480000D02*
X118210000Y-150140000D01*
X119100000Y-144542929D02*
X119100000Y-144997071D01*
X119860000Y-144542929D02*
X119860000Y-144997071D01*
X119100000Y-147082929D02*
X119100000Y-147480000D01*
X119860000Y-147082929D02*
X119860000Y-147480000D01*
X119100000Y-156140000D02*
X119100000Y-150140000D01*
X119860000Y-156140000D02*
X119100000Y-156140000D01*
X119860000Y-150140000D02*
X119860000Y-156140000D01*
X120750000Y-147480000D02*
X120750000Y-150140000D01*
X121640000Y-144542929D02*
X121640000Y-144997071D01*
X122400000Y-144542929D02*
X122400000Y-144997071D01*
X121640000Y-147082929D02*
X121640000Y-147480000D01*
X122400000Y-147082929D02*
X122400000Y-147480000D01*
X121640000Y-156140000D02*
X121640000Y-150140000D01*
X122400000Y-156140000D02*
X121640000Y-156140000D01*
X122400000Y-150140000D02*
X122400000Y-156140000D01*
X123290000Y-147480000D02*
X123290000Y-150140000D01*
X124180000Y-144542929D02*
X124180000Y-144997071D01*
X124940000Y-144542929D02*
X124940000Y-144997071D01*
X124180000Y-147082929D02*
X124180000Y-147480000D01*
X124940000Y-147082929D02*
X124940000Y-147480000D01*
X124180000Y-156140000D02*
X124180000Y-150140000D01*
X124940000Y-156140000D02*
X124180000Y-156140000D01*
X124940000Y-150140000D02*
X124940000Y-156140000D01*
X125830000Y-147480000D02*
X125830000Y-150140000D01*
X126720000Y-144542929D02*
X126720000Y-144997071D01*
X127480000Y-144542929D02*
X127480000Y-144997071D01*
X126720000Y-147082929D02*
X126720000Y-147480000D01*
X127480000Y-147082929D02*
X127480000Y-147480000D01*
X126720000Y-156140000D02*
X126720000Y-150140000D01*
X127480000Y-156140000D02*
X126720000Y-156140000D01*
X127480000Y-150140000D02*
X127480000Y-156140000D01*
X128370000Y-147480000D02*
X128370000Y-150140000D01*
X129260000Y-144542929D02*
X129260000Y-144997071D01*
X130020000Y-144542929D02*
X130020000Y-144997071D01*
X129260000Y-147082929D02*
X129260000Y-147480000D01*
X130020000Y-147082929D02*
X130020000Y-147480000D01*
X129260000Y-156140000D02*
X129260000Y-150140000D01*
X130020000Y-156140000D02*
X129260000Y-156140000D01*
X130020000Y-150140000D02*
X130020000Y-156140000D01*
X130910000Y-147480000D02*
X130910000Y-150140000D01*
X131800000Y-144542929D02*
X131800000Y-144997071D01*
X132560000Y-144542929D02*
X132560000Y-144997071D01*
X131800000Y-147082929D02*
X131800000Y-147480000D01*
X132560000Y-147082929D02*
X132560000Y-147480000D01*
X131800000Y-156140000D02*
X131800000Y-150140000D01*
X132560000Y-156140000D02*
X131800000Y-156140000D01*
X132560000Y-150140000D02*
X132560000Y-156140000D01*
X133450000Y-147480000D02*
X133450000Y-150140000D01*
X134340000Y-144542929D02*
X134340000Y-144997071D01*
X135100000Y-144542929D02*
X135100000Y-144997071D01*
X134340000Y-147082929D02*
X134340000Y-147480000D01*
X135100000Y-147082929D02*
X135100000Y-147480000D01*
X134340000Y-156140000D02*
X134340000Y-150140000D01*
X135100000Y-156140000D02*
X134340000Y-156140000D01*
X135100000Y-150140000D02*
X135100000Y-156140000D01*
X135990000Y-147480000D02*
X135990000Y-150140000D01*
X136880000Y-144542929D02*
X136880000Y-144997071D01*
X137640000Y-144542929D02*
X137640000Y-144997071D01*
X136880000Y-147082929D02*
X136880000Y-147480000D01*
X137640000Y-147082929D02*
X137640000Y-147480000D01*
X136880000Y-156140000D02*
X136880000Y-150140000D01*
X137640000Y-156140000D02*
X136880000Y-156140000D01*
X137640000Y-150140000D02*
X137640000Y-156140000D01*
X138530000Y-147480000D02*
X138530000Y-150140000D01*
X139420000Y-144610000D02*
X139420000Y-144997071D01*
X140180000Y-144610000D02*
X140180000Y-144997071D01*
X139420000Y-147082929D02*
X139420000Y-147480000D01*
X140180000Y-147082929D02*
X140180000Y-147480000D01*
X139520000Y-150140000D02*
X139520000Y-156140000D01*
X139640000Y-150140000D02*
X139640000Y-156140000D01*
X139760000Y-150140000D02*
X139760000Y-156140000D01*
X139880000Y-150140000D02*
X139880000Y-156140000D01*
X140000000Y-150140000D02*
X140000000Y-156140000D01*
X140120000Y-150140000D02*
X140120000Y-156140000D01*
X139420000Y-156140000D02*
X139420000Y-150140000D01*
X140180000Y-156140000D02*
X139420000Y-156140000D01*
X140180000Y-150140000D02*
X140180000Y-156140000D01*
X141130000Y-150140000D02*
X141130000Y-147480000D01*
X107990000Y-150140000D02*
X141130000Y-150140000D01*
X107990000Y-147480000D02*
X107990000Y-150140000D01*
X141130000Y-147480000D02*
X107990000Y-147480000D01*
X179400000Y-130200000D02*
X186400000Y-130200000D01*
X179400000Y-123200000D02*
X179400000Y-130200000D01*
X186400000Y-130200000D02*
X186400000Y-123200000D01*
X179400000Y-123200000D02*
X186400000Y-123200000D01*
X156410000Y-93230000D02*
X156410000Y-111130000D01*
X197290000Y-93230000D02*
X156410000Y-93230000D01*
X197290000Y-111130000D02*
X197290000Y-93230000D01*
X156410000Y-111130000D02*
X197290000Y-111130000D01*
X156470000Y-95720000D02*
X156470000Y-101180000D01*
X197230000Y-95720000D02*
X156470000Y-95720000D01*
X197230000Y-108640000D02*
X197230000Y-95720000D01*
X156470000Y-108640000D02*
X197230000Y-108640000D01*
X156470000Y-103180000D02*
X156470000Y-108640000D01*
X156470000Y-101180000D02*
G75*
G02X156470000Y-103180000I0J-1000000D01*
G01*
X163310000Y-130930000D02*
X163310000Y-148830000D01*
X199110000Y-130930000D02*
X163310000Y-130930000D01*
X199110000Y-148830000D02*
X199110000Y-130930000D01*
X163310000Y-148830000D02*
X199110000Y-148830000D01*
X163370000Y-133420000D02*
X163370000Y-138880000D01*
X199050000Y-133420000D02*
X163370000Y-133420000D01*
X199050000Y-146340000D02*
X199050000Y-133420000D01*
X163370000Y-146340000D02*
X199050000Y-146340000D01*
X163370000Y-140880000D02*
X163370000Y-146340000D01*
X163370000Y-138880000D02*
G75*
G02X163370000Y-140880000I0J-1000000D01*
G01*
X197550000Y-66910000D02*
X187270000Y-66910000D01*
X197550000Y-92550000D02*
X197550000Y-66910000D01*
X187270000Y-92550000D02*
X197550000Y-92550000D01*
X187270000Y-66910000D02*
X187270000Y-92550000D01*
X195060000Y-66970000D02*
X193410000Y-66970000D01*
X195060000Y-92490000D02*
X195060000Y-66970000D01*
X189760000Y-92490000D02*
X195060000Y-92490000D01*
X189760000Y-66970000D02*
X189760000Y-92490000D01*
X191410000Y-66970000D02*
X189760000Y-66970000D01*
X193410000Y-66970000D02*
G75*
G02X191410000Y-66970000I-1000000J0D01*
G01*
X186150000Y-66910000D02*
X175870000Y-66910000D01*
X186150000Y-92550000D02*
X186150000Y-66910000D01*
X175870000Y-92550000D02*
X186150000Y-92550000D01*
X175870000Y-66910000D02*
X175870000Y-92550000D01*
X183660000Y-66970000D02*
X182010000Y-66970000D01*
X183660000Y-92490000D02*
X183660000Y-66970000D01*
X178360000Y-92490000D02*
X183660000Y-92490000D01*
X178360000Y-66970000D02*
X178360000Y-92490000D01*
X180010000Y-66970000D02*
X178360000Y-66970000D01*
X182010000Y-66970000D02*
G75*
G02X180010000Y-66970000I-1000000J0D01*
G01*
X130150000Y-120510000D02*
X119870000Y-120510000D01*
X130150000Y-141070000D02*
X130150000Y-120510000D01*
X119870000Y-141070000D02*
X130150000Y-141070000D01*
X119870000Y-120510000D02*
X119870000Y-141070000D01*
X127660000Y-120570000D02*
X126010000Y-120570000D01*
X127660000Y-141010000D02*
X127660000Y-120570000D01*
X122360000Y-141010000D02*
X127660000Y-141010000D01*
X122360000Y-120570000D02*
X122360000Y-141010000D01*
X124010000Y-120570000D02*
X122360000Y-120570000D01*
X126010000Y-120570000D02*
G75*
G02X124010000Y-120570000I-1000000J0D01*
G01*
X174750000Y-66910000D02*
X164470000Y-66910000D01*
X174750000Y-92550000D02*
X174750000Y-66910000D01*
X164470000Y-92550000D02*
X174750000Y-92550000D01*
X164470000Y-66910000D02*
X164470000Y-92550000D01*
X172260000Y-66970000D02*
X170610000Y-66970000D01*
X172260000Y-92490000D02*
X172260000Y-66970000D01*
X166960000Y-92490000D02*
X172260000Y-92490000D01*
X166960000Y-66970000D02*
X166960000Y-92490000D01*
X168610000Y-66970000D02*
X166960000Y-66970000D01*
X170610000Y-66970000D02*
G75*
G02X168610000Y-66970000I-1000000J0D01*
G01*
X163750000Y-67510000D02*
X153470000Y-67510000D01*
X163750000Y-88070000D02*
X163750000Y-67510000D01*
X153470000Y-88070000D02*
X163750000Y-88070000D01*
X153470000Y-67510000D02*
X153470000Y-88070000D01*
X161260000Y-67570000D02*
X159610000Y-67570000D01*
X161260000Y-88010000D02*
X161260000Y-67570000D01*
X155960000Y-88010000D02*
X161260000Y-88010000D01*
X155960000Y-67570000D02*
X155960000Y-88010000D01*
X157610000Y-67570000D02*
X155960000Y-67570000D01*
X159610000Y-67570000D02*
G75*
G02X157610000Y-67570000I-1000000J0D01*
G01*
X119250000Y-123210000D02*
X108970000Y-123210000D01*
X119250000Y-141230000D02*
X119250000Y-123210000D01*
X108970000Y-141230000D02*
X119250000Y-141230000D01*
X108970000Y-123210000D02*
X108970000Y-141230000D01*
X116760000Y-123270000D02*
X115110000Y-123270000D01*
X116760000Y-141170000D02*
X116760000Y-123270000D01*
X111460000Y-141170000D02*
X116760000Y-141170000D01*
X111460000Y-123270000D02*
X111460000Y-141170000D01*
X113110000Y-123270000D02*
X111460000Y-123270000D01*
X115110000Y-123270000D02*
G75*
G02X113110000Y-123270000I-1000000J0D01*
G01*
X152550000Y-67510000D02*
X142270000Y-67510000D01*
X152550000Y-85530000D02*
X152550000Y-67510000D01*
X142270000Y-85530000D02*
X152550000Y-85530000D01*
X142270000Y-67510000D02*
X142270000Y-85530000D01*
X150060000Y-67570000D02*
X148410000Y-67570000D01*
X150060000Y-85470000D02*
X150060000Y-67570000D01*
X144760000Y-85470000D02*
X150060000Y-85470000D01*
X144760000Y-67570000D02*
X144760000Y-85470000D01*
X146410000Y-67570000D02*
X144760000Y-67570000D01*
X148410000Y-67570000D02*
G75*
G02X146410000Y-67570000I-1000000J0D01*
G01*
X152550000Y-89510000D02*
X142270000Y-89510000D01*
X152550000Y-107530000D02*
X152550000Y-89510000D01*
X142270000Y-107530000D02*
X152550000Y-107530000D01*
X142270000Y-89510000D02*
X142270000Y-107530000D01*
X150060000Y-89570000D02*
X148410000Y-89570000D01*
X150060000Y-107470000D02*
X150060000Y-89570000D01*
X144760000Y-107470000D02*
X150060000Y-107470000D01*
X144760000Y-89570000D02*
X144760000Y-107470000D01*
X146410000Y-89570000D02*
X144760000Y-89570000D01*
X148410000Y-89570000D02*
G75*
G02X146410000Y-89570000I-1000000J0D01*
G01*
X171910000Y-112250000D02*
X171910000Y-122530000D01*
X189930000Y-112250000D02*
X171910000Y-112250000D01*
X189930000Y-122530000D02*
X189930000Y-112250000D01*
X171910000Y-122530000D02*
X189930000Y-122530000D01*
X171970000Y-114740000D02*
X171970000Y-116390000D01*
X189870000Y-114740000D02*
X171970000Y-114740000D01*
X189870000Y-120040000D02*
X189870000Y-114740000D01*
X171970000Y-120040000D02*
X189870000Y-120040000D01*
X171970000Y-118390000D02*
X171970000Y-120040000D01*
X171970000Y-116390000D02*
G75*
G02X171970000Y-118390000I0J-1000000D01*
G01*
X152450000Y-128110000D02*
X142170000Y-128110000D01*
X152450000Y-148670000D02*
X152450000Y-128110000D01*
X142170000Y-148670000D02*
X152450000Y-148670000D01*
X142170000Y-128110000D02*
X142170000Y-148670000D01*
X149960000Y-128170000D02*
X148310000Y-128170000D01*
X149960000Y-148610000D02*
X149960000Y-128170000D01*
X144660000Y-148610000D02*
X149960000Y-148610000D01*
X144660000Y-128170000D02*
X144660000Y-148610000D01*
X146310000Y-128170000D02*
X144660000Y-128170000D01*
X148310000Y-128170000D02*
G75*
G02X146310000Y-128170000I-1000000J0D01*
G01*
X140870000Y-124875000D02*
X140870000Y-134645000D01*
X131100000Y-124875000D02*
X131100000Y-134645000D01*
X131100000Y-134645000D02*
X140870000Y-134645000D01*
X131100000Y-124875000D02*
X140870000Y-124875000D01*
X162770000Y-138975000D02*
X162770000Y-148745000D01*
X153000000Y-138975000D02*
X153000000Y-148745000D01*
X153000000Y-148745000D02*
X162770000Y-148745000D01*
X153000000Y-138975000D02*
X162770000Y-138975000D01*
X162770000Y-128675000D02*
X162770000Y-138445000D01*
X153000000Y-128675000D02*
X153000000Y-138445000D01*
X153000000Y-138445000D02*
X162770000Y-138445000D01*
X153000000Y-128675000D02*
X162770000Y-128675000D01*
X122800000Y-77670000D02*
X120000000Y-77670000D01*
X122800000Y-88000000D02*
X122800000Y-74960000D01*
X120000000Y-88000000D02*
X122800000Y-88000000D01*
X120000000Y-74960000D02*
X120000000Y-88000000D01*
X122800000Y-74960000D02*
X120000000Y-74960000D01*
X121300000Y-108480000D02*
X121300000Y-109250000D01*
X121300000Y-116560000D02*
X121300000Y-115790000D01*
X119930000Y-109250000D02*
X119930000Y-115790000D01*
X122670000Y-109250000D02*
X119930000Y-109250000D01*
X122670000Y-115790000D02*
X122670000Y-109250000D01*
X119930000Y-115790000D02*
X122670000Y-115790000D01*
X153920000Y-122500000D02*
X153150000Y-122500000D01*
X145840000Y-122500000D02*
X146610000Y-122500000D01*
X153150000Y-121130000D02*
X146610000Y-121130000D01*
X153150000Y-123870000D02*
X153150000Y-121130000D01*
X146610000Y-123870000D02*
X153150000Y-123870000D01*
X146610000Y-121130000D02*
X146610000Y-123870000D01*
X141020000Y-122500000D02*
X140250000Y-122500000D01*
X132940000Y-122500000D02*
X133710000Y-122500000D01*
X140250000Y-121130000D02*
X133710000Y-121130000D01*
X140250000Y-123870000D02*
X140250000Y-121130000D01*
X133710000Y-123870000D02*
X140250000Y-123870000D01*
X133710000Y-121130000D02*
X133710000Y-123870000D01*
X165420000Y-117400000D02*
X164650000Y-117400000D01*
X157340000Y-117400000D02*
X158110000Y-117400000D01*
X164650000Y-116030000D02*
X158110000Y-116030000D01*
X164650000Y-118770000D02*
X164650000Y-116030000D01*
X158110000Y-118770000D02*
X164650000Y-118770000D01*
X158110000Y-116030000D02*
X158110000Y-118770000D01*
X165420000Y-114000000D02*
X164650000Y-114000000D01*
X157340000Y-114000000D02*
X158110000Y-114000000D01*
X164650000Y-112630000D02*
X158110000Y-112630000D01*
X164650000Y-115370000D02*
X164650000Y-112630000D01*
X158110000Y-115370000D02*
X164650000Y-115370000D01*
X158110000Y-112630000D02*
X158110000Y-115370000D01*
X152720000Y-114000000D02*
X151950000Y-114000000D01*
X144640000Y-114000000D02*
X145410000Y-114000000D01*
X151950000Y-112630000D02*
X145410000Y-112630000D01*
X151950000Y-115370000D02*
X151950000Y-112630000D01*
X145410000Y-115370000D02*
X151950000Y-115370000D01*
X145410000Y-112630000D02*
X145410000Y-115370000D01*
X152720000Y-117400000D02*
X151950000Y-117400000D01*
X144640000Y-117400000D02*
X145410000Y-117400000D01*
X151950000Y-116030000D02*
X145410000Y-116030000D01*
X151950000Y-118770000D02*
X151950000Y-116030000D01*
X145410000Y-118770000D02*
X151950000Y-118770000D01*
X145410000Y-116030000D02*
X145410000Y-118770000D01*
X197320000Y-125600000D02*
X196550000Y-125600000D01*
X189240000Y-125600000D02*
X190010000Y-125600000D01*
X196550000Y-124230000D02*
X190010000Y-124230000D01*
X196550000Y-126970000D02*
X196550000Y-124230000D01*
X190010000Y-126970000D02*
X196550000Y-126970000D01*
X190010000Y-124230000D02*
X190010000Y-126970000D01*
X197320000Y-128900000D02*
X196550000Y-128900000D01*
X189240000Y-128900000D02*
X190010000Y-128900000D01*
X196550000Y-127530000D02*
X190010000Y-127530000D01*
X196550000Y-130270000D02*
X196550000Y-127530000D01*
X190010000Y-130270000D02*
X196550000Y-130270000D01*
X190010000Y-127530000D02*
X190010000Y-130270000D01*
X163120000Y-126100000D02*
X162350000Y-126100000D01*
X155040000Y-126100000D02*
X155810000Y-126100000D01*
X162350000Y-124730000D02*
X155810000Y-124730000D01*
X162350000Y-127470000D02*
X162350000Y-124730000D01*
X155810000Y-127470000D02*
X162350000Y-127470000D01*
X155810000Y-124730000D02*
X155810000Y-127470000D01*
X175920000Y-126100000D02*
X175150000Y-126100000D01*
X167840000Y-126100000D02*
X168610000Y-126100000D01*
X175150000Y-124730000D02*
X168610000Y-124730000D01*
X175150000Y-127470000D02*
X175150000Y-124730000D01*
X168610000Y-127470000D02*
X175150000Y-127470000D01*
X168610000Y-124730000D02*
X168610000Y-127470000D01*
X166720000Y-122500000D02*
X165950000Y-122500000D01*
X158640000Y-122500000D02*
X159410000Y-122500000D01*
X165950000Y-121130000D02*
X159410000Y-121130000D01*
X165950000Y-123870000D02*
X165950000Y-121130000D01*
X159410000Y-123870000D02*
X165950000Y-123870000D01*
X159410000Y-121130000D02*
X159410000Y-123870000D01*
X106770000Y-141770000D02*
X105500000Y-141770000D01*
X106770000Y-140500000D02*
X106770000Y-141770000D01*
X104457071Y-127420000D02*
X104060000Y-127420000D01*
X104457071Y-128180000D02*
X104060000Y-128180000D01*
X95400000Y-127420000D02*
X101400000Y-127420000D01*
X95400000Y-128180000D02*
X95400000Y-127420000D01*
X101400000Y-128180000D02*
X95400000Y-128180000D01*
X104060000Y-129070000D02*
X101400000Y-129070000D01*
X104457071Y-129960000D02*
X104060000Y-129960000D01*
X104457071Y-130720000D02*
X104060000Y-130720000D01*
X95400000Y-129960000D02*
X101400000Y-129960000D01*
X95400000Y-130720000D02*
X95400000Y-129960000D01*
X101400000Y-130720000D02*
X95400000Y-130720000D01*
X104060000Y-131610000D02*
X101400000Y-131610000D01*
X104457071Y-132500000D02*
X104060000Y-132500000D01*
X104457071Y-133260000D02*
X104060000Y-133260000D01*
X95400000Y-132500000D02*
X101400000Y-132500000D01*
X95400000Y-133260000D02*
X95400000Y-132500000D01*
X101400000Y-133260000D02*
X95400000Y-133260000D01*
X104060000Y-134150000D02*
X101400000Y-134150000D01*
X104457071Y-135040000D02*
X104060000Y-135040000D01*
X104457071Y-135800000D02*
X104060000Y-135800000D01*
X95400000Y-135040000D02*
X101400000Y-135040000D01*
X95400000Y-135800000D02*
X95400000Y-135040000D01*
X101400000Y-135800000D02*
X95400000Y-135800000D01*
X104060000Y-136690000D02*
X101400000Y-136690000D01*
X104457071Y-137580000D02*
X104060000Y-137580000D01*
X104457071Y-138340000D02*
X104060000Y-138340000D01*
X95400000Y-137580000D02*
X101400000Y-137580000D01*
X95400000Y-138340000D02*
X95400000Y-137580000D01*
X101400000Y-138340000D02*
X95400000Y-138340000D01*
X104060000Y-139230000D02*
X101400000Y-139230000D01*
X104390000Y-140120000D02*
X104060000Y-140120000D01*
X104390000Y-140880000D02*
X104060000Y-140880000D01*
X101400000Y-140220000D02*
X95400000Y-140220000D01*
X101400000Y-140340000D02*
X95400000Y-140340000D01*
X101400000Y-140460000D02*
X95400000Y-140460000D01*
X101400000Y-140580000D02*
X95400000Y-140580000D01*
X101400000Y-140700000D02*
X95400000Y-140700000D01*
X101400000Y-140820000D02*
X95400000Y-140820000D01*
X95400000Y-140120000D02*
X101400000Y-140120000D01*
X95400000Y-140880000D02*
X95400000Y-140120000D01*
X101400000Y-140880000D02*
X95400000Y-140880000D01*
X101400000Y-141830000D02*
X104060000Y-141830000D01*
X101400000Y-126470000D02*
X101400000Y-141830000D01*
X104060000Y-126470000D02*
X101400000Y-126470000D01*
X104060000Y-141830000D02*
X104060000Y-126470000D01*
X124730000Y-63770000D02*
X124730000Y-62500000D01*
X126000000Y-63770000D02*
X124730000Y-63770000D01*
X174640000Y-61457071D02*
X174640000Y-61002929D01*
X173880000Y-61457071D02*
X173880000Y-61002929D01*
X174640000Y-58917071D02*
X174640000Y-58520000D01*
X173880000Y-58917071D02*
X173880000Y-58520000D01*
X174640000Y-49860000D02*
X174640000Y-55860000D01*
X173880000Y-49860000D02*
X174640000Y-49860000D01*
X173880000Y-55860000D02*
X173880000Y-49860000D01*
X172990000Y-58520000D02*
X172990000Y-55860000D01*
X172100000Y-61457071D02*
X172100000Y-61002929D01*
X171340000Y-61457071D02*
X171340000Y-61002929D01*
X172100000Y-58917071D02*
X172100000Y-58520000D01*
X171340000Y-58917071D02*
X171340000Y-58520000D01*
X172100000Y-49860000D02*
X172100000Y-55860000D01*
X171340000Y-49860000D02*
X172100000Y-49860000D01*
X171340000Y-55860000D02*
X171340000Y-49860000D01*
X170450000Y-58520000D02*
X170450000Y-55860000D01*
X169560000Y-61457071D02*
X169560000Y-61002929D01*
X168800000Y-61457071D02*
X168800000Y-61002929D01*
X169560000Y-58917071D02*
X169560000Y-58520000D01*
X168800000Y-58917071D02*
X168800000Y-58520000D01*
X169560000Y-49860000D02*
X169560000Y-55860000D01*
X168800000Y-49860000D02*
X169560000Y-49860000D01*
X168800000Y-55860000D02*
X168800000Y-49860000D01*
X167910000Y-58520000D02*
X167910000Y-55860000D01*
X167020000Y-61457071D02*
X167020000Y-61002929D01*
X166260000Y-61457071D02*
X166260000Y-61002929D01*
X167020000Y-58917071D02*
X167020000Y-58520000D01*
X166260000Y-58917071D02*
X166260000Y-58520000D01*
X167020000Y-49860000D02*
X167020000Y-55860000D01*
X166260000Y-49860000D02*
X167020000Y-49860000D01*
X166260000Y-55860000D02*
X166260000Y-49860000D01*
X165370000Y-58520000D02*
X165370000Y-55860000D01*
X164480000Y-61457071D02*
X164480000Y-61002929D01*
X163720000Y-61457071D02*
X163720000Y-61002929D01*
X164480000Y-58917071D02*
X164480000Y-58520000D01*
X163720000Y-58917071D02*
X163720000Y-58520000D01*
X164480000Y-49860000D02*
X164480000Y-55860000D01*
X163720000Y-49860000D02*
X164480000Y-49860000D01*
X163720000Y-55860000D02*
X163720000Y-49860000D01*
X162830000Y-58520000D02*
X162830000Y-55860000D01*
X161940000Y-61457071D02*
X161940000Y-61002929D01*
X161180000Y-61457071D02*
X161180000Y-61002929D01*
X161940000Y-58917071D02*
X161940000Y-58520000D01*
X161180000Y-58917071D02*
X161180000Y-58520000D01*
X161940000Y-49860000D02*
X161940000Y-55860000D01*
X161180000Y-49860000D02*
X161940000Y-49860000D01*
X161180000Y-55860000D02*
X161180000Y-49860000D01*
X160290000Y-58520000D02*
X160290000Y-55860000D01*
X159400000Y-61457071D02*
X159400000Y-61002929D01*
X158640000Y-61457071D02*
X158640000Y-61002929D01*
X159400000Y-58917071D02*
X159400000Y-58520000D01*
X158640000Y-58917071D02*
X158640000Y-58520000D01*
X159400000Y-49860000D02*
X159400000Y-55860000D01*
X158640000Y-49860000D02*
X159400000Y-49860000D01*
X158640000Y-55860000D02*
X158640000Y-49860000D01*
X157750000Y-58520000D02*
X157750000Y-55860000D01*
X156860000Y-61457071D02*
X156860000Y-61002929D01*
X156100000Y-61457071D02*
X156100000Y-61002929D01*
X156860000Y-58917071D02*
X156860000Y-58520000D01*
X156100000Y-58917071D02*
X156100000Y-58520000D01*
X156860000Y-49860000D02*
X156860000Y-55860000D01*
X156100000Y-49860000D02*
X156860000Y-49860000D01*
X156100000Y-55860000D02*
X156100000Y-49860000D01*
X155210000Y-58520000D02*
X155210000Y-55860000D01*
X154320000Y-61457071D02*
X154320000Y-61002929D01*
X153560000Y-61457071D02*
X153560000Y-61002929D01*
X154320000Y-58917071D02*
X154320000Y-58520000D01*
X153560000Y-58917071D02*
X153560000Y-58520000D01*
X154320000Y-49860000D02*
X154320000Y-55860000D01*
X153560000Y-49860000D02*
X154320000Y-49860000D01*
X153560000Y-55860000D02*
X153560000Y-49860000D01*
X152670000Y-58520000D02*
X152670000Y-55860000D01*
X151780000Y-61457071D02*
X151780000Y-61002929D01*
X151020000Y-61457071D02*
X151020000Y-61002929D01*
X151780000Y-58917071D02*
X151780000Y-58520000D01*
X151020000Y-58917071D02*
X151020000Y-58520000D01*
X151780000Y-49860000D02*
X151780000Y-55860000D01*
X151020000Y-49860000D02*
X151780000Y-49860000D01*
X151020000Y-55860000D02*
X151020000Y-49860000D01*
X150130000Y-58520000D02*
X150130000Y-55860000D01*
X149240000Y-61457071D02*
X149240000Y-61002929D01*
X148480000Y-61457071D02*
X148480000Y-61002929D01*
X149240000Y-58917071D02*
X149240000Y-58520000D01*
X148480000Y-58917071D02*
X148480000Y-58520000D01*
X149240000Y-49860000D02*
X149240000Y-55860000D01*
X148480000Y-49860000D02*
X149240000Y-49860000D01*
X148480000Y-55860000D02*
X148480000Y-49860000D01*
X147590000Y-58520000D02*
X147590000Y-55860000D01*
X146700000Y-61457071D02*
X146700000Y-61002929D01*
X145940000Y-61457071D02*
X145940000Y-61002929D01*
X146700000Y-58917071D02*
X146700000Y-58520000D01*
X145940000Y-58917071D02*
X145940000Y-58520000D01*
X146700000Y-49860000D02*
X146700000Y-55860000D01*
X145940000Y-49860000D02*
X146700000Y-49860000D01*
X145940000Y-55860000D02*
X145940000Y-49860000D01*
X145050000Y-58520000D02*
X145050000Y-55860000D01*
X144160000Y-61457071D02*
X144160000Y-61002929D01*
X143400000Y-61457071D02*
X143400000Y-61002929D01*
X144160000Y-58917071D02*
X144160000Y-58520000D01*
X143400000Y-58917071D02*
X143400000Y-58520000D01*
X144160000Y-49860000D02*
X144160000Y-55860000D01*
X143400000Y-49860000D02*
X144160000Y-49860000D01*
X143400000Y-55860000D02*
X143400000Y-49860000D01*
X142510000Y-58520000D02*
X142510000Y-55860000D01*
X141620000Y-61457071D02*
X141620000Y-61002929D01*
X140860000Y-61457071D02*
X140860000Y-61002929D01*
X141620000Y-58917071D02*
X141620000Y-58520000D01*
X140860000Y-58917071D02*
X140860000Y-58520000D01*
X141620000Y-49860000D02*
X141620000Y-55860000D01*
X140860000Y-49860000D02*
X141620000Y-49860000D01*
X140860000Y-55860000D02*
X140860000Y-49860000D01*
X139970000Y-58520000D02*
X139970000Y-55860000D01*
X139080000Y-61457071D02*
X139080000Y-61002929D01*
X138320000Y-61457071D02*
X138320000Y-61002929D01*
X139080000Y-58917071D02*
X139080000Y-58520000D01*
X138320000Y-58917071D02*
X138320000Y-58520000D01*
X139080000Y-49860000D02*
X139080000Y-55860000D01*
X138320000Y-49860000D02*
X139080000Y-49860000D01*
X138320000Y-55860000D02*
X138320000Y-49860000D01*
X137430000Y-58520000D02*
X137430000Y-55860000D01*
X136540000Y-61457071D02*
X136540000Y-61002929D01*
X135780000Y-61457071D02*
X135780000Y-61002929D01*
X136540000Y-58917071D02*
X136540000Y-58520000D01*
X135780000Y-58917071D02*
X135780000Y-58520000D01*
X136540000Y-49860000D02*
X136540000Y-55860000D01*
X135780000Y-49860000D02*
X136540000Y-49860000D01*
X135780000Y-55860000D02*
X135780000Y-49860000D01*
X134890000Y-58520000D02*
X134890000Y-55860000D01*
X134000000Y-61457071D02*
X134000000Y-61002929D01*
X133240000Y-61457071D02*
X133240000Y-61002929D01*
X134000000Y-58917071D02*
X134000000Y-58520000D01*
X133240000Y-58917071D02*
X133240000Y-58520000D01*
X134000000Y-49860000D02*
X134000000Y-55860000D01*
X133240000Y-49860000D02*
X134000000Y-49860000D01*
X133240000Y-55860000D02*
X133240000Y-49860000D01*
X132350000Y-58520000D02*
X132350000Y-55860000D01*
X131460000Y-61457071D02*
X131460000Y-61002929D01*
X130700000Y-61457071D02*
X130700000Y-61002929D01*
X131460000Y-58917071D02*
X131460000Y-58520000D01*
X130700000Y-58917071D02*
X130700000Y-58520000D01*
X131460000Y-49860000D02*
X131460000Y-55860000D01*
X130700000Y-49860000D02*
X131460000Y-49860000D01*
X130700000Y-55860000D02*
X130700000Y-49860000D01*
X129810000Y-58520000D02*
X129810000Y-55860000D01*
X128920000Y-61457071D02*
X128920000Y-61002929D01*
X128160000Y-61457071D02*
X128160000Y-61002929D01*
X128920000Y-58917071D02*
X128920000Y-58520000D01*
X128160000Y-58917071D02*
X128160000Y-58520000D01*
X128920000Y-49860000D02*
X128920000Y-55860000D01*
X128160000Y-49860000D02*
X128920000Y-49860000D01*
X128160000Y-55860000D02*
X128160000Y-49860000D01*
X127270000Y-58520000D02*
X127270000Y-55860000D01*
X126380000Y-61390000D02*
X126380000Y-61002929D01*
X125620000Y-61390000D02*
X125620000Y-61002929D01*
X126380000Y-58917071D02*
X126380000Y-58520000D01*
X125620000Y-58917071D02*
X125620000Y-58520000D01*
X126280000Y-55860000D02*
X126280000Y-49860000D01*
X126160000Y-55860000D02*
X126160000Y-49860000D01*
X126040000Y-55860000D02*
X126040000Y-49860000D01*
X125920000Y-55860000D02*
X125920000Y-49860000D01*
X125800000Y-55860000D02*
X125800000Y-49860000D01*
X125680000Y-55860000D02*
X125680000Y-49860000D01*
X126380000Y-49860000D02*
X126380000Y-55860000D01*
X125620000Y-49860000D02*
X126380000Y-49860000D01*
X125620000Y-55860000D02*
X125620000Y-49860000D01*
X124670000Y-55860000D02*
X124670000Y-58520000D01*
X175590000Y-55860000D02*
X124670000Y-55860000D01*
X175590000Y-58520000D02*
X175590000Y-55860000D01*
X124670000Y-58520000D02*
X175590000Y-58520000D01*
X155920000Y-95879000D02*
X155920000Y-94621000D01*
X154080000Y-95879000D02*
X154080000Y-94621000D01*
X184775000Y-59304775D02*
X185275000Y-59304775D01*
X185025000Y-59554775D02*
X185025000Y-59054775D01*
X186216000Y-54149000D02*
X186784000Y-54149000D01*
X185982000Y-54189000D02*
X187018000Y-54189000D01*
X185823000Y-54229000D02*
X187177000Y-54229000D01*
X185695000Y-54269000D02*
X187305000Y-54269000D01*
X185585000Y-54309000D02*
X187415000Y-54309000D01*
X185489000Y-54349000D02*
X187511000Y-54349000D01*
X185402000Y-54389000D02*
X187598000Y-54389000D01*
X185322000Y-54429000D02*
X187678000Y-54429000D01*
X187540000Y-54469000D02*
X187751000Y-54469000D01*
X185249000Y-54469000D02*
X185460000Y-54469000D01*
X187540000Y-54509000D02*
X187819000Y-54509000D01*
X185181000Y-54509000D02*
X185460000Y-54509000D01*
X187540000Y-54549000D02*
X187883000Y-54549000D01*
X185117000Y-54549000D02*
X185460000Y-54549000D01*
X187540000Y-54589000D02*
X187943000Y-54589000D01*
X185057000Y-54589000D02*
X185460000Y-54589000D01*
X187540000Y-54629000D02*
X188000000Y-54629000D01*
X185000000Y-54629000D02*
X185460000Y-54629000D01*
X187540000Y-54669000D02*
X188054000Y-54669000D01*
X184946000Y-54669000D02*
X185460000Y-54669000D01*
X187540000Y-54709000D02*
X188105000Y-54709000D01*
X184895000Y-54709000D02*
X185460000Y-54709000D01*
X187540000Y-54749000D02*
X188153000Y-54749000D01*
X184847000Y-54749000D02*
X185460000Y-54749000D01*
X187540000Y-54789000D02*
X188199000Y-54789000D01*
X184801000Y-54789000D02*
X185460000Y-54789000D01*
X187540000Y-54829000D02*
X188243000Y-54829000D01*
X184757000Y-54829000D02*
X185460000Y-54829000D01*
X187540000Y-54869000D02*
X188285000Y-54869000D01*
X184715000Y-54869000D02*
X185460000Y-54869000D01*
X187540000Y-54909000D02*
X188326000Y-54909000D01*
X184674000Y-54909000D02*
X185460000Y-54909000D01*
X187540000Y-54949000D02*
X188364000Y-54949000D01*
X184636000Y-54949000D02*
X185460000Y-54949000D01*
X187540000Y-54989000D02*
X188401000Y-54989000D01*
X184599000Y-54989000D02*
X185460000Y-54989000D01*
X187540000Y-55029000D02*
X188437000Y-55029000D01*
X184563000Y-55029000D02*
X185460000Y-55029000D01*
X187540000Y-55069000D02*
X188471000Y-55069000D01*
X184529000Y-55069000D02*
X185460000Y-55069000D01*
X187540000Y-55109000D02*
X188504000Y-55109000D01*
X184496000Y-55109000D02*
X185460000Y-55109000D01*
X187540000Y-55149000D02*
X188535000Y-55149000D01*
X184465000Y-55149000D02*
X185460000Y-55149000D01*
X187540000Y-55189000D02*
X188565000Y-55189000D01*
X184435000Y-55189000D02*
X185460000Y-55189000D01*
X187540000Y-55229000D02*
X188595000Y-55229000D01*
X184405000Y-55229000D02*
X185460000Y-55229000D01*
X187540000Y-55269000D02*
X188622000Y-55269000D01*
X184378000Y-55269000D02*
X185460000Y-55269000D01*
X187540000Y-55309000D02*
X188649000Y-55309000D01*
X184351000Y-55309000D02*
X185460000Y-55309000D01*
X187540000Y-55349000D02*
X188675000Y-55349000D01*
X184325000Y-55349000D02*
X185460000Y-55349000D01*
X187540000Y-55389000D02*
X188700000Y-55389000D01*
X184300000Y-55389000D02*
X185460000Y-55389000D01*
X187540000Y-55429000D02*
X188724000Y-55429000D01*
X184276000Y-55429000D02*
X185460000Y-55429000D01*
X187540000Y-55469000D02*
X188747000Y-55469000D01*
X184253000Y-55469000D02*
X185460000Y-55469000D01*
X187540000Y-55509000D02*
X188768000Y-55509000D01*
X184232000Y-55509000D02*
X185460000Y-55509000D01*
X187540000Y-55549000D02*
X188790000Y-55549000D01*
X184210000Y-55549000D02*
X185460000Y-55549000D01*
X187540000Y-55589000D02*
X188810000Y-55589000D01*
X184190000Y-55589000D02*
X185460000Y-55589000D01*
X187540000Y-55629000D02*
X188829000Y-55629000D01*
X184171000Y-55629000D02*
X185460000Y-55629000D01*
X187540000Y-55669000D02*
X188848000Y-55669000D01*
X184152000Y-55669000D02*
X185460000Y-55669000D01*
X187540000Y-55709000D02*
X188865000Y-55709000D01*
X184135000Y-55709000D02*
X185460000Y-55709000D01*
X187540000Y-55749000D02*
X188882000Y-55749000D01*
X184118000Y-55749000D02*
X185460000Y-55749000D01*
X187540000Y-55789000D02*
X188898000Y-55789000D01*
X184102000Y-55789000D02*
X185460000Y-55789000D01*
X187540000Y-55829000D02*
X188914000Y-55829000D01*
X184086000Y-55829000D02*
X185460000Y-55829000D01*
X187540000Y-55869000D02*
X188928000Y-55869000D01*
X184072000Y-55869000D02*
X185460000Y-55869000D01*
X187540000Y-55909000D02*
X188942000Y-55909000D01*
X184058000Y-55909000D02*
X185460000Y-55909000D01*
X187540000Y-55949000D02*
X188955000Y-55949000D01*
X184045000Y-55949000D02*
X185460000Y-55949000D01*
X187540000Y-55989000D02*
X188968000Y-55989000D01*
X184032000Y-55989000D02*
X185460000Y-55989000D01*
X187540000Y-56029000D02*
X188980000Y-56029000D01*
X184020000Y-56029000D02*
X185460000Y-56029000D01*
X187540000Y-56070000D02*
X188991000Y-56070000D01*
X184009000Y-56070000D02*
X185460000Y-56070000D01*
X187540000Y-56110000D02*
X189001000Y-56110000D01*
X183999000Y-56110000D02*
X185460000Y-56110000D01*
X187540000Y-56150000D02*
X189011000Y-56150000D01*
X183989000Y-56150000D02*
X185460000Y-56150000D01*
X187540000Y-56190000D02*
X189020000Y-56190000D01*
X183980000Y-56190000D02*
X185460000Y-56190000D01*
X187540000Y-56230000D02*
X189028000Y-56230000D01*
X183972000Y-56230000D02*
X185460000Y-56230000D01*
X187540000Y-56270000D02*
X189036000Y-56270000D01*
X183964000Y-56270000D02*
X185460000Y-56270000D01*
X187540000Y-56310000D02*
X189043000Y-56310000D01*
X183957000Y-56310000D02*
X185460000Y-56310000D01*
X187540000Y-56350000D02*
X189050000Y-56350000D01*
X183950000Y-56350000D02*
X185460000Y-56350000D01*
X187540000Y-56390000D02*
X189056000Y-56390000D01*
X183944000Y-56390000D02*
X185460000Y-56390000D01*
X187540000Y-56430000D02*
X189061000Y-56430000D01*
X183939000Y-56430000D02*
X185460000Y-56430000D01*
X187540000Y-56470000D02*
X189065000Y-56470000D01*
X183935000Y-56470000D02*
X185460000Y-56470000D01*
X187540000Y-56510000D02*
X189069000Y-56510000D01*
X183931000Y-56510000D02*
X185460000Y-56510000D01*
X183927000Y-56550000D02*
X189073000Y-56550000D01*
X183924000Y-56590000D02*
X189076000Y-56590000D01*
X183922000Y-56630000D02*
X189078000Y-56630000D01*
X183921000Y-56670000D02*
X189079000Y-56670000D01*
X183920000Y-56710000D02*
X189080000Y-56710000D01*
X183920000Y-56750000D02*
X189080000Y-56750000D01*
X189120000Y-56750000D02*
G75*
G03X189120000Y-56750000I-2620000J0D01*
G01*
X170120000Y-140179000D02*
X170120000Y-138921000D01*
X168280000Y-140179000D02*
X168280000Y-138921000D01*
X109721000Y-109920000D02*
X110979000Y-109920000D01*
X109721000Y-108080000D02*
X110979000Y-108080000D01*
X194821000Y-66320000D02*
X196079000Y-66320000D01*
X194821000Y-64480000D02*
X196079000Y-64480000D01*
X183421000Y-66320000D02*
X184679000Y-66320000D01*
X183421000Y-64480000D02*
X184679000Y-64480000D01*
X127321000Y-119820000D02*
X128579000Y-119820000D01*
X127321000Y-117980000D02*
X128579000Y-117980000D01*
X136670000Y-120455000D02*
X136670000Y-120470000D01*
X136670000Y-118330000D02*
X136670000Y-118345000D01*
X132130000Y-120455000D02*
X132130000Y-120470000D01*
X132130000Y-118330000D02*
X132130000Y-118345000D01*
X132130000Y-120470000D02*
X136670000Y-120470000D01*
X132130000Y-118330000D02*
X136670000Y-118330000D01*
X172021000Y-66420000D02*
X173279000Y-66420000D01*
X172021000Y-64580000D02*
X173279000Y-64580000D01*
X161021000Y-66820000D02*
X162279000Y-66820000D01*
X161021000Y-64980000D02*
X162279000Y-64980000D01*
X116221000Y-122520000D02*
X117479000Y-122520000D01*
X116221000Y-120680000D02*
X117479000Y-120680000D01*
X149621000Y-66820000D02*
X150879000Y-66820000D01*
X149621000Y-64980000D02*
X150879000Y-64980000D01*
X132679000Y-83680000D02*
X131421000Y-83680000D01*
X132679000Y-85520000D02*
X131421000Y-85520000D01*
X149421000Y-89020000D02*
X150679000Y-89020000D01*
X149421000Y-87180000D02*
X150679000Y-87180000D01*
X139570000Y-140455000D02*
X139570000Y-140470000D01*
X139570000Y-138330000D02*
X139570000Y-138345000D01*
X135030000Y-140455000D02*
X135030000Y-140470000D01*
X135030000Y-138330000D02*
X135030000Y-138345000D01*
X135030000Y-140470000D02*
X139570000Y-140470000D01*
X135030000Y-138330000D02*
X139570000Y-138330000D01*
X171320000Y-114979000D02*
X171320000Y-113721000D01*
X169480000Y-114979000D02*
X169480000Y-113721000D01*
X149721000Y-127420000D02*
X150979000Y-127420000D01*
X149721000Y-125580000D02*
X150979000Y-125580000D01*
X139570000Y-137555000D02*
X139570000Y-137570000D01*
X139570000Y-135430000D02*
X139570000Y-135445000D01*
X135030000Y-137555000D02*
X135030000Y-137570000D01*
X135030000Y-135430000D02*
X135030000Y-135445000D01*
X135030000Y-137570000D02*
X139570000Y-137570000D01*
X135030000Y-135430000D02*
X139570000Y-135430000D01*
D10*
X110304761Y-119933333D02*
X110352380Y-119790476D01*
X110352380Y-119552380D01*
X110304761Y-119457142D01*
X110257142Y-119409523D01*
X110161904Y-119361904D01*
X110066666Y-119361904D01*
X109971428Y-119409523D01*
X109923809Y-119457142D01*
X109876190Y-119552380D01*
X109828571Y-119742857D01*
X109780952Y-119838095D01*
X109733333Y-119885714D01*
X109638095Y-119933333D01*
X109542857Y-119933333D01*
X109447619Y-119885714D01*
X109400000Y-119838095D01*
X109352380Y-119742857D01*
X109352380Y-119504761D01*
X109400000Y-119361904D01*
X109352380Y-119028571D02*
X110352380Y-118790476D01*
X109638095Y-118600000D01*
X110352380Y-118409523D01*
X109352380Y-118171428D01*
X109352380Y-117885714D02*
X109352380Y-117266666D01*
X109733333Y-117600000D01*
X109733333Y-117457142D01*
X109780952Y-117361904D01*
X109828571Y-117314285D01*
X109923809Y-117266666D01*
X110161904Y-117266666D01*
X110257142Y-117314285D01*
X110304761Y-117361904D01*
X110352380Y-117457142D01*
X110352380Y-117742857D01*
X110304761Y-117838095D01*
X110257142Y-117885714D01*
X120066666Y-89674761D02*
X120209523Y-89722380D01*
X120447619Y-89722380D01*
X120542857Y-89674761D01*
X120590476Y-89627142D01*
X120638095Y-89531904D01*
X120638095Y-89436666D01*
X120590476Y-89341428D01*
X120542857Y-89293809D01*
X120447619Y-89246190D01*
X120257142Y-89198571D01*
X120161904Y-89150952D01*
X120114285Y-89103333D01*
X120066666Y-89008095D01*
X120066666Y-88912857D01*
X120114285Y-88817619D01*
X120161904Y-88770000D01*
X120257142Y-88722380D01*
X120495238Y-88722380D01*
X120638095Y-88770000D01*
X120971428Y-88722380D02*
X121209523Y-89722380D01*
X121400000Y-89008095D01*
X121590476Y-89722380D01*
X121828571Y-88722380D01*
X122161904Y-88817619D02*
X122209523Y-88770000D01*
X122304761Y-88722380D01*
X122542857Y-88722380D01*
X122638095Y-88770000D01*
X122685714Y-88817619D01*
X122733333Y-88912857D01*
X122733333Y-89008095D01*
X122685714Y-89150952D01*
X122114285Y-89722380D01*
X122733333Y-89722380D01*
X111052380Y-99142857D02*
X110576190Y-99476190D01*
X111052380Y-99714285D02*
X110052380Y-99714285D01*
X110052380Y-99333333D01*
X110100000Y-99238095D01*
X110147619Y-99190476D01*
X110242857Y-99142857D01*
X110385714Y-99142857D01*
X110480952Y-99190476D01*
X110528571Y-99238095D01*
X110576190Y-99333333D01*
X110576190Y-99714285D01*
X111052380Y-98190476D02*
X111052380Y-98761904D01*
X111052380Y-98476190D02*
X110052380Y-98476190D01*
X110195238Y-98571428D01*
X110290476Y-98666666D01*
X110338095Y-98761904D01*
X110385714Y-97333333D02*
X111052380Y-97333333D01*
X110004761Y-97571428D02*
X110719047Y-97809523D01*
X110719047Y-97190476D01*
X109081904Y-63722380D02*
X109081904Y-64531904D01*
X109129523Y-64627142D01*
X109177142Y-64674761D01*
X109272380Y-64722380D01*
X109462857Y-64722380D01*
X109558095Y-64674761D01*
X109605714Y-64627142D01*
X109653333Y-64531904D01*
X109653333Y-63722380D01*
X110653333Y-64722380D02*
X110081904Y-64722380D01*
X110367619Y-64722380D02*
X110367619Y-63722380D01*
X110272380Y-63865238D01*
X110177142Y-63960476D01*
X110081904Y-64008095D01*
X111034285Y-63817619D02*
X111081904Y-63770000D01*
X111177142Y-63722380D01*
X111415238Y-63722380D01*
X111510476Y-63770000D01*
X111558095Y-63817619D01*
X111605714Y-63912857D01*
X111605714Y-64008095D01*
X111558095Y-64150952D01*
X110986666Y-64722380D01*
X111605714Y-64722380D01*
X131658095Y-63922380D02*
X131658095Y-64731904D01*
X131705714Y-64827142D01*
X131753333Y-64874761D01*
X131848571Y-64922380D01*
X132039047Y-64922380D01*
X132134285Y-64874761D01*
X132181904Y-64827142D01*
X132229523Y-64731904D01*
X132229523Y-63922380D01*
X133134285Y-64255714D02*
X133134285Y-64922380D01*
X132896190Y-63874761D02*
X132658095Y-64589047D01*
X133277142Y-64589047D01*
X120066666Y-74234761D02*
X120209523Y-74282380D01*
X120447619Y-74282380D01*
X120542857Y-74234761D01*
X120590476Y-74187142D01*
X120638095Y-74091904D01*
X120638095Y-73996666D01*
X120590476Y-73901428D01*
X120542857Y-73853809D01*
X120447619Y-73806190D01*
X120257142Y-73758571D01*
X120161904Y-73710952D01*
X120114285Y-73663333D01*
X120066666Y-73568095D01*
X120066666Y-73472857D01*
X120114285Y-73377619D01*
X120161904Y-73330000D01*
X120257142Y-73282380D01*
X120495238Y-73282380D01*
X120638095Y-73330000D01*
X120971428Y-73282380D02*
X121209523Y-74282380D01*
X121400000Y-73568095D01*
X121590476Y-74282380D01*
X121828571Y-73282380D01*
X122733333Y-74282380D02*
X122161904Y-74282380D01*
X122447619Y-74282380D02*
X122447619Y-73282380D01*
X122352380Y-73425238D01*
X122257142Y-73520476D01*
X122161904Y-73568095D01*
X185757142Y-62252380D02*
X185423809Y-61776190D01*
X185185714Y-62252380D02*
X185185714Y-61252380D01*
X185566666Y-61252380D01*
X185661904Y-61300000D01*
X185709523Y-61347619D01*
X185757142Y-61442857D01*
X185757142Y-61585714D01*
X185709523Y-61680952D01*
X185661904Y-61728571D01*
X185566666Y-61776190D01*
X185185714Y-61776190D01*
X186709523Y-62252380D02*
X186138095Y-62252380D01*
X186423809Y-62252380D02*
X186423809Y-61252380D01*
X186328571Y-61395238D01*
X186233333Y-61490476D01*
X186138095Y-61538095D01*
X187042857Y-61252380D02*
X187661904Y-61252380D01*
X187328571Y-61633333D01*
X187471428Y-61633333D01*
X187566666Y-61680952D01*
X187614285Y-61728571D01*
X187661904Y-61823809D01*
X187661904Y-62061904D01*
X187614285Y-62157142D01*
X187566666Y-62204761D01*
X187471428Y-62252380D01*
X187185714Y-62252380D01*
X187090476Y-62204761D01*
X187042857Y-62157142D01*
X108402380Y-53983333D02*
X109116666Y-53983333D01*
X109259523Y-54030952D01*
X109354761Y-54126190D01*
X109402380Y-54269047D01*
X109402380Y-54364285D01*
X108735714Y-53078571D02*
X109402380Y-53078571D01*
X108354761Y-53316666D02*
X109069047Y-53554761D01*
X109069047Y-52935714D01*
X191161904Y-64652380D02*
X191161904Y-63652380D01*
X191400000Y-63652380D01*
X191542857Y-63700000D01*
X191638095Y-63795238D01*
X191685714Y-63890476D01*
X191733333Y-64080952D01*
X191733333Y-64223809D01*
X191685714Y-64414285D01*
X191638095Y-64509523D01*
X191542857Y-64604761D01*
X191400000Y-64652380D01*
X191161904Y-64652380D01*
X192685714Y-64652380D02*
X192114285Y-64652380D01*
X192400000Y-64652380D02*
X192400000Y-63652380D01*
X192304761Y-63795238D01*
X192209523Y-63890476D01*
X192114285Y-63938095D01*
X106957142Y-63357142D02*
X106909523Y-63404761D01*
X106766666Y-63452380D01*
X106671428Y-63452380D01*
X106528571Y-63404761D01*
X106433333Y-63309523D01*
X106385714Y-63214285D01*
X106338095Y-63023809D01*
X106338095Y-62880952D01*
X106385714Y-62690476D01*
X106433333Y-62595238D01*
X106528571Y-62500000D01*
X106671428Y-62452380D01*
X106766666Y-62452380D01*
X106909523Y-62500000D01*
X106957142Y-62547619D01*
X107909523Y-63452380D02*
X107338095Y-63452380D01*
X107623809Y-63452380D02*
X107623809Y-62452380D01*
X107528571Y-62595238D01*
X107433333Y-62690476D01*
X107338095Y-62738095D01*
X108385714Y-63452380D02*
X108576190Y-63452380D01*
X108671428Y-63404761D01*
X108719047Y-63357142D01*
X108814285Y-63214285D01*
X108861904Y-63023809D01*
X108861904Y-62642857D01*
X108814285Y-62547619D01*
X108766666Y-62500000D01*
X108671428Y-62452380D01*
X108480952Y-62452380D01*
X108385714Y-62500000D01*
X108338095Y-62547619D01*
X108290476Y-62642857D01*
X108290476Y-62880952D01*
X108338095Y-62976190D01*
X108385714Y-63023809D01*
X108480952Y-63071428D01*
X108671428Y-63071428D01*
X108766666Y-63023809D01*
X108814285Y-62976190D01*
X108861904Y-62880952D01*
X104852380Y-148533333D02*
X105566666Y-148533333D01*
X105709523Y-148580952D01*
X105804761Y-148676190D01*
X105852380Y-148819047D01*
X105852380Y-148914285D01*
X105852380Y-147533333D02*
X105852380Y-148104761D01*
X105852380Y-147819047D02*
X104852380Y-147819047D01*
X104995238Y-147914285D01*
X105090476Y-148009523D01*
X105138095Y-148104761D01*
X181761904Y-126152380D02*
X181761904Y-126961904D01*
X181809523Y-127057142D01*
X181857142Y-127104761D01*
X181952380Y-127152380D01*
X182142857Y-127152380D01*
X182238095Y-127104761D01*
X182285714Y-127057142D01*
X182333333Y-126961904D01*
X182333333Y-126152380D01*
X183333333Y-127152380D02*
X182761904Y-127152380D01*
X183047619Y-127152380D02*
X183047619Y-126152380D01*
X182952380Y-126295238D01*
X182857142Y-126390476D01*
X182761904Y-126438095D01*
X184238095Y-126152380D02*
X183761904Y-126152380D01*
X183714285Y-126628571D01*
X183761904Y-126580952D01*
X183857142Y-126533333D01*
X184095238Y-126533333D01*
X184190476Y-126580952D01*
X184238095Y-126628571D01*
X184285714Y-126723809D01*
X184285714Y-126961904D01*
X184238095Y-127057142D01*
X184190476Y-127104761D01*
X184095238Y-127152380D01*
X183857142Y-127152380D01*
X183761904Y-127104761D01*
X183714285Y-127057142D01*
X154652380Y-109738095D02*
X155461904Y-109738095D01*
X155557142Y-109690476D01*
X155604761Y-109642857D01*
X155652380Y-109547619D01*
X155652380Y-109357142D01*
X155604761Y-109261904D01*
X155557142Y-109214285D01*
X155461904Y-109166666D01*
X154652380Y-109166666D01*
X155652380Y-108166666D02*
X155652380Y-108738095D01*
X155652380Y-108452380D02*
X154652380Y-108452380D01*
X154795238Y-108547619D01*
X154890476Y-108642857D01*
X154938095Y-108738095D01*
X154985714Y-107309523D02*
X155652380Y-107309523D01*
X154604761Y-107547619D02*
X155319047Y-107785714D01*
X155319047Y-107166666D01*
X164052380Y-145538095D02*
X164861904Y-145538095D01*
X164957142Y-145490476D01*
X165004761Y-145442857D01*
X165052380Y-145347619D01*
X165052380Y-145157142D01*
X165004761Y-145061904D01*
X164957142Y-145014285D01*
X164861904Y-144966666D01*
X164052380Y-144966666D01*
X165052380Y-143966666D02*
X165052380Y-144538095D01*
X165052380Y-144252380D02*
X164052380Y-144252380D01*
X164195238Y-144347619D01*
X164290476Y-144442857D01*
X164338095Y-144538095D01*
X164052380Y-143633333D02*
X164052380Y-143014285D01*
X164433333Y-143347619D01*
X164433333Y-143204761D01*
X164480952Y-143109523D01*
X164528571Y-143061904D01*
X164623809Y-143014285D01*
X164861904Y-143014285D01*
X164957142Y-143061904D01*
X165004761Y-143109523D01*
X165052380Y-143204761D01*
X165052380Y-143490476D01*
X165004761Y-143585714D01*
X164957142Y-143633333D01*
X187161904Y-65252380D02*
X187161904Y-66061904D01*
X187209523Y-66157142D01*
X187257142Y-66204761D01*
X187352380Y-66252380D01*
X187542857Y-66252380D01*
X187638095Y-66204761D01*
X187685714Y-66157142D01*
X187733333Y-66061904D01*
X187733333Y-65252380D01*
X188733333Y-66252380D02*
X188161904Y-66252380D01*
X188447619Y-66252380D02*
X188447619Y-65252380D01*
X188352380Y-65395238D01*
X188257142Y-65490476D01*
X188161904Y-65538095D01*
X189685714Y-66252380D02*
X189114285Y-66252380D01*
X189400000Y-66252380D02*
X189400000Y-65252380D01*
X189304761Y-65395238D01*
X189209523Y-65490476D01*
X189114285Y-65538095D01*
X175861904Y-65452380D02*
X175861904Y-66261904D01*
X175909523Y-66357142D01*
X175957142Y-66404761D01*
X176052380Y-66452380D01*
X176242857Y-66452380D01*
X176338095Y-66404761D01*
X176385714Y-66357142D01*
X176433333Y-66261904D01*
X176433333Y-65452380D01*
X177433333Y-66452380D02*
X176861904Y-66452380D01*
X177147619Y-66452380D02*
X177147619Y-65452380D01*
X177052380Y-65595238D01*
X176957142Y-65690476D01*
X176861904Y-65738095D01*
X178052380Y-65452380D02*
X178147619Y-65452380D01*
X178242857Y-65500000D01*
X178290476Y-65547619D01*
X178338095Y-65642857D01*
X178385714Y-65833333D01*
X178385714Y-66071428D01*
X178338095Y-66261904D01*
X178290476Y-66357142D01*
X178242857Y-66404761D01*
X178147619Y-66452380D01*
X178052380Y-66452380D01*
X177957142Y-66404761D01*
X177909523Y-66357142D01*
X177861904Y-66261904D01*
X177814285Y-66071428D01*
X177814285Y-65833333D01*
X177861904Y-65642857D01*
X177909523Y-65547619D01*
X177957142Y-65500000D01*
X178052380Y-65452380D01*
X120138095Y-119152380D02*
X120138095Y-119961904D01*
X120185714Y-120057142D01*
X120233333Y-120104761D01*
X120328571Y-120152380D01*
X120519047Y-120152380D01*
X120614285Y-120104761D01*
X120661904Y-120057142D01*
X120709523Y-119961904D01*
X120709523Y-119152380D01*
X121233333Y-120152380D02*
X121423809Y-120152380D01*
X121519047Y-120104761D01*
X121566666Y-120057142D01*
X121661904Y-119914285D01*
X121709523Y-119723809D01*
X121709523Y-119342857D01*
X121661904Y-119247619D01*
X121614285Y-119200000D01*
X121519047Y-119152380D01*
X121328571Y-119152380D01*
X121233333Y-119200000D01*
X121185714Y-119247619D01*
X121138095Y-119342857D01*
X121138095Y-119580952D01*
X121185714Y-119676190D01*
X121233333Y-119723809D01*
X121328571Y-119771428D01*
X121519047Y-119771428D01*
X121614285Y-119723809D01*
X121661904Y-119676190D01*
X121709523Y-119580952D01*
X164838095Y-65152380D02*
X164838095Y-65961904D01*
X164885714Y-66057142D01*
X164933333Y-66104761D01*
X165028571Y-66152380D01*
X165219047Y-66152380D01*
X165314285Y-66104761D01*
X165361904Y-66057142D01*
X165409523Y-65961904D01*
X165409523Y-65152380D01*
X166028571Y-65580952D02*
X165933333Y-65533333D01*
X165885714Y-65485714D01*
X165838095Y-65390476D01*
X165838095Y-65342857D01*
X165885714Y-65247619D01*
X165933333Y-65200000D01*
X166028571Y-65152380D01*
X166219047Y-65152380D01*
X166314285Y-65200000D01*
X166361904Y-65247619D01*
X166409523Y-65342857D01*
X166409523Y-65390476D01*
X166361904Y-65485714D01*
X166314285Y-65533333D01*
X166219047Y-65580952D01*
X166028571Y-65580952D01*
X165933333Y-65628571D01*
X165885714Y-65676190D01*
X165838095Y-65771428D01*
X165838095Y-65961904D01*
X165885714Y-66057142D01*
X165933333Y-66104761D01*
X166028571Y-66152380D01*
X166219047Y-66152380D01*
X166314285Y-66104761D01*
X166361904Y-66057142D01*
X166409523Y-65961904D01*
X166409523Y-65771428D01*
X166361904Y-65676190D01*
X166314285Y-65628571D01*
X166219047Y-65580952D01*
X153838095Y-65952380D02*
X153838095Y-66761904D01*
X153885714Y-66857142D01*
X153933333Y-66904761D01*
X154028571Y-66952380D01*
X154219047Y-66952380D01*
X154314285Y-66904761D01*
X154361904Y-66857142D01*
X154409523Y-66761904D01*
X154409523Y-65952380D01*
X154790476Y-65952380D02*
X155457142Y-65952380D01*
X155028571Y-66952380D01*
X109738095Y-121552380D02*
X109738095Y-122361904D01*
X109785714Y-122457142D01*
X109833333Y-122504761D01*
X109928571Y-122552380D01*
X110119047Y-122552380D01*
X110214285Y-122504761D01*
X110261904Y-122457142D01*
X110309523Y-122361904D01*
X110309523Y-121552380D01*
X111214285Y-121552380D02*
X111023809Y-121552380D01*
X110928571Y-121600000D01*
X110880952Y-121647619D01*
X110785714Y-121790476D01*
X110738095Y-121980952D01*
X110738095Y-122361904D01*
X110785714Y-122457142D01*
X110833333Y-122504761D01*
X110928571Y-122552380D01*
X111119047Y-122552380D01*
X111214285Y-122504761D01*
X111261904Y-122457142D01*
X111309523Y-122361904D01*
X111309523Y-122123809D01*
X111261904Y-122028571D01*
X111214285Y-121980952D01*
X111119047Y-121933333D01*
X110928571Y-121933333D01*
X110833333Y-121980952D01*
X110785714Y-122028571D01*
X110738095Y-122123809D01*
X142338095Y-65852380D02*
X142338095Y-66661904D01*
X142385714Y-66757142D01*
X142433333Y-66804761D01*
X142528571Y-66852380D01*
X142719047Y-66852380D01*
X142814285Y-66804761D01*
X142861904Y-66757142D01*
X142909523Y-66661904D01*
X142909523Y-65852380D01*
X143861904Y-65852380D02*
X143385714Y-65852380D01*
X143338095Y-66328571D01*
X143385714Y-66280952D01*
X143480952Y-66233333D01*
X143719047Y-66233333D01*
X143814285Y-66280952D01*
X143861904Y-66328571D01*
X143909523Y-66423809D01*
X143909523Y-66661904D01*
X143861904Y-66757142D01*
X143814285Y-66804761D01*
X143719047Y-66852380D01*
X143480952Y-66852380D01*
X143385714Y-66804761D01*
X143338095Y-66757142D01*
X142438095Y-87852380D02*
X142438095Y-88661904D01*
X142485714Y-88757142D01*
X142533333Y-88804761D01*
X142628571Y-88852380D01*
X142819047Y-88852380D01*
X142914285Y-88804761D01*
X142961904Y-88757142D01*
X143009523Y-88661904D01*
X143009523Y-87852380D01*
X143390476Y-87852380D02*
X144009523Y-87852380D01*
X143676190Y-88233333D01*
X143819047Y-88233333D01*
X143914285Y-88280952D01*
X143961904Y-88328571D01*
X144009523Y-88423809D01*
X144009523Y-88661904D01*
X143961904Y-88757142D01*
X143914285Y-88804761D01*
X143819047Y-88852380D01*
X143533333Y-88852380D01*
X143438095Y-88804761D01*
X143390476Y-88757142D01*
X170452380Y-122561904D02*
X171261904Y-122561904D01*
X171357142Y-122514285D01*
X171404761Y-122466666D01*
X171452380Y-122371428D01*
X171452380Y-122180952D01*
X171404761Y-122085714D01*
X171357142Y-122038095D01*
X171261904Y-121990476D01*
X170452380Y-121990476D01*
X170547619Y-121561904D02*
X170500000Y-121514285D01*
X170452380Y-121419047D01*
X170452380Y-121180952D01*
X170500000Y-121085714D01*
X170547619Y-121038095D01*
X170642857Y-120990476D01*
X170738095Y-120990476D01*
X170880952Y-121038095D01*
X171452380Y-121609523D01*
X171452380Y-120990476D01*
X142338095Y-126552380D02*
X142338095Y-127361904D01*
X142385714Y-127457142D01*
X142433333Y-127504761D01*
X142528571Y-127552380D01*
X142719047Y-127552380D01*
X142814285Y-127504761D01*
X142861904Y-127457142D01*
X142909523Y-127361904D01*
X142909523Y-126552380D01*
X143909523Y-127552380D02*
X143338095Y-127552380D01*
X143623809Y-127552380D02*
X143623809Y-126552380D01*
X143528571Y-126695238D01*
X143433333Y-126790476D01*
X143338095Y-126838095D01*
X134904761Y-130152380D02*
X134571428Y-129676190D01*
X134333333Y-130152380D02*
X134333333Y-129152380D01*
X134714285Y-129152380D01*
X134809523Y-129200000D01*
X134857142Y-129247619D01*
X134904761Y-129342857D01*
X134904761Y-129485714D01*
X134857142Y-129580952D01*
X134809523Y-129628571D01*
X134714285Y-129676190D01*
X134333333Y-129676190D01*
X135190476Y-129152380D02*
X135523809Y-130152380D01*
X135857142Y-129152380D01*
X136095238Y-129152380D02*
X136714285Y-129152380D01*
X136380952Y-129533333D01*
X136523809Y-129533333D01*
X136619047Y-129580952D01*
X136666666Y-129628571D01*
X136714285Y-129723809D01*
X136714285Y-129961904D01*
X136666666Y-130057142D01*
X136619047Y-130104761D01*
X136523809Y-130152380D01*
X136238095Y-130152380D01*
X136142857Y-130104761D01*
X136095238Y-130057142D01*
X156804761Y-144252380D02*
X156471428Y-143776190D01*
X156233333Y-144252380D02*
X156233333Y-143252380D01*
X156614285Y-143252380D01*
X156709523Y-143300000D01*
X156757142Y-143347619D01*
X156804761Y-143442857D01*
X156804761Y-143585714D01*
X156757142Y-143680952D01*
X156709523Y-143728571D01*
X156614285Y-143776190D01*
X156233333Y-143776190D01*
X157090476Y-143252380D02*
X157423809Y-144252380D01*
X157757142Y-143252380D01*
X158042857Y-143347619D02*
X158090476Y-143300000D01*
X158185714Y-143252380D01*
X158423809Y-143252380D01*
X158519047Y-143300000D01*
X158566666Y-143347619D01*
X158614285Y-143442857D01*
X158614285Y-143538095D01*
X158566666Y-143680952D01*
X157995238Y-144252380D01*
X158614285Y-144252380D01*
X156604761Y-134052380D02*
X156271428Y-133576190D01*
X156033333Y-134052380D02*
X156033333Y-133052380D01*
X156414285Y-133052380D01*
X156509523Y-133100000D01*
X156557142Y-133147619D01*
X156604761Y-133242857D01*
X156604761Y-133385714D01*
X156557142Y-133480952D01*
X156509523Y-133528571D01*
X156414285Y-133576190D01*
X156033333Y-133576190D01*
X156890476Y-133052380D02*
X157223809Y-134052380D01*
X157557142Y-133052380D01*
X158414285Y-134052380D02*
X157842857Y-134052380D01*
X158128571Y-134052380D02*
X158128571Y-133052380D01*
X158033333Y-133195238D01*
X157938095Y-133290476D01*
X157842857Y-133338095D01*
X124252380Y-83440476D02*
X123776190Y-83773809D01*
X124252380Y-84011904D02*
X123252380Y-84011904D01*
X123252380Y-83630952D01*
X123300000Y-83535714D01*
X123347619Y-83488095D01*
X123442857Y-83440476D01*
X123585714Y-83440476D01*
X123680952Y-83488095D01*
X123728571Y-83535714D01*
X123776190Y-83630952D01*
X123776190Y-84011904D01*
X124252380Y-83011904D02*
X123252380Y-83011904D01*
X124252380Y-82440476D01*
X123252380Y-82440476D01*
X124252380Y-81440476D02*
X124252380Y-82011904D01*
X124252380Y-81726190D02*
X123252380Y-81726190D01*
X123395238Y-81821428D01*
X123490476Y-81916666D01*
X123538095Y-82011904D01*
X121752380Y-113162857D02*
X121276190Y-113496190D01*
X121752380Y-113734285D02*
X120752380Y-113734285D01*
X120752380Y-113353333D01*
X120800000Y-113258095D01*
X120847619Y-113210476D01*
X120942857Y-113162857D01*
X121085714Y-113162857D01*
X121180952Y-113210476D01*
X121228571Y-113258095D01*
X121276190Y-113353333D01*
X121276190Y-113734285D01*
X121752380Y-112210476D02*
X121752380Y-112781904D01*
X121752380Y-112496190D02*
X120752380Y-112496190D01*
X120895238Y-112591428D01*
X120990476Y-112686666D01*
X121038095Y-112781904D01*
X120847619Y-111829523D02*
X120800000Y-111781904D01*
X120752380Y-111686666D01*
X120752380Y-111448571D01*
X120800000Y-111353333D01*
X120847619Y-111305714D01*
X120942857Y-111258095D01*
X121038095Y-111258095D01*
X121180952Y-111305714D01*
X121752380Y-111877142D01*
X121752380Y-111258095D01*
X149057142Y-122952380D02*
X148723809Y-122476190D01*
X148485714Y-122952380D02*
X148485714Y-121952380D01*
X148866666Y-121952380D01*
X148961904Y-122000000D01*
X149009523Y-122047619D01*
X149057142Y-122142857D01*
X149057142Y-122285714D01*
X149009523Y-122380952D01*
X148961904Y-122428571D01*
X148866666Y-122476190D01*
X148485714Y-122476190D01*
X150009523Y-122952380D02*
X149438095Y-122952380D01*
X149723809Y-122952380D02*
X149723809Y-121952380D01*
X149628571Y-122095238D01*
X149533333Y-122190476D01*
X149438095Y-122238095D01*
X150961904Y-122952380D02*
X150390476Y-122952380D01*
X150676190Y-122952380D02*
X150676190Y-121952380D01*
X150580952Y-122095238D01*
X150485714Y-122190476D01*
X150390476Y-122238095D01*
X136337142Y-122952380D02*
X136003809Y-122476190D01*
X135765714Y-122952380D02*
X135765714Y-121952380D01*
X136146666Y-121952380D01*
X136241904Y-122000000D01*
X136289523Y-122047619D01*
X136337142Y-122142857D01*
X136337142Y-122285714D01*
X136289523Y-122380952D01*
X136241904Y-122428571D01*
X136146666Y-122476190D01*
X135765714Y-122476190D01*
X137289523Y-122952380D02*
X136718095Y-122952380D01*
X137003809Y-122952380D02*
X137003809Y-121952380D01*
X136908571Y-122095238D01*
X136813333Y-122190476D01*
X136718095Y-122238095D01*
X137908571Y-121952380D02*
X138003809Y-121952380D01*
X138099047Y-122000000D01*
X138146666Y-122047619D01*
X138194285Y-122142857D01*
X138241904Y-122333333D01*
X138241904Y-122571428D01*
X138194285Y-122761904D01*
X138146666Y-122857142D01*
X138099047Y-122904761D01*
X138003809Y-122952380D01*
X137908571Y-122952380D01*
X137813333Y-122904761D01*
X137765714Y-122857142D01*
X137718095Y-122761904D01*
X137670476Y-122571428D01*
X137670476Y-122333333D01*
X137718095Y-122142857D01*
X137765714Y-122047619D01*
X137813333Y-122000000D01*
X137908571Y-121952380D01*
X161213333Y-117852380D02*
X160880000Y-117376190D01*
X160641904Y-117852380D02*
X160641904Y-116852380D01*
X161022857Y-116852380D01*
X161118095Y-116900000D01*
X161165714Y-116947619D01*
X161213333Y-117042857D01*
X161213333Y-117185714D01*
X161165714Y-117280952D01*
X161118095Y-117328571D01*
X161022857Y-117376190D01*
X160641904Y-117376190D01*
X161689523Y-117852380D02*
X161880000Y-117852380D01*
X161975238Y-117804761D01*
X162022857Y-117757142D01*
X162118095Y-117614285D01*
X162165714Y-117423809D01*
X162165714Y-117042857D01*
X162118095Y-116947619D01*
X162070476Y-116900000D01*
X161975238Y-116852380D01*
X161784761Y-116852380D01*
X161689523Y-116900000D01*
X161641904Y-116947619D01*
X161594285Y-117042857D01*
X161594285Y-117280952D01*
X161641904Y-117376190D01*
X161689523Y-117423809D01*
X161784761Y-117471428D01*
X161975238Y-117471428D01*
X162070476Y-117423809D01*
X162118095Y-117376190D01*
X162165714Y-117280952D01*
X161433333Y-114352380D02*
X161100000Y-113876190D01*
X160861904Y-114352380D02*
X160861904Y-113352380D01*
X161242857Y-113352380D01*
X161338095Y-113400000D01*
X161385714Y-113447619D01*
X161433333Y-113542857D01*
X161433333Y-113685714D01*
X161385714Y-113780952D01*
X161338095Y-113828571D01*
X161242857Y-113876190D01*
X160861904Y-113876190D01*
X162004761Y-113780952D02*
X161909523Y-113733333D01*
X161861904Y-113685714D01*
X161814285Y-113590476D01*
X161814285Y-113542857D01*
X161861904Y-113447619D01*
X161909523Y-113400000D01*
X162004761Y-113352380D01*
X162195238Y-113352380D01*
X162290476Y-113400000D01*
X162338095Y-113447619D01*
X162385714Y-113542857D01*
X162385714Y-113590476D01*
X162338095Y-113685714D01*
X162290476Y-113733333D01*
X162195238Y-113780952D01*
X162004761Y-113780952D01*
X161909523Y-113828571D01*
X161861904Y-113876190D01*
X161814285Y-113971428D01*
X161814285Y-114161904D01*
X161861904Y-114257142D01*
X161909523Y-114304761D01*
X162004761Y-114352380D01*
X162195238Y-114352380D01*
X162290476Y-114304761D01*
X162338095Y-114257142D01*
X162385714Y-114161904D01*
X162385714Y-113971428D01*
X162338095Y-113876190D01*
X162290476Y-113828571D01*
X162195238Y-113780952D01*
X148533333Y-114452380D02*
X148200000Y-113976190D01*
X147961904Y-114452380D02*
X147961904Y-113452380D01*
X148342857Y-113452380D01*
X148438095Y-113500000D01*
X148485714Y-113547619D01*
X148533333Y-113642857D01*
X148533333Y-113785714D01*
X148485714Y-113880952D01*
X148438095Y-113928571D01*
X148342857Y-113976190D01*
X147961904Y-113976190D01*
X148866666Y-113452380D02*
X149533333Y-113452380D01*
X149104761Y-114452380D01*
X148633333Y-118052380D02*
X148300000Y-117576190D01*
X148061904Y-118052380D02*
X148061904Y-117052380D01*
X148442857Y-117052380D01*
X148538095Y-117100000D01*
X148585714Y-117147619D01*
X148633333Y-117242857D01*
X148633333Y-117385714D01*
X148585714Y-117480952D01*
X148538095Y-117528571D01*
X148442857Y-117576190D01*
X148061904Y-117576190D01*
X149490476Y-117052380D02*
X149300000Y-117052380D01*
X149204761Y-117100000D01*
X149157142Y-117147619D01*
X149061904Y-117290476D01*
X149014285Y-117480952D01*
X149014285Y-117861904D01*
X149061904Y-117957142D01*
X149109523Y-118004761D01*
X149204761Y-118052380D01*
X149395238Y-118052380D01*
X149490476Y-118004761D01*
X149538095Y-117957142D01*
X149585714Y-117861904D01*
X149585714Y-117623809D01*
X149538095Y-117528571D01*
X149490476Y-117480952D01*
X149395238Y-117433333D01*
X149204761Y-117433333D01*
X149109523Y-117480952D01*
X149061904Y-117528571D01*
X149014285Y-117623809D01*
X193233333Y-126152380D02*
X192900000Y-125676190D01*
X192661904Y-126152380D02*
X192661904Y-125152380D01*
X193042857Y-125152380D01*
X193138095Y-125200000D01*
X193185714Y-125247619D01*
X193233333Y-125342857D01*
X193233333Y-125485714D01*
X193185714Y-125580952D01*
X193138095Y-125628571D01*
X193042857Y-125676190D01*
X192661904Y-125676190D01*
X194138095Y-125152380D02*
X193661904Y-125152380D01*
X193614285Y-125628571D01*
X193661904Y-125580952D01*
X193757142Y-125533333D01*
X193995238Y-125533333D01*
X194090476Y-125580952D01*
X194138095Y-125628571D01*
X194185714Y-125723809D01*
X194185714Y-125961904D01*
X194138095Y-126057142D01*
X194090476Y-126104761D01*
X193995238Y-126152380D01*
X193757142Y-126152380D01*
X193661904Y-126104761D01*
X193614285Y-126057142D01*
X193133333Y-129452380D02*
X192800000Y-128976190D01*
X192561904Y-129452380D02*
X192561904Y-128452380D01*
X192942857Y-128452380D01*
X193038095Y-128500000D01*
X193085714Y-128547619D01*
X193133333Y-128642857D01*
X193133333Y-128785714D01*
X193085714Y-128880952D01*
X193038095Y-128928571D01*
X192942857Y-128976190D01*
X192561904Y-128976190D01*
X193990476Y-128785714D02*
X193990476Y-129452380D01*
X193752380Y-128404761D02*
X193514285Y-129119047D01*
X194133333Y-129119047D01*
X158933333Y-126552380D02*
X158600000Y-126076190D01*
X158361904Y-126552380D02*
X158361904Y-125552380D01*
X158742857Y-125552380D01*
X158838095Y-125600000D01*
X158885714Y-125647619D01*
X158933333Y-125742857D01*
X158933333Y-125885714D01*
X158885714Y-125980952D01*
X158838095Y-126028571D01*
X158742857Y-126076190D01*
X158361904Y-126076190D01*
X159266666Y-125552380D02*
X159885714Y-125552380D01*
X159552380Y-125933333D01*
X159695238Y-125933333D01*
X159790476Y-125980952D01*
X159838095Y-126028571D01*
X159885714Y-126123809D01*
X159885714Y-126361904D01*
X159838095Y-126457142D01*
X159790476Y-126504761D01*
X159695238Y-126552380D01*
X159409523Y-126552380D01*
X159314285Y-126504761D01*
X159266666Y-126457142D01*
X171733333Y-126552380D02*
X171400000Y-126076190D01*
X171161904Y-126552380D02*
X171161904Y-125552380D01*
X171542857Y-125552380D01*
X171638095Y-125600000D01*
X171685714Y-125647619D01*
X171733333Y-125742857D01*
X171733333Y-125885714D01*
X171685714Y-125980952D01*
X171638095Y-126028571D01*
X171542857Y-126076190D01*
X171161904Y-126076190D01*
X172114285Y-125647619D02*
X172161904Y-125600000D01*
X172257142Y-125552380D01*
X172495238Y-125552380D01*
X172590476Y-125600000D01*
X172638095Y-125647619D01*
X172685714Y-125742857D01*
X172685714Y-125838095D01*
X172638095Y-125980952D01*
X172066666Y-126552380D01*
X172685714Y-126552380D01*
X162533333Y-122852380D02*
X162200000Y-122376190D01*
X161961904Y-122852380D02*
X161961904Y-121852380D01*
X162342857Y-121852380D01*
X162438095Y-121900000D01*
X162485714Y-121947619D01*
X162533333Y-122042857D01*
X162533333Y-122185714D01*
X162485714Y-122280952D01*
X162438095Y-122328571D01*
X162342857Y-122376190D01*
X161961904Y-122376190D01*
X163485714Y-122852380D02*
X162914285Y-122852380D01*
X163200000Y-122852380D02*
X163200000Y-121852380D01*
X163104761Y-121995238D01*
X163009523Y-122090476D01*
X162914285Y-122138095D01*
X102066666Y-143252380D02*
X102066666Y-143966666D01*
X102019047Y-144109523D01*
X101923809Y-144204761D01*
X101780952Y-144252380D01*
X101685714Y-144252380D01*
X102447619Y-143252380D02*
X103066666Y-143252380D01*
X102733333Y-143633333D01*
X102876190Y-143633333D01*
X102971428Y-143680952D01*
X103019047Y-143728571D01*
X103066666Y-143823809D01*
X103066666Y-144061904D01*
X103019047Y-144157142D01*
X102971428Y-144204761D01*
X102876190Y-144252380D01*
X102590476Y-144252380D01*
X102495238Y-144204761D01*
X102447619Y-144157142D01*
X123182380Y-57178333D02*
X123896666Y-57178333D01*
X124039523Y-57225952D01*
X124134761Y-57321190D01*
X124182380Y-57464047D01*
X124182380Y-57559285D01*
X123277619Y-56749761D02*
X123230000Y-56702142D01*
X123182380Y-56606904D01*
X123182380Y-56368809D01*
X123230000Y-56273571D01*
X123277619Y-56225952D01*
X123372857Y-56178333D01*
X123468095Y-56178333D01*
X123610952Y-56225952D01*
X124182380Y-56797380D01*
X124182380Y-56178333D01*
X154957142Y-99842857D02*
X155004761Y-99890476D01*
X155052380Y-100033333D01*
X155052380Y-100128571D01*
X155004761Y-100271428D01*
X154909523Y-100366666D01*
X154814285Y-100414285D01*
X154623809Y-100461904D01*
X154480952Y-100461904D01*
X154290476Y-100414285D01*
X154195238Y-100366666D01*
X154100000Y-100271428D01*
X154052380Y-100128571D01*
X154052380Y-100033333D01*
X154100000Y-99890476D01*
X154147619Y-99842857D01*
X155052380Y-98890476D02*
X155052380Y-99461904D01*
X155052380Y-99176190D02*
X154052380Y-99176190D01*
X154195238Y-99271428D01*
X154290476Y-99366666D01*
X154338095Y-99461904D01*
X154480952Y-98319047D02*
X154433333Y-98414285D01*
X154385714Y-98461904D01*
X154290476Y-98509523D01*
X154242857Y-98509523D01*
X154147619Y-98461904D01*
X154100000Y-98414285D01*
X154052380Y-98319047D01*
X154052380Y-98128571D01*
X154100000Y-98033333D01*
X154147619Y-97985714D01*
X154242857Y-97938095D01*
X154290476Y-97938095D01*
X154385714Y-97985714D01*
X154433333Y-98033333D01*
X154480952Y-98128571D01*
X154480952Y-98319047D01*
X154528571Y-98414285D01*
X154576190Y-98461904D01*
X154671428Y-98509523D01*
X154861904Y-98509523D01*
X154957142Y-98461904D01*
X155004761Y-98414285D01*
X155052380Y-98319047D01*
X155052380Y-98128571D01*
X155004761Y-98033333D01*
X154957142Y-97985714D01*
X154861904Y-97938095D01*
X154671428Y-97938095D01*
X154576190Y-97985714D01*
X154528571Y-98033333D01*
X154480952Y-98128571D01*
X183107142Y-57392857D02*
X183154761Y-57440476D01*
X183202380Y-57583333D01*
X183202380Y-57678571D01*
X183154761Y-57821428D01*
X183059523Y-57916666D01*
X182964285Y-57964285D01*
X182773809Y-58011904D01*
X182630952Y-58011904D01*
X182440476Y-57964285D01*
X182345238Y-57916666D01*
X182250000Y-57821428D01*
X182202380Y-57678571D01*
X182202380Y-57583333D01*
X182250000Y-57440476D01*
X182297619Y-57392857D01*
X183202380Y-56440476D02*
X183202380Y-57011904D01*
X183202380Y-56726190D02*
X182202380Y-56726190D01*
X182345238Y-56821428D01*
X182440476Y-56916666D01*
X182488095Y-57011904D01*
X182202380Y-56107142D02*
X182202380Y-55440476D01*
X183202380Y-55869047D01*
X167507142Y-140192857D02*
X167554761Y-140240476D01*
X167602380Y-140383333D01*
X167602380Y-140478571D01*
X167554761Y-140621428D01*
X167459523Y-140716666D01*
X167364285Y-140764285D01*
X167173809Y-140811904D01*
X167030952Y-140811904D01*
X166840476Y-140764285D01*
X166745238Y-140716666D01*
X166650000Y-140621428D01*
X166602380Y-140478571D01*
X166602380Y-140383333D01*
X166650000Y-140240476D01*
X166697619Y-140192857D01*
X167602380Y-139240476D02*
X167602380Y-139811904D01*
X167602380Y-139526190D02*
X166602380Y-139526190D01*
X166745238Y-139621428D01*
X166840476Y-139716666D01*
X166888095Y-139811904D01*
X166602380Y-138383333D02*
X166602380Y-138573809D01*
X166650000Y-138669047D01*
X166697619Y-138716666D01*
X166840476Y-138811904D01*
X167030952Y-138859523D01*
X167411904Y-138859523D01*
X167507142Y-138811904D01*
X167554761Y-138764285D01*
X167602380Y-138669047D01*
X167602380Y-138478571D01*
X167554761Y-138383333D01*
X167507142Y-138335714D01*
X167411904Y-138288095D01*
X167173809Y-138288095D01*
X167078571Y-138335714D01*
X167030952Y-138383333D01*
X166983333Y-138478571D01*
X166983333Y-138669047D01*
X167030952Y-138764285D01*
X167078571Y-138811904D01*
X167173809Y-138859523D01*
X109707142Y-107307142D02*
X109659523Y-107354761D01*
X109516666Y-107402380D01*
X109421428Y-107402380D01*
X109278571Y-107354761D01*
X109183333Y-107259523D01*
X109135714Y-107164285D01*
X109088095Y-106973809D01*
X109088095Y-106830952D01*
X109135714Y-106640476D01*
X109183333Y-106545238D01*
X109278571Y-106450000D01*
X109421428Y-106402380D01*
X109516666Y-106402380D01*
X109659523Y-106450000D01*
X109707142Y-106497619D01*
X110659523Y-107402380D02*
X110088095Y-107402380D01*
X110373809Y-107402380D02*
X110373809Y-106402380D01*
X110278571Y-106545238D01*
X110183333Y-106640476D01*
X110088095Y-106688095D01*
X111564285Y-106402380D02*
X111088095Y-106402380D01*
X111040476Y-106878571D01*
X111088095Y-106830952D01*
X111183333Y-106783333D01*
X111421428Y-106783333D01*
X111516666Y-106830952D01*
X111564285Y-106878571D01*
X111611904Y-106973809D01*
X111611904Y-107211904D01*
X111564285Y-107307142D01*
X111516666Y-107354761D01*
X111421428Y-107402380D01*
X111183333Y-107402380D01*
X111088095Y-107354761D01*
X111040476Y-107307142D01*
X190957142Y-66157142D02*
X190909523Y-66204761D01*
X190766666Y-66252380D01*
X190671428Y-66252380D01*
X190528571Y-66204761D01*
X190433333Y-66109523D01*
X190385714Y-66014285D01*
X190338095Y-65823809D01*
X190338095Y-65680952D01*
X190385714Y-65490476D01*
X190433333Y-65395238D01*
X190528571Y-65300000D01*
X190671428Y-65252380D01*
X190766666Y-65252380D01*
X190909523Y-65300000D01*
X190957142Y-65347619D01*
X191909523Y-66252380D02*
X191338095Y-66252380D01*
X191623809Y-66252380D02*
X191623809Y-65252380D01*
X191528571Y-65395238D01*
X191433333Y-65490476D01*
X191338095Y-65538095D01*
X192766666Y-65585714D02*
X192766666Y-66252380D01*
X192528571Y-65204761D02*
X192290476Y-65919047D01*
X192909523Y-65919047D01*
X179657142Y-64557142D02*
X179609523Y-64604761D01*
X179466666Y-64652380D01*
X179371428Y-64652380D01*
X179228571Y-64604761D01*
X179133333Y-64509523D01*
X179085714Y-64414285D01*
X179038095Y-64223809D01*
X179038095Y-64080952D01*
X179085714Y-63890476D01*
X179133333Y-63795238D01*
X179228571Y-63700000D01*
X179371428Y-63652380D01*
X179466666Y-63652380D01*
X179609523Y-63700000D01*
X179657142Y-63747619D01*
X180609523Y-64652380D02*
X180038095Y-64652380D01*
X180323809Y-64652380D02*
X180323809Y-63652380D01*
X180228571Y-63795238D01*
X180133333Y-63890476D01*
X180038095Y-63938095D01*
X180942857Y-63652380D02*
X181561904Y-63652380D01*
X181228571Y-64033333D01*
X181371428Y-64033333D01*
X181466666Y-64080952D01*
X181514285Y-64128571D01*
X181561904Y-64223809D01*
X181561904Y-64461904D01*
X181514285Y-64557142D01*
X181466666Y-64604761D01*
X181371428Y-64652380D01*
X181085714Y-64652380D01*
X180990476Y-64604761D01*
X180942857Y-64557142D01*
X123557142Y-119257142D02*
X123509523Y-119304761D01*
X123366666Y-119352380D01*
X123271428Y-119352380D01*
X123128571Y-119304761D01*
X123033333Y-119209523D01*
X122985714Y-119114285D01*
X122938095Y-118923809D01*
X122938095Y-118780952D01*
X122985714Y-118590476D01*
X123033333Y-118495238D01*
X123128571Y-118400000D01*
X123271428Y-118352380D01*
X123366666Y-118352380D01*
X123509523Y-118400000D01*
X123557142Y-118447619D01*
X124509523Y-119352380D02*
X123938095Y-119352380D01*
X124223809Y-119352380D02*
X124223809Y-118352380D01*
X124128571Y-118495238D01*
X124033333Y-118590476D01*
X123938095Y-118638095D01*
X124890476Y-118447619D02*
X124938095Y-118400000D01*
X125033333Y-118352380D01*
X125271428Y-118352380D01*
X125366666Y-118400000D01*
X125414285Y-118447619D01*
X125461904Y-118542857D01*
X125461904Y-118638095D01*
X125414285Y-118780952D01*
X124842857Y-119352380D01*
X125461904Y-119352380D01*
X133657142Y-119757142D02*
X133609523Y-119804761D01*
X133466666Y-119852380D01*
X133371428Y-119852380D01*
X133228571Y-119804761D01*
X133133333Y-119709523D01*
X133085714Y-119614285D01*
X133038095Y-119423809D01*
X133038095Y-119280952D01*
X133085714Y-119090476D01*
X133133333Y-118995238D01*
X133228571Y-118900000D01*
X133371428Y-118852380D01*
X133466666Y-118852380D01*
X133609523Y-118900000D01*
X133657142Y-118947619D01*
X134609523Y-119852380D02*
X134038095Y-119852380D01*
X134323809Y-119852380D02*
X134323809Y-118852380D01*
X134228571Y-118995238D01*
X134133333Y-119090476D01*
X134038095Y-119138095D01*
X135561904Y-119852380D02*
X134990476Y-119852380D01*
X135276190Y-119852380D02*
X135276190Y-118852380D01*
X135180952Y-118995238D01*
X135085714Y-119090476D01*
X134990476Y-119138095D01*
X168257142Y-65957142D02*
X168209523Y-66004761D01*
X168066666Y-66052380D01*
X167971428Y-66052380D01*
X167828571Y-66004761D01*
X167733333Y-65909523D01*
X167685714Y-65814285D01*
X167638095Y-65623809D01*
X167638095Y-65480952D01*
X167685714Y-65290476D01*
X167733333Y-65195238D01*
X167828571Y-65100000D01*
X167971428Y-65052380D01*
X168066666Y-65052380D01*
X168209523Y-65100000D01*
X168257142Y-65147619D01*
X169209523Y-66052380D02*
X168638095Y-66052380D01*
X168923809Y-66052380D02*
X168923809Y-65052380D01*
X168828571Y-65195238D01*
X168733333Y-65290476D01*
X168638095Y-65338095D01*
X169828571Y-65052380D02*
X169923809Y-65052380D01*
X170019047Y-65100000D01*
X170066666Y-65147619D01*
X170114285Y-65242857D01*
X170161904Y-65433333D01*
X170161904Y-65671428D01*
X170114285Y-65861904D01*
X170066666Y-65957142D01*
X170019047Y-66004761D01*
X169923809Y-66052380D01*
X169828571Y-66052380D01*
X169733333Y-66004761D01*
X169685714Y-65957142D01*
X169638095Y-65861904D01*
X169590476Y-65671428D01*
X169590476Y-65433333D01*
X169638095Y-65242857D01*
X169685714Y-65147619D01*
X169733333Y-65100000D01*
X169828571Y-65052380D01*
X158033333Y-66357142D02*
X157985714Y-66404761D01*
X157842857Y-66452380D01*
X157747619Y-66452380D01*
X157604761Y-66404761D01*
X157509523Y-66309523D01*
X157461904Y-66214285D01*
X157414285Y-66023809D01*
X157414285Y-65880952D01*
X157461904Y-65690476D01*
X157509523Y-65595238D01*
X157604761Y-65500000D01*
X157747619Y-65452380D01*
X157842857Y-65452380D01*
X157985714Y-65500000D01*
X158033333Y-65547619D01*
X158509523Y-66452380D02*
X158700000Y-66452380D01*
X158795238Y-66404761D01*
X158842857Y-66357142D01*
X158938095Y-66214285D01*
X158985714Y-66023809D01*
X158985714Y-65642857D01*
X158938095Y-65547619D01*
X158890476Y-65500000D01*
X158795238Y-65452380D01*
X158604761Y-65452380D01*
X158509523Y-65500000D01*
X158461904Y-65547619D01*
X158414285Y-65642857D01*
X158414285Y-65880952D01*
X158461904Y-65976190D01*
X158509523Y-66023809D01*
X158604761Y-66071428D01*
X158795238Y-66071428D01*
X158890476Y-66023809D01*
X158938095Y-65976190D01*
X158985714Y-65880952D01*
X113233333Y-122057142D02*
X113185714Y-122104761D01*
X113042857Y-122152380D01*
X112947619Y-122152380D01*
X112804761Y-122104761D01*
X112709523Y-122009523D01*
X112661904Y-121914285D01*
X112614285Y-121723809D01*
X112614285Y-121580952D01*
X112661904Y-121390476D01*
X112709523Y-121295238D01*
X112804761Y-121200000D01*
X112947619Y-121152380D01*
X113042857Y-121152380D01*
X113185714Y-121200000D01*
X113233333Y-121247619D01*
X113804761Y-121580952D02*
X113709523Y-121533333D01*
X113661904Y-121485714D01*
X113614285Y-121390476D01*
X113614285Y-121342857D01*
X113661904Y-121247619D01*
X113709523Y-121200000D01*
X113804761Y-121152380D01*
X113995238Y-121152380D01*
X114090476Y-121200000D01*
X114138095Y-121247619D01*
X114185714Y-121342857D01*
X114185714Y-121390476D01*
X114138095Y-121485714D01*
X114090476Y-121533333D01*
X113995238Y-121580952D01*
X113804761Y-121580952D01*
X113709523Y-121628571D01*
X113661904Y-121676190D01*
X113614285Y-121771428D01*
X113614285Y-121961904D01*
X113661904Y-122057142D01*
X113709523Y-122104761D01*
X113804761Y-122152380D01*
X113995238Y-122152380D01*
X114090476Y-122104761D01*
X114138095Y-122057142D01*
X114185714Y-121961904D01*
X114185714Y-121771428D01*
X114138095Y-121676190D01*
X114090476Y-121628571D01*
X113995238Y-121580952D01*
X146633333Y-66157142D02*
X146585714Y-66204761D01*
X146442857Y-66252380D01*
X146347619Y-66252380D01*
X146204761Y-66204761D01*
X146109523Y-66109523D01*
X146061904Y-66014285D01*
X146014285Y-65823809D01*
X146014285Y-65680952D01*
X146061904Y-65490476D01*
X146109523Y-65395238D01*
X146204761Y-65300000D01*
X146347619Y-65252380D01*
X146442857Y-65252380D01*
X146585714Y-65300000D01*
X146633333Y-65347619D01*
X146966666Y-65252380D02*
X147633333Y-65252380D01*
X147204761Y-66252380D01*
X131883333Y-87007142D02*
X131835714Y-87054761D01*
X131692857Y-87102380D01*
X131597619Y-87102380D01*
X131454761Y-87054761D01*
X131359523Y-86959523D01*
X131311904Y-86864285D01*
X131264285Y-86673809D01*
X131264285Y-86530952D01*
X131311904Y-86340476D01*
X131359523Y-86245238D01*
X131454761Y-86150000D01*
X131597619Y-86102380D01*
X131692857Y-86102380D01*
X131835714Y-86150000D01*
X131883333Y-86197619D01*
X132740476Y-86102380D02*
X132550000Y-86102380D01*
X132454761Y-86150000D01*
X132407142Y-86197619D01*
X132311904Y-86340476D01*
X132264285Y-86530952D01*
X132264285Y-86911904D01*
X132311904Y-87007142D01*
X132359523Y-87054761D01*
X132454761Y-87102380D01*
X132645238Y-87102380D01*
X132740476Y-87054761D01*
X132788095Y-87007142D01*
X132835714Y-86911904D01*
X132835714Y-86673809D01*
X132788095Y-86578571D01*
X132740476Y-86530952D01*
X132645238Y-86483333D01*
X132454761Y-86483333D01*
X132359523Y-86530952D01*
X132311904Y-86578571D01*
X132264285Y-86673809D01*
X146433333Y-88357142D02*
X146385714Y-88404761D01*
X146242857Y-88452380D01*
X146147619Y-88452380D01*
X146004761Y-88404761D01*
X145909523Y-88309523D01*
X145861904Y-88214285D01*
X145814285Y-88023809D01*
X145814285Y-87880952D01*
X145861904Y-87690476D01*
X145909523Y-87595238D01*
X146004761Y-87500000D01*
X146147619Y-87452380D01*
X146242857Y-87452380D01*
X146385714Y-87500000D01*
X146433333Y-87547619D01*
X147338095Y-87452380D02*
X146861904Y-87452380D01*
X146814285Y-87928571D01*
X146861904Y-87880952D01*
X146957142Y-87833333D01*
X147195238Y-87833333D01*
X147290476Y-87880952D01*
X147338095Y-87928571D01*
X147385714Y-88023809D01*
X147385714Y-88261904D01*
X147338095Y-88357142D01*
X147290476Y-88404761D01*
X147195238Y-88452380D01*
X146957142Y-88452380D01*
X146861904Y-88404761D01*
X146814285Y-88357142D01*
X137033333Y-139757142D02*
X136985714Y-139804761D01*
X136842857Y-139852380D01*
X136747619Y-139852380D01*
X136604761Y-139804761D01*
X136509523Y-139709523D01*
X136461904Y-139614285D01*
X136414285Y-139423809D01*
X136414285Y-139280952D01*
X136461904Y-139090476D01*
X136509523Y-138995238D01*
X136604761Y-138900000D01*
X136747619Y-138852380D01*
X136842857Y-138852380D01*
X136985714Y-138900000D01*
X137033333Y-138947619D01*
X137890476Y-139185714D02*
X137890476Y-139852380D01*
X137652380Y-138804761D02*
X137414285Y-139519047D01*
X138033333Y-139519047D01*
X170357142Y-117866666D02*
X170404761Y-117914285D01*
X170452380Y-118057142D01*
X170452380Y-118152380D01*
X170404761Y-118295238D01*
X170309523Y-118390476D01*
X170214285Y-118438095D01*
X170023809Y-118485714D01*
X169880952Y-118485714D01*
X169690476Y-118438095D01*
X169595238Y-118390476D01*
X169500000Y-118295238D01*
X169452380Y-118152380D01*
X169452380Y-118057142D01*
X169500000Y-117914285D01*
X169547619Y-117866666D01*
X169452380Y-117533333D02*
X169452380Y-116914285D01*
X169833333Y-117247619D01*
X169833333Y-117104761D01*
X169880952Y-117009523D01*
X169928571Y-116961904D01*
X170023809Y-116914285D01*
X170261904Y-116914285D01*
X170357142Y-116961904D01*
X170404761Y-117009523D01*
X170452380Y-117104761D01*
X170452380Y-117390476D01*
X170404761Y-117485714D01*
X170357142Y-117533333D01*
X146233333Y-126857142D02*
X146185714Y-126904761D01*
X146042857Y-126952380D01*
X145947619Y-126952380D01*
X145804761Y-126904761D01*
X145709523Y-126809523D01*
X145661904Y-126714285D01*
X145614285Y-126523809D01*
X145614285Y-126380952D01*
X145661904Y-126190476D01*
X145709523Y-126095238D01*
X145804761Y-126000000D01*
X145947619Y-125952380D01*
X146042857Y-125952380D01*
X146185714Y-126000000D01*
X146233333Y-126047619D01*
X146614285Y-126047619D02*
X146661904Y-126000000D01*
X146757142Y-125952380D01*
X146995238Y-125952380D01*
X147090476Y-126000000D01*
X147138095Y-126047619D01*
X147185714Y-126142857D01*
X147185714Y-126238095D01*
X147138095Y-126380952D01*
X146566666Y-126952380D01*
X147185714Y-126952380D01*
X137033333Y-136857142D02*
X136985714Y-136904761D01*
X136842857Y-136952380D01*
X136747619Y-136952380D01*
X136604761Y-136904761D01*
X136509523Y-136809523D01*
X136461904Y-136714285D01*
X136414285Y-136523809D01*
X136414285Y-136380952D01*
X136461904Y-136190476D01*
X136509523Y-136095238D01*
X136604761Y-136000000D01*
X136747619Y-135952380D01*
X136842857Y-135952380D01*
X136985714Y-136000000D01*
X137033333Y-136047619D01*
X137985714Y-136952380D02*
X137414285Y-136952380D01*
X137700000Y-136952380D02*
X137700000Y-135952380D01*
X137604761Y-136095238D01*
X137509523Y-136190476D01*
X137414285Y-136238095D01*
%LPC*%
D12*
X112300000Y-118600000D03*
X114840000Y-118600000D03*
D13*
X117380000Y-118600000D03*
D12*
X121400000Y-96680000D03*
X121400000Y-94140000D03*
D13*
X121400000Y-91600000D03*
D14*
X110600000Y-93440000D03*
D15*
X110600000Y-103600000D03*
D14*
X117940000Y-66600000D03*
X102700000Y-114860000D03*
X117940000Y-69140000D03*
X102700000Y-112320000D03*
X117940000Y-71680000D03*
X102700000Y-109780000D03*
X117940000Y-74220000D03*
X102700000Y-107240000D03*
X117940000Y-76760000D03*
X102700000Y-104700000D03*
X117940000Y-79300000D03*
X102700000Y-102160000D03*
X117940000Y-81840000D03*
X102700000Y-99620000D03*
X117940000Y-84380000D03*
X102700000Y-97080000D03*
X117940000Y-86920000D03*
X102700000Y-94540000D03*
X117940000Y-89460000D03*
X102700000Y-92000000D03*
X117940000Y-92000000D03*
X102700000Y-89460000D03*
X117940000Y-94540000D03*
X102700000Y-86920000D03*
X117940000Y-97080000D03*
X102700000Y-84380000D03*
X117940000Y-99620000D03*
X102700000Y-81840000D03*
X117940000Y-102160000D03*
X102700000Y-79300000D03*
X117940000Y-104700000D03*
X102700000Y-76760000D03*
X117940000Y-107240000D03*
X102700000Y-74220000D03*
X117940000Y-109780000D03*
X102700000Y-71680000D03*
X117940000Y-112320000D03*
X102700000Y-69140000D03*
X117940000Y-114860000D03*
D16*
X102700000Y-66600000D03*
D14*
X140040000Y-66800000D03*
X124800000Y-115060000D03*
X140040000Y-69340000D03*
X124800000Y-112520000D03*
X140040000Y-71880000D03*
X124800000Y-109980000D03*
X140040000Y-74420000D03*
X124800000Y-107440000D03*
X140040000Y-76960000D03*
X124800000Y-104900000D03*
X140040000Y-79500000D03*
X124800000Y-102360000D03*
X140040000Y-82040000D03*
X124800000Y-99820000D03*
X140040000Y-84580000D03*
X124800000Y-97280000D03*
X140040000Y-87120000D03*
X124800000Y-94740000D03*
X140040000Y-89660000D03*
X124800000Y-92200000D03*
X140040000Y-92200000D03*
X124800000Y-89660000D03*
X140040000Y-94740000D03*
X124800000Y-87120000D03*
X140040000Y-97280000D03*
X124800000Y-84580000D03*
X140040000Y-99820000D03*
X124800000Y-82040000D03*
X140040000Y-102360000D03*
X124800000Y-79500000D03*
X140040000Y-104900000D03*
X124800000Y-76960000D03*
X140040000Y-107440000D03*
X124800000Y-74420000D03*
X140040000Y-109980000D03*
X124800000Y-71880000D03*
X140040000Y-112520000D03*
X124800000Y-69340000D03*
X140040000Y-115060000D03*
D16*
X124800000Y-66800000D03*
D12*
X121400000Y-66420000D03*
X121400000Y-68960000D03*
D13*
X121400000Y-71500000D03*
D14*
X191460000Y-61800000D03*
D15*
X181300000Y-61800000D03*
D17*
G36*
X110988764Y-57303336D02*
G01*
X111076179Y-57316303D01*
X111161901Y-57337775D01*
X111245106Y-57367546D01*
X111324993Y-57405330D01*
X111400791Y-57450762D01*
X111471771Y-57503404D01*
X111537250Y-57562750D01*
X111596596Y-57628229D01*
X111649238Y-57699209D01*
X111694670Y-57775007D01*
X111732454Y-57854894D01*
X111762225Y-57938099D01*
X111783697Y-58023821D01*
X111796664Y-58111236D01*
X111801000Y-58199500D01*
X111801000Y-60000500D01*
X111796664Y-60088764D01*
X111783697Y-60176179D01*
X111762225Y-60261901D01*
X111732454Y-60345106D01*
X111694670Y-60424993D01*
X111649238Y-60500791D01*
X111596596Y-60571771D01*
X111537250Y-60637250D01*
X111471771Y-60696596D01*
X111400791Y-60749238D01*
X111324993Y-60794670D01*
X111245106Y-60832454D01*
X111161901Y-60862225D01*
X111076179Y-60883697D01*
X110988764Y-60896664D01*
X110900500Y-60901000D01*
X109099500Y-60901000D01*
X109011236Y-60896664D01*
X108923821Y-60883697D01*
X108838099Y-60862225D01*
X108754894Y-60832454D01*
X108675007Y-60794670D01*
X108599209Y-60749238D01*
X108528229Y-60696596D01*
X108462750Y-60637250D01*
X108403404Y-60571771D01*
X108350762Y-60500791D01*
X108305330Y-60424993D01*
X108267546Y-60345106D01*
X108237775Y-60261901D01*
X108216303Y-60176179D01*
X108203336Y-60088764D01*
X108199000Y-60000500D01*
X108199000Y-58199500D01*
X108203336Y-58111236D01*
X108216303Y-58023821D01*
X108237775Y-57938099D01*
X108267546Y-57854894D01*
X108305330Y-57775007D01*
X108350762Y-57699209D01*
X108403404Y-57628229D01*
X108462750Y-57562750D01*
X108528229Y-57503404D01*
X108599209Y-57450762D01*
X108675007Y-57405330D01*
X108754894Y-57367546D01*
X108838099Y-57337775D01*
X108923821Y-57316303D01*
X109011236Y-57303336D01*
X109099500Y-57299000D01*
X110900500Y-57299000D01*
X110988764Y-57303336D01*
X110988764Y-57303336D01*
G37*
D18*
X110000000Y-59100000D03*
D17*
G36*
X115801512Y-54552734D02*
G01*
X115876793Y-54563901D01*
X115950616Y-54582393D01*
X116022271Y-54608031D01*
X116091068Y-54640570D01*
X116156345Y-54679695D01*
X116217472Y-54725030D01*
X116273861Y-54776139D01*
X116324970Y-54832528D01*
X116370305Y-54893655D01*
X116409430Y-54958932D01*
X116441969Y-55027729D01*
X116467607Y-55099384D01*
X116486099Y-55173207D01*
X116497266Y-55248488D01*
X116501000Y-55324500D01*
X116501000Y-56875500D01*
X116497266Y-56951512D01*
X116486099Y-57026793D01*
X116467607Y-57100616D01*
X116441969Y-57172271D01*
X116409430Y-57241068D01*
X116370305Y-57306345D01*
X116324970Y-57367472D01*
X116273861Y-57423861D01*
X116217472Y-57474970D01*
X116156345Y-57520305D01*
X116091068Y-57559430D01*
X116022271Y-57591969D01*
X115950616Y-57617607D01*
X115876793Y-57636099D01*
X115801512Y-57647266D01*
X115725500Y-57651000D01*
X113674500Y-57651000D01*
X113598488Y-57647266D01*
X113523207Y-57636099D01*
X113449384Y-57617607D01*
X113377729Y-57591969D01*
X113308932Y-57559430D01*
X113243655Y-57520305D01*
X113182528Y-57474970D01*
X113126139Y-57423861D01*
X113075030Y-57367472D01*
X113029695Y-57306345D01*
X112990570Y-57241068D01*
X112958031Y-57172271D01*
X112932393Y-57100616D01*
X112913901Y-57026793D01*
X112902734Y-56951512D01*
X112899000Y-56875500D01*
X112899000Y-55324500D01*
X112902734Y-55248488D01*
X112913901Y-55173207D01*
X112932393Y-55099384D01*
X112958031Y-55027729D01*
X112990570Y-54958932D01*
X113029695Y-54893655D01*
X113075030Y-54832528D01*
X113126139Y-54776139D01*
X113182528Y-54725030D01*
X113243655Y-54679695D01*
X113308932Y-54640570D01*
X113377729Y-54608031D01*
X113449384Y-54582393D01*
X113523207Y-54563901D01*
X113598488Y-54552734D01*
X113674500Y-54549000D01*
X115725500Y-54549000D01*
X115801512Y-54552734D01*
X115801512Y-54552734D01*
G37*
D19*
X114700000Y-56100000D03*
D20*
X114700000Y-62100000D03*
D21*
X193860000Y-61900000D03*
D22*
X196400000Y-61900000D03*
D15*
X102800000Y-60800000D03*
D16*
X105300000Y-60800000D03*
D12*
X109320000Y-146040000D03*
X109320000Y-143500000D03*
X111860000Y-146040000D03*
X111860000Y-143500000D03*
X114400000Y-146040000D03*
X114400000Y-143500000D03*
X116940000Y-146040000D03*
X116940000Y-143500000D03*
X119480000Y-146040000D03*
X119480000Y-143500000D03*
X122020000Y-146040000D03*
X122020000Y-143500000D03*
X124560000Y-146040000D03*
X124560000Y-143500000D03*
X127100000Y-146040000D03*
X127100000Y-143500000D03*
X129640000Y-146040000D03*
X129640000Y-143500000D03*
X132180000Y-146040000D03*
X132180000Y-143500000D03*
X134720000Y-146040000D03*
X134720000Y-143500000D03*
X137260000Y-146040000D03*
X137260000Y-143500000D03*
X139800000Y-146040000D03*
D13*
X139800000Y-143500000D03*
D23*
X184900000Y-129200000D03*
X182900000Y-129200000D03*
X180900000Y-129200000D03*
X184900000Y-124200000D03*
X182900000Y-124200000D03*
X180900000Y-124200000D03*
D14*
X157800000Y-94560000D03*
X195900000Y-109800000D03*
X160340000Y-94560000D03*
X193360000Y-109800000D03*
X162880000Y-94560000D03*
X190820000Y-109800000D03*
X165420000Y-94560000D03*
X188280000Y-109800000D03*
X167960000Y-94560000D03*
X185740000Y-109800000D03*
X170500000Y-94560000D03*
X183200000Y-109800000D03*
X173040000Y-94560000D03*
X180660000Y-109800000D03*
X175580000Y-94560000D03*
X178120000Y-109800000D03*
X178120000Y-94560000D03*
X175580000Y-109800000D03*
X180660000Y-94560000D03*
X173040000Y-109800000D03*
X183200000Y-94560000D03*
X170500000Y-109800000D03*
X185740000Y-94560000D03*
X167960000Y-109800000D03*
X188280000Y-94560000D03*
X165420000Y-109800000D03*
X190820000Y-94560000D03*
X162880000Y-109800000D03*
X193360000Y-94560000D03*
X160340000Y-109800000D03*
X195900000Y-94560000D03*
D16*
X157800000Y-109800000D03*
D14*
X164700000Y-132260000D03*
X197720000Y-147500000D03*
X167240000Y-132260000D03*
X195180000Y-147500000D03*
X169780000Y-132260000D03*
X192640000Y-147500000D03*
X172320000Y-132260000D03*
X190100000Y-147500000D03*
X174860000Y-132260000D03*
X187560000Y-147500000D03*
X177400000Y-132260000D03*
X185020000Y-147500000D03*
X179940000Y-132260000D03*
X182480000Y-147500000D03*
X182480000Y-132260000D03*
X179940000Y-147500000D03*
X185020000Y-132260000D03*
X177400000Y-147500000D03*
X187560000Y-132260000D03*
X174860000Y-147500000D03*
X190100000Y-132260000D03*
X172320000Y-147500000D03*
X192640000Y-132260000D03*
X169780000Y-147500000D03*
X195180000Y-132260000D03*
X167240000Y-147500000D03*
X197720000Y-132260000D03*
D16*
X164700000Y-147500000D03*
D14*
X196220000Y-68300000D03*
X188600000Y-91160000D03*
X196220000Y-70840000D03*
X188600000Y-88620000D03*
X196220000Y-73380000D03*
X188600000Y-86080000D03*
X196220000Y-75920000D03*
X188600000Y-83540000D03*
X196220000Y-78460000D03*
X188600000Y-81000000D03*
X196220000Y-81000000D03*
X188600000Y-78460000D03*
X196220000Y-83540000D03*
X188600000Y-75920000D03*
X196220000Y-86080000D03*
X188600000Y-73380000D03*
X196220000Y-88620000D03*
X188600000Y-70840000D03*
X196220000Y-91160000D03*
D16*
X188600000Y-68300000D03*
D14*
X184820000Y-68300000D03*
X177200000Y-91160000D03*
X184820000Y-70840000D03*
X177200000Y-88620000D03*
X184820000Y-73380000D03*
X177200000Y-86080000D03*
X184820000Y-75920000D03*
X177200000Y-83540000D03*
X184820000Y-78460000D03*
X177200000Y-81000000D03*
X184820000Y-81000000D03*
X177200000Y-78460000D03*
X184820000Y-83540000D03*
X177200000Y-75920000D03*
X184820000Y-86080000D03*
X177200000Y-73380000D03*
X184820000Y-88620000D03*
X177200000Y-70840000D03*
X184820000Y-91160000D03*
D16*
X177200000Y-68300000D03*
D14*
X128820000Y-121900000D03*
X121200000Y-139680000D03*
X128820000Y-124440000D03*
X121200000Y-137140000D03*
X128820000Y-126980000D03*
X121200000Y-134600000D03*
X128820000Y-129520000D03*
X121200000Y-132060000D03*
X128820000Y-132060000D03*
X121200000Y-129520000D03*
X128820000Y-134600000D03*
X121200000Y-126980000D03*
X128820000Y-137140000D03*
X121200000Y-124440000D03*
X128820000Y-139680000D03*
D16*
X121200000Y-121900000D03*
D14*
X173420000Y-68300000D03*
X165800000Y-91160000D03*
X173420000Y-70840000D03*
X165800000Y-88620000D03*
X173420000Y-73380000D03*
X165800000Y-86080000D03*
X173420000Y-75920000D03*
X165800000Y-83540000D03*
X173420000Y-78460000D03*
X165800000Y-81000000D03*
X173420000Y-81000000D03*
X165800000Y-78460000D03*
X173420000Y-83540000D03*
X165800000Y-75920000D03*
X173420000Y-86080000D03*
X165800000Y-73380000D03*
X173420000Y-88620000D03*
X165800000Y-70840000D03*
X173420000Y-91160000D03*
D16*
X165800000Y-68300000D03*
D14*
X162420000Y-68900000D03*
X154800000Y-86680000D03*
X162420000Y-71440000D03*
X154800000Y-84140000D03*
X162420000Y-73980000D03*
X154800000Y-81600000D03*
X162420000Y-76520000D03*
X154800000Y-79060000D03*
X162420000Y-79060000D03*
X154800000Y-76520000D03*
X162420000Y-81600000D03*
X154800000Y-73980000D03*
X162420000Y-84140000D03*
X154800000Y-71440000D03*
X162420000Y-86680000D03*
D16*
X154800000Y-68900000D03*
D14*
X117920000Y-124600000D03*
X110300000Y-139840000D03*
X117920000Y-127140000D03*
X110300000Y-137300000D03*
X117920000Y-129680000D03*
X110300000Y-134760000D03*
X117920000Y-132220000D03*
X110300000Y-132220000D03*
X117920000Y-134760000D03*
X110300000Y-129680000D03*
X117920000Y-137300000D03*
X110300000Y-127140000D03*
X117920000Y-139840000D03*
D16*
X110300000Y-124600000D03*
D14*
X151220000Y-68900000D03*
X143600000Y-84140000D03*
X151220000Y-71440000D03*
X143600000Y-81600000D03*
X151220000Y-73980000D03*
X143600000Y-79060000D03*
X151220000Y-76520000D03*
X143600000Y-76520000D03*
X151220000Y-79060000D03*
X143600000Y-73980000D03*
X151220000Y-81600000D03*
X143600000Y-71440000D03*
X151220000Y-84140000D03*
D16*
X143600000Y-68900000D03*
D14*
X151220000Y-90900000D03*
X143600000Y-106140000D03*
X151220000Y-93440000D03*
X143600000Y-103600000D03*
X151220000Y-95980000D03*
X143600000Y-101060000D03*
X151220000Y-98520000D03*
X143600000Y-98520000D03*
X151220000Y-101060000D03*
X143600000Y-95980000D03*
X151220000Y-103600000D03*
X143600000Y-93440000D03*
X151220000Y-106140000D03*
D16*
X143600000Y-90900000D03*
D14*
X173300000Y-113580000D03*
X188540000Y-121200000D03*
X175840000Y-113580000D03*
X186000000Y-121200000D03*
X178380000Y-113580000D03*
X183460000Y-121200000D03*
X180920000Y-113580000D03*
X180920000Y-121200000D03*
X183460000Y-113580000D03*
X178380000Y-121200000D03*
X186000000Y-113580000D03*
X175840000Y-121200000D03*
X188540000Y-113580000D03*
D16*
X173300000Y-121200000D03*
D14*
X151120000Y-129500000D03*
X143500000Y-147280000D03*
X151120000Y-132040000D03*
X143500000Y-144740000D03*
X151120000Y-134580000D03*
X143500000Y-142200000D03*
X151120000Y-137120000D03*
X143500000Y-139660000D03*
X151120000Y-139660000D03*
X143500000Y-137120000D03*
X151120000Y-142200000D03*
X143500000Y-134580000D03*
X151120000Y-144740000D03*
X143500000Y-132040000D03*
X151120000Y-147280000D03*
D16*
X143500000Y-129500000D03*
D24*
X136000000Y-132300000D03*
X138540000Y-129760000D03*
X136000000Y-127220000D03*
X157900000Y-146400000D03*
X160440000Y-143860000D03*
X157900000Y-141320000D03*
X157900000Y-136100000D03*
X160440000Y-133560000D03*
X157900000Y-131020000D03*
D14*
X121400000Y-86560000D03*
X121400000Y-84020000D03*
X121400000Y-81480000D03*
X121400000Y-78940000D03*
D16*
X121400000Y-76400000D03*
D14*
X121300000Y-107440000D03*
D15*
X121300000Y-117600000D03*
D14*
X154960000Y-122500000D03*
D15*
X144800000Y-122500000D03*
D14*
X142060000Y-122500000D03*
D15*
X131900000Y-122500000D03*
D14*
X166460000Y-117400000D03*
D15*
X156300000Y-117400000D03*
D14*
X166460000Y-114000000D03*
D15*
X156300000Y-114000000D03*
D14*
X153760000Y-114000000D03*
D15*
X143600000Y-114000000D03*
D14*
X153760000Y-117400000D03*
D15*
X143600000Y-117400000D03*
D14*
X198360000Y-125600000D03*
D15*
X188200000Y-125600000D03*
D14*
X198360000Y-128900000D03*
D15*
X188200000Y-128900000D03*
D14*
X164160000Y-126100000D03*
D15*
X154000000Y-126100000D03*
D14*
X176960000Y-126100000D03*
D15*
X166800000Y-126100000D03*
D14*
X167760000Y-122500000D03*
D15*
X157600000Y-122500000D03*
D25*
X194500000Y-120500000D03*
X105500000Y-120500000D03*
X194500000Y-54500000D03*
X105500000Y-54500000D03*
D12*
X105500000Y-127800000D03*
X105500000Y-130340000D03*
X105500000Y-132880000D03*
X105500000Y-135420000D03*
X105500000Y-137960000D03*
D13*
X105500000Y-140500000D03*
D12*
X174260000Y-59960000D03*
X174260000Y-62500000D03*
X171720000Y-59960000D03*
X171720000Y-62500000D03*
X169180000Y-59960000D03*
X169180000Y-62500000D03*
X166640000Y-59960000D03*
X166640000Y-62500000D03*
X164100000Y-59960000D03*
X164100000Y-62500000D03*
X161560000Y-59960000D03*
X161560000Y-62500000D03*
X159020000Y-59960000D03*
X159020000Y-62500000D03*
X156480000Y-59960000D03*
X156480000Y-62500000D03*
X153940000Y-59960000D03*
X153940000Y-62500000D03*
X151400000Y-59960000D03*
X151400000Y-62500000D03*
X148860000Y-59960000D03*
X148860000Y-62500000D03*
X146320000Y-59960000D03*
X146320000Y-62500000D03*
X143780000Y-59960000D03*
X143780000Y-62500000D03*
X141240000Y-59960000D03*
X141240000Y-62500000D03*
X138700000Y-59960000D03*
X138700000Y-62500000D03*
X136160000Y-59960000D03*
X136160000Y-62500000D03*
X133620000Y-59960000D03*
X133620000Y-62500000D03*
X131080000Y-59960000D03*
X131080000Y-62500000D03*
X128540000Y-59960000D03*
X128540000Y-62500000D03*
X126000000Y-59960000D03*
D13*
X126000000Y-62500000D03*
D15*
X155000000Y-94000000D03*
X155000000Y-96500000D03*
X186500000Y-55500000D03*
D16*
X186500000Y-58000000D03*
D15*
X169200000Y-138300000D03*
X169200000Y-140800000D03*
X111600000Y-109000000D03*
X109100000Y-109000000D03*
X196700000Y-65400000D03*
X194200000Y-65400000D03*
X185300000Y-65400000D03*
X182800000Y-65400000D03*
X129200000Y-118900000D03*
X126700000Y-118900000D03*
X136900000Y-119400000D03*
X131900000Y-119400000D03*
X173900000Y-65500000D03*
X171400000Y-65500000D03*
X162900000Y-65900000D03*
X160400000Y-65900000D03*
X118100000Y-121600000D03*
X115600000Y-121600000D03*
X151500000Y-65900000D03*
X149000000Y-65900000D03*
X130800000Y-84600000D03*
X133300000Y-84600000D03*
X151300000Y-88100000D03*
X148800000Y-88100000D03*
X139800000Y-139400000D03*
X134800000Y-139400000D03*
X170400000Y-113100000D03*
X170400000Y-115600000D03*
X151600000Y-126500000D03*
X149100000Y-126500000D03*
X139800000Y-136500000D03*
X134800000Y-136500000D03*
M02*
