G04 #@! TF.GenerationSoftware,KiCad,Pcbnew,9.0.0*
G04 #@! TF.CreationDate,2025-04-04T21:25:27+09:00*
G04 #@! TF.ProjectId,K68-CPUB,4b36382d-4350-4554-922e-6b696361645f,rev?*
G04 #@! TF.SameCoordinates,PX5f5e100PY8f0d180*
G04 #@! TF.FileFunction,Soldermask,Top*
G04 #@! TF.FilePolarity,Negative*
%FSLAX46Y46*%
G04 Gerber Fmt 4.6, Leading zero omitted, Abs format (unit mm)*
G04 Created by KiCad (PCBNEW 9.0.0) date 2025-04-04 21:25:27*
%MOMM*%
%LPD*%
G01*
G04 APERTURE LIST*
G04 Aperture macros list*
%AMRoundRect*
0 Rectangle with rounded corners*
0 $1 Rounding radius*
0 $2 $3 $4 $5 $6 $7 $8 $9 X,Y pos of 4 corners*
0 Add a 4 corners polygon primitive as box body*
4,1,4,$2,$3,$4,$5,$6,$7,$8,$9,$2,$3,0*
0 Add four circle primitives for the rounded corners*
1,1,$1+$1,$2,$3*
1,1,$1+$1,$4,$5*
1,1,$1+$1,$6,$7*
1,1,$1+$1,$8,$9*
0 Add four rect primitives between the rounded corners*
20,1,$1+$1,$2,$3,$4,$5,0*
20,1,$1+$1,$4,$5,$6,$7,0*
20,1,$1+$1,$6,$7,$8,$9,0*
20,1,$1+$1,$8,$9,$2,$3,0*%
G04 Aperture macros list end*
%ADD10C,1.600000*%
%ADD11R,1.600000X1.600000*%
%ADD12R,1.700000X1.700000*%
%ADD13O,1.700000X1.700000*%
%ADD14C,3.200000*%
%ADD15O,1.600000X1.600000*%
%ADD16C,1.440000*%
%ADD17O,1.200000X1.100000*%
%ADD18R,1.800000X1.800000*%
%ADD19C,1.800000*%
%ADD20R,3.500000X3.500000*%
%ADD21RoundRect,0.750000X-1.000000X0.750000X-1.000000X-0.750000X1.000000X-0.750000X1.000000X0.750000X0*%
%ADD22RoundRect,0.875000X-0.875000X0.875000X-0.875000X-0.875000X0.875000X-0.875000X0.875000X0.875000X0*%
G04 APERTURE END LIST*
D10*
X34800000Y13500000D03*
X39800000Y13500000D03*
X49100000Y23500000D03*
X51600000Y23500000D03*
X70400000Y34400000D03*
X70400000Y36900000D03*
X34800000Y10600000D03*
X39800000Y10600000D03*
X33300000Y65400000D03*
X30800000Y65400000D03*
X15600000Y28400000D03*
X18100000Y28400000D03*
X31900000Y30600000D03*
X36900000Y30600000D03*
X26700000Y31100000D03*
X29200000Y31100000D03*
X9100000Y41000000D03*
X11600000Y41000000D03*
X69200000Y9200000D03*
X69200000Y11700000D03*
D11*
X86500000Y92000000D03*
D10*
X86500000Y94500000D03*
X55000000Y53500000D03*
X55000000Y56000000D03*
D12*
X39800000Y6500000D03*
D13*
X39800000Y3960000D03*
X37260000Y6500000D03*
X37260000Y3960000D03*
X34720000Y6500000D03*
X34720000Y3960000D03*
X32180000Y6500000D03*
X32180000Y3960000D03*
X29640000Y6500000D03*
X29640000Y3960000D03*
X27100000Y6500000D03*
X27100000Y3960000D03*
X24560000Y6500000D03*
X24560000Y3960000D03*
X22020000Y6500000D03*
X22020000Y3960000D03*
X19480000Y6500000D03*
X19480000Y3960000D03*
X16940000Y6500000D03*
X16940000Y3960000D03*
X14400000Y6500000D03*
X14400000Y3960000D03*
X11860000Y6500000D03*
X11860000Y3960000D03*
X9320000Y6500000D03*
X9320000Y3960000D03*
D12*
X5500000Y9500000D03*
D13*
X5500000Y12040000D03*
X5500000Y14580000D03*
X5500000Y17120000D03*
X5500000Y19660000D03*
X5500000Y22200000D03*
D14*
X5500000Y95500000D03*
X94500000Y95500000D03*
D10*
X57600000Y27500000D03*
D15*
X67760000Y27500000D03*
D10*
X66800000Y23900000D03*
D15*
X76960000Y23900000D03*
D10*
X54000000Y23900000D03*
D15*
X64160000Y23900000D03*
D10*
X88200000Y21100000D03*
D15*
X98360000Y21100000D03*
D10*
X88200000Y24400000D03*
D15*
X98360000Y24400000D03*
D10*
X43600000Y32600000D03*
D15*
X53760000Y32600000D03*
D10*
X43600000Y36000000D03*
D15*
X53760000Y36000000D03*
D10*
X56300000Y36000000D03*
D15*
X66460000Y36000000D03*
D10*
X56300000Y32600000D03*
D15*
X66460000Y32600000D03*
D10*
X31900000Y27500000D03*
D15*
X42060000Y27500000D03*
D10*
X44800000Y27500000D03*
D15*
X54960000Y27500000D03*
D10*
X21300000Y32400000D03*
D15*
X21300000Y42560000D03*
D11*
X21400000Y73600000D03*
D15*
X21400000Y71060000D03*
X21400000Y68520000D03*
X21400000Y65980000D03*
X21400000Y63440000D03*
D16*
X57900000Y13900000D03*
X60440000Y16440000D03*
X57900000Y18980000D03*
X57900000Y3600000D03*
X60440000Y6140000D03*
X57900000Y8680000D03*
X36000000Y17700000D03*
X38540000Y20240000D03*
X36000000Y22780000D03*
D11*
X43500000Y20500000D03*
D15*
X43500000Y17960000D03*
X43500000Y15420000D03*
X43500000Y12880000D03*
X43500000Y10340000D03*
X43500000Y7800000D03*
X43500000Y5260000D03*
X43500000Y2720000D03*
X51120000Y2720000D03*
X51120000Y5260000D03*
X51120000Y7800000D03*
X51120000Y10340000D03*
X51120000Y12880000D03*
X51120000Y15420000D03*
X51120000Y17960000D03*
X51120000Y20500000D03*
D11*
X73300000Y28800000D03*
D15*
X75840000Y28800000D03*
X78380000Y28800000D03*
X80920000Y28800000D03*
X83460000Y28800000D03*
X86000000Y28800000D03*
X88540000Y28800000D03*
X88540000Y36420000D03*
X86000000Y36420000D03*
X83460000Y36420000D03*
X80920000Y36420000D03*
X78380000Y36420000D03*
X75840000Y36420000D03*
X73300000Y36420000D03*
D11*
X43600000Y59100000D03*
D15*
X43600000Y56560000D03*
X43600000Y54020000D03*
X43600000Y51480000D03*
X43600000Y48940000D03*
X43600000Y46400000D03*
X43600000Y43860000D03*
X51220000Y43860000D03*
X51220000Y46400000D03*
X51220000Y48940000D03*
X51220000Y51480000D03*
X51220000Y54020000D03*
X51220000Y56560000D03*
X51220000Y59100000D03*
D11*
X10300000Y25400000D03*
D15*
X10300000Y22860000D03*
X10300000Y20320000D03*
X10300000Y17780000D03*
X10300000Y15240000D03*
X10300000Y12700000D03*
X10300000Y10160000D03*
X17920000Y10160000D03*
X17920000Y12700000D03*
X17920000Y15240000D03*
X17920000Y17780000D03*
X17920000Y20320000D03*
X17920000Y22860000D03*
X17920000Y25400000D03*
D11*
X21200000Y28100000D03*
D15*
X21200000Y25560000D03*
X21200000Y23020000D03*
X21200000Y20480000D03*
X21200000Y17940000D03*
X21200000Y15400000D03*
X21200000Y12860000D03*
X21200000Y10320000D03*
X28820000Y10320000D03*
X28820000Y12860000D03*
X28820000Y15400000D03*
X28820000Y17940000D03*
X28820000Y20480000D03*
X28820000Y23020000D03*
X28820000Y25560000D03*
X28820000Y28100000D03*
D11*
X64700000Y2500000D03*
D15*
X67240000Y2500000D03*
X69780000Y2500000D03*
X72320000Y2500000D03*
X74860000Y2500000D03*
X77400000Y2500000D03*
X79940000Y2500000D03*
X82480000Y2500000D03*
X85020000Y2500000D03*
X87560000Y2500000D03*
X90100000Y2500000D03*
X92640000Y2500000D03*
X95180000Y2500000D03*
X97720000Y2500000D03*
X97720000Y17740000D03*
X95180000Y17740000D03*
X92640000Y17740000D03*
X90100000Y17740000D03*
X87560000Y17740000D03*
X85020000Y17740000D03*
X82480000Y17740000D03*
X79940000Y17740000D03*
X77400000Y17740000D03*
X74860000Y17740000D03*
X72320000Y17740000D03*
X69780000Y17740000D03*
X67240000Y17740000D03*
X64700000Y17740000D03*
D11*
X57800000Y40200000D03*
D15*
X60340000Y40200000D03*
X62880000Y40200000D03*
X65420000Y40200000D03*
X67960000Y40200000D03*
X70500000Y40200000D03*
X73040000Y40200000D03*
X75580000Y40200000D03*
X78120000Y40200000D03*
X80660000Y40200000D03*
X83200000Y40200000D03*
X85740000Y40200000D03*
X88280000Y40200000D03*
X90820000Y40200000D03*
X93360000Y40200000D03*
X95900000Y40200000D03*
X95900000Y55440000D03*
X93360000Y55440000D03*
X90820000Y55440000D03*
X88280000Y55440000D03*
X85740000Y55440000D03*
X83200000Y55440000D03*
X80660000Y55440000D03*
X78120000Y55440000D03*
X75580000Y55440000D03*
X73040000Y55440000D03*
X70500000Y55440000D03*
X67960000Y55440000D03*
X65420000Y55440000D03*
X62880000Y55440000D03*
X60340000Y55440000D03*
X57800000Y55440000D03*
D17*
X80900000Y25800000D03*
X82900000Y25800000D03*
X84900000Y25800000D03*
X80900000Y20800000D03*
X82900000Y20800000D03*
X84900000Y20800000D03*
D14*
X94500000Y29500000D03*
X5500000Y29500000D03*
D11*
X24800000Y83200000D03*
D15*
X24800000Y80660000D03*
X24800000Y78120000D03*
X24800000Y75580000D03*
X24800000Y73040000D03*
X24800000Y70500000D03*
X24800000Y67960000D03*
X24800000Y65420000D03*
X24800000Y62880000D03*
X24800000Y60340000D03*
X24800000Y57800000D03*
X24800000Y55260000D03*
X24800000Y52720000D03*
X24800000Y50180000D03*
X24800000Y47640000D03*
X24800000Y45100000D03*
X24800000Y42560000D03*
X24800000Y40020000D03*
X24800000Y37480000D03*
X24800000Y34940000D03*
X40040000Y34940000D03*
X40040000Y37480000D03*
X40040000Y40020000D03*
X40040000Y42560000D03*
X40040000Y45100000D03*
X40040000Y47640000D03*
X40040000Y50180000D03*
X40040000Y52720000D03*
X40040000Y55260000D03*
X40040000Y57800000D03*
X40040000Y60340000D03*
X40040000Y62880000D03*
X40040000Y65420000D03*
X40040000Y67960000D03*
X40040000Y70500000D03*
X40040000Y73040000D03*
X40040000Y75580000D03*
X40040000Y78120000D03*
X40040000Y80660000D03*
X40040000Y83200000D03*
D12*
X26000000Y87500000D03*
D13*
X26000000Y90040000D03*
X28540000Y87500000D03*
X28540000Y90040000D03*
X31080000Y87500000D03*
X31080000Y90040000D03*
X33620000Y87500000D03*
X33620000Y90040000D03*
X36160000Y87500000D03*
X36160000Y90040000D03*
X38700000Y87500000D03*
X38700000Y90040000D03*
X41240000Y87500000D03*
X41240000Y90040000D03*
X43780000Y87500000D03*
X43780000Y90040000D03*
X46320000Y87500000D03*
X46320000Y90040000D03*
X48860000Y87500000D03*
X48860000Y90040000D03*
X51400000Y87500000D03*
X51400000Y90040000D03*
X53940000Y87500000D03*
X53940000Y90040000D03*
X56480000Y87500000D03*
X56480000Y90040000D03*
X59020000Y87500000D03*
X59020000Y90040000D03*
X61560000Y87500000D03*
X61560000Y90040000D03*
X64100000Y87500000D03*
X64100000Y90040000D03*
X66640000Y87500000D03*
X66640000Y90040000D03*
X69180000Y87500000D03*
X69180000Y90040000D03*
X71720000Y87500000D03*
X71720000Y90040000D03*
X74260000Y87500000D03*
X74260000Y90040000D03*
D11*
X88600000Y81700000D03*
D15*
X88600000Y79160000D03*
X88600000Y76620000D03*
X88600000Y74080000D03*
X88600000Y71540000D03*
X88600000Y69000000D03*
X88600000Y66460000D03*
X88600000Y63920000D03*
X88600000Y61380000D03*
X88600000Y58840000D03*
X96220000Y58840000D03*
X96220000Y61380000D03*
X96220000Y63920000D03*
X96220000Y66460000D03*
X96220000Y69000000D03*
X96220000Y71540000D03*
X96220000Y74080000D03*
X96220000Y76620000D03*
X96220000Y79160000D03*
X96220000Y81700000D03*
D11*
X43600000Y81100000D03*
D15*
X43600000Y78560000D03*
X43600000Y76020000D03*
X43600000Y73480000D03*
X43600000Y70940000D03*
X43600000Y68400000D03*
X43600000Y65860000D03*
X51220000Y65860000D03*
X51220000Y68400000D03*
X51220000Y70940000D03*
X51220000Y73480000D03*
X51220000Y76020000D03*
X51220000Y78560000D03*
X51220000Y81100000D03*
D11*
X54800000Y81100000D03*
D15*
X54800000Y78560000D03*
X54800000Y76020000D03*
X54800000Y73480000D03*
X54800000Y70940000D03*
X54800000Y68400000D03*
X54800000Y65860000D03*
X54800000Y63320000D03*
X62420000Y63320000D03*
X62420000Y65860000D03*
X62420000Y68400000D03*
X62420000Y70940000D03*
X62420000Y73480000D03*
X62420000Y76020000D03*
X62420000Y78560000D03*
X62420000Y81100000D03*
D11*
X65800000Y81700000D03*
D15*
X65800000Y79160000D03*
X65800000Y76620000D03*
X65800000Y74080000D03*
X65800000Y71540000D03*
X65800000Y69000000D03*
X65800000Y66460000D03*
X65800000Y63920000D03*
X65800000Y61380000D03*
X65800000Y58840000D03*
X73420000Y58840000D03*
X73420000Y61380000D03*
X73420000Y63920000D03*
X73420000Y66460000D03*
X73420000Y69000000D03*
X73420000Y71540000D03*
X73420000Y74080000D03*
X73420000Y76620000D03*
X73420000Y79160000D03*
X73420000Y81700000D03*
D10*
X49000000Y84100000D03*
X51500000Y84100000D03*
X60400000Y84100000D03*
X62900000Y84100000D03*
X71400000Y84500000D03*
X73900000Y84500000D03*
X82800000Y84600000D03*
X85300000Y84600000D03*
X94200000Y84600000D03*
X96700000Y84600000D03*
D11*
X77200000Y81700000D03*
D15*
X77200000Y79160000D03*
X77200000Y76620000D03*
X77200000Y74080000D03*
X77200000Y71540000D03*
X77200000Y69000000D03*
X77200000Y66460000D03*
X77200000Y63920000D03*
X77200000Y61380000D03*
X77200000Y58840000D03*
X84820000Y58840000D03*
X84820000Y61380000D03*
X84820000Y63920000D03*
X84820000Y66460000D03*
X84820000Y69000000D03*
X84820000Y71540000D03*
X84820000Y74080000D03*
X84820000Y76620000D03*
X84820000Y79160000D03*
X84820000Y81700000D03*
D11*
X5300000Y89200000D03*
D10*
X2800000Y89200000D03*
D18*
X96400000Y88100000D03*
D19*
X93860000Y88100000D03*
D20*
X14700000Y87900000D03*
D21*
X14700000Y93900000D03*
D22*
X10000000Y90900000D03*
D10*
X81300000Y88200000D03*
D15*
X91460000Y88200000D03*
D12*
X21400000Y78500000D03*
D13*
X21400000Y81040000D03*
X21400000Y83580000D03*
D11*
X2700000Y83400000D03*
D15*
X2700000Y80860000D03*
X2700000Y78320000D03*
X2700000Y75780000D03*
X2700000Y73240000D03*
X2700000Y70700000D03*
X2700000Y68160000D03*
X2700000Y65620000D03*
X2700000Y63080000D03*
X2700000Y60540000D03*
X2700000Y58000000D03*
X2700000Y55460000D03*
X2700000Y52920000D03*
X2700000Y50380000D03*
X2700000Y47840000D03*
X2700000Y45300000D03*
X2700000Y42760000D03*
X2700000Y40220000D03*
X2700000Y37680000D03*
X2700000Y35140000D03*
X17940000Y35140000D03*
X17940000Y37680000D03*
X17940000Y40220000D03*
X17940000Y42760000D03*
X17940000Y45300000D03*
X17940000Y47840000D03*
X17940000Y50380000D03*
X17940000Y52920000D03*
X17940000Y55460000D03*
X17940000Y58000000D03*
X17940000Y60540000D03*
X17940000Y63080000D03*
X17940000Y65620000D03*
X17940000Y68160000D03*
X17940000Y70700000D03*
X17940000Y73240000D03*
X17940000Y75780000D03*
X17940000Y78320000D03*
X17940000Y80860000D03*
X17940000Y83400000D03*
D10*
X48800000Y61900000D03*
X51300000Y61900000D03*
X10600000Y46400000D03*
D15*
X10600000Y56560000D03*
D12*
X21400000Y58400000D03*
D13*
X21400000Y55860000D03*
X21400000Y53320000D03*
D12*
X17380000Y31400000D03*
D13*
X14840000Y31400000D03*
X12300000Y31400000D03*
M02*
